<?xml version="1.0" encoding="UTF-8"?>
<svg id="Layer_2" data-name="Layer 2" xmlns="http://www.w3.org/2000/svg" viewBox="0 0 145.68 217.99">
  <defs>
    <style>
      .cls-1 {
        stroke: #4a90a0;
      }

      .cls-1, .cls-2, .cls-3, .cls-4, .cls-5, .cls-6, .cls-7, .cls-8, .cls-9, .cls-10, .cls-11, .cls-12, .cls-13, .cls-14, .cls-15, .cls-16, .cls-17, .cls-18, .cls-19, .cls-20, .cls-21, .cls-22, .cls-23, .cls-24, .cls-25, .cls-26, .cls-27, .cls-28, .cls-29, .cls-30, .cls-31, .cls-32, .cls-33, .cls-34, .cls-35, .cls-36, .cls-37, .cls-38, .cls-39, .cls-40, .cls-41, .cls-42, .cls-43, .cls-44, .cls-45, .cls-46, .cls-47, .cls-48, .cls-49, .cls-50, .cls-51, .cls-52, .cls-53, .cls-54, .cls-55, .cls-56, .cls-57, .cls-58, .cls-59, .cls-60, .cls-61, .cls-62, .cls-63, .cls-64, .cls-65, .cls-66, .cls-67, .cls-68, .cls-69, .cls-70, .cls-71, .cls-72, .cls-73, .cls-74, .cls-75, .cls-76, .cls-77, .cls-78, .cls-79, .cls-80, .cls-81, .cls-82, .cls-83, .cls-84, .cls-85, .cls-86, .cls-87, .cls-88, .cls-89, .cls-90, .cls-91, .cls-92, .cls-93, .cls-94, .cls-95, .cls-96, .cls-97, .cls-98, .cls-99, .cls-100, .cls-101, .cls-102, .cls-103, .cls-104, .cls-105, .cls-106, .cls-107, .cls-108, .cls-109, .cls-110, .cls-111, .cls-112, .cls-113, .cls-114, .cls-115, .cls-116, .cls-117, .cls-118, .cls-119, .cls-120, .cls-121, .cls-122, .cls-123, .cls-124, .cls-125, .cls-126, .cls-127, .cls-128, .cls-129, .cls-130, .cls-131, .cls-132, .cls-133, .cls-134, .cls-135, .cls-136, .cls-137, .cls-138, .cls-139, .cls-140, .cls-141, .cls-142, .cls-143, .cls-144, .cls-145, .cls-146, .cls-147, .cls-148, .cls-149, .cls-150, .cls-151, .cls-152, .cls-153, .cls-154, .cls-155, .cls-156, .cls-157, .cls-158, .cls-159, .cls-160, .cls-161, .cls-162, .cls-163, .cls-164, .cls-165, .cls-166, .cls-167, .cls-168 {
        fill: none;
        stroke-width: 2px;
      }

      .cls-2 {
        stroke: #2b4957;
      }

      .cls-3 {
        stroke: #798f91;
      }

      .cls-4 {
        stroke: #1b3144;
      }

      .cls-5 {
        stroke: #555d64;
      }

      .cls-6 {
        stroke: #1f394a;
      }

      .cls-7 {
        stroke: #3c6a75;
      }

      .cls-8 {
        stroke: #3b5f6e;
      }

      .cls-9 {
        stroke: #88dad9;
      }

      .cls-169 {
        fill: #588388;
      }

      .cls-10 {
        stroke: #a1eae8;
      }

      .cls-11 {
        stroke: #8bddd9;
      }

      .cls-12 {
        stroke: #7fb8ba;
      }

      .cls-13 {
        stroke: #71a8a6;
      }

      .cls-14 {
        stroke: #738282;
      }

      .cls-15 {
        stroke: #1d394f;
      }

      .cls-170 {
        fill: #4b93a1;
      }

      .cls-16 {
        stroke: #a3ccc9;
      }

      .cls-17 {
        stroke: #335c6e;
      }

      .cls-171 {
        fill: #97dbd0;
      }

      .cls-172 {
        fill: #4b6a6a;
      }

      .cls-18 {
        stroke: #b1dddd;
      }

      .cls-19 {
        stroke: #76a7a2;
      }

      .cls-20 {
        stroke: #3b778e;
      }

      .cls-21 {
        stroke: #5c9eb5;
      }

      .cls-22 {
        stroke: #688791;
      }

      .cls-173 {
        fill: #6bbbc7;
      }

      .cls-23 {
        stroke: #3e7f94;
      }

      .cls-24 {
        stroke: #6a9fa5;
      }

      .cls-174 {
        fill: #386579;
      }

      .cls-25 {
        stroke: #1c364c;
      }

      .cls-26 {
        stroke: #5492ac;
      }

      .cls-175 {
        fill: #64b5ba;
      }

      .cls-27 {
        stroke: #5599a8;
      }

      .cls-28 {
        stroke: #76c9ce;
      }

      .cls-29 {
        stroke: #4c6a6a;
      }

      .cls-30 {
        stroke: #4a8c9d;
      }

      .cls-31 {
        stroke: #335663;
      }

      .cls-32 {
        stroke: #467f9a;
      }

      .cls-33 {
        stroke: #4d767d;
      }

      .cls-34 {
        stroke: #627e7d;
      }

      .cls-176 {
        fill: #426161;
      }

      .cls-177 {
        fill: #5da5b1;
      }

      .cls-35 {
        stroke: #5898a3;
      }

      .cls-36 {
        stroke: #47676b;
      }

      .cls-37 {
        stroke: #619390;
      }

      .cls-38 {
        stroke: #6d8d93;
      }

      .cls-39 {
        stroke: #417d91;
      }

      .cls-40 {
        stroke: #387088;
      }

      .cls-41 {
        stroke: #72b9bc;
      }

      .cls-42 {
        stroke: #5d6e7a;
      }

      .cls-43 {
        stroke: #99bbb5;
      }

      .cls-44 {
        stroke: #192e40;
      }

      .cls-45 {
        stroke: #336f88;
      }

      .cls-46 {
        stroke: #7bb4b1;
      }

      .cls-47 {
        stroke: #3c5a62;
      }

      .cls-48 {
        stroke: #88d1cf;
      }

      .cls-49 {
        stroke: #7399a1;
      }

      .cls-50 {
        stroke: #61adb6;
      }

      .cls-51 {
        stroke: #5f7785;
      }

      .cls-52 {
        stroke: #58a4ae;
      }

      .cls-53 {
        stroke: #264354;
      }

      .cls-178 {
        fill: #2e5263;
      }

      .cls-54 {
        stroke: #849290;
      }

      .cls-179 {
        fill: #a6f0e9;
      }

      .cls-55 {
        stroke: #274353;
      }

      .cls-56 {
        stroke: #5b9ca4;
      }

      .cls-57 {
        stroke: #77a7a3;
      }

      .cls-58 {
        stroke: #54888e;
      }

      .cls-59 {
        stroke: #375b6b;
      }

      .cls-60 {
        stroke: #34545f;
      }

      .cls-61 {
        stroke: #2b5d79;
      }

      .cls-180 {
        fill: #304e5b;
      }

      .cls-62 {
        stroke: #2b4c5d;
      }

      .cls-181 {
        fill: #385a63;
      }

      .cls-182 {
        fill: #101f2e;
      }

      .cls-63 {
        stroke: #3e7c93;
      }

      .cls-64 {
        stroke: #47889c;
      }

      .cls-65 {
        stroke: #b0ebe4;
      }

      .cls-66 {
        stroke: #1e3647;
      }

      .cls-67 {
        stroke: #bffefb;
      }

      .cls-183 {
        fill: #182b3d;
      }

      .cls-184 {
        fill: #458395;
      }

      .cls-68 {
        stroke: #5c9296;
      }

      .cls-69 {
        stroke: #4c7b85;
      }

      .cls-70 {
        stroke: #346880;
      }

      .cls-71 {
        stroke: #385d69;
      }

      .cls-72 {
        stroke: #769da4;
      }

      .cls-73 {
        stroke: #6ebcc5;
      }

      .cls-74 {
        stroke: #458498;
      }

      .cls-75 {
        stroke: #b6cccc;
      }

      .cls-76 {
        stroke: #4b8595;
      }

      .cls-77 {
        stroke: #93dad4;
      }

      .cls-78 {
        stroke: #335968;
      }

      .cls-79 {
        stroke: #2c536a;
      }

      .cls-80 {
        stroke: #4c8ba5;
      }

      .cls-81 {
        stroke: #99e6e0;
      }

      .cls-82 {
        stroke: #8ed4d3;
      }

      .cls-83 {
        stroke: #8bd6d3;
      }

      .cls-84 {
        stroke: #6c8b95;
      }

      .cls-85 {
        stroke: #66a7ad;
      }

      .cls-86 {
        stroke: #8fd4cc;
      }

      .cls-87 {
        stroke: #69b6c9;
      }

      .cls-185 {
        fill: #5b97b9;
      }

      .cls-186 {
        fill: #41686f;
      }

      .cls-88 {
        stroke: #1a3040;
      }

      .cls-187 {
        fill: #abfef8;
      }

      .cls-89 {
        stroke: #6ca4a4;
      }

      .cls-90 {
        stroke: #8bc5c1;
      }

      .cls-91 {
        stroke: #60a5b2;
      }

      .cls-92 {
        stroke: #68a3a7;
      }

      .cls-93 {
        stroke: #a1ede4;
      }

      .cls-94 {
        stroke: #84d2d5;
      }

      .cls-188 {
        fill: #c9faf7;
      }

      .cls-95 {
        stroke: #224b66;
      }

      .cls-96 {
        stroke: #84bebb;
      }

      .cls-97 {
        stroke: #142536;
      }

      .cls-98 {
        stroke: #61aac0;
      }

      .cls-99 {
        stroke: #243d4c;
      }

      .cls-189 {
        fill: #80c4bf;
      }

      .cls-190 {
        fill: #86cdc7;
      }

      .cls-100 {
        stroke: #7e9393;
      }

      .cls-101 {
        stroke: #37748b;
      }

      .cls-102 {
        stroke: #3f6572;
      }

      .cls-103 {
        stroke: #95abaa;
      }

      .cls-104 {
        stroke: #5b9399;
      }

      .cls-191 {
        fill: #8fdede;
      }

      .cls-105 {
        stroke: #669795;
      }

      .cls-106 {
        stroke: #418094;
      }

      .cls-107 {
        stroke: #396e85;
      }

      .cls-192 {
        fill: #557373;
      }

      .cls-108 {
        stroke: #64a2ac;
      }

      .cls-109 {
        stroke: #528894;
      }

      .cls-110 {
        stroke: #6ea6ab;
      }

      .cls-193 {
        fill: #37606d;
      }

      .cls-194 {
        fill: #4c8c9f;
      }

      .cls-195 {
        fill: #367389;
      }

      .cls-111 {
        stroke: #374f58;
      }

      .cls-112 {
        stroke: #84a1a0;
      }

      .cls-113 {
        stroke: #79a0a7;
      }

      .cls-196 {
        fill: #1a3143;
      }

      .cls-197 {
        fill: #3d7c90;
      }

      .cls-114 {
        stroke: #b2cac8;
      }

      .cls-115 {
        stroke: #639fa6;
      }

      .cls-198 {
        fill: #9be4e6;
      }

      .cls-116 {
        stroke: #788786;
      }

      .cls-117 {
        stroke: #203c4e;
      }

      .cls-118 {
        stroke: #73979d;
      }

      .cls-119 {
        stroke: #90b4b0;
      }

      .cls-120 {
        stroke: #3a6172;
      }

      .cls-199 {
        fill: #6e8987;
      }

      .cls-121 {
        stroke: #64b0bc;
      }

      .cls-122 {
        stroke: #2e617a;
      }

      .cls-123 {
        stroke: #4681a0;
      }

      .cls-200 {
        fill: #284656;
      }

      .cls-201 {
        fill: #264f6b;
      }

      .cls-124 {
        stroke: #477b89;
      }

      .cls-125 {
        stroke: #69a2aa;
      }

      .cls-126 {
        stroke: #5d8e91;
      }

      .cls-127 {
        stroke: #316880;
      }

      .cls-128 {
        stroke: #6e7e7d;
      }

      .cls-202 {
        fill: #306b86;
      }

      .cls-129 {
        stroke: #5a666e;
      }

      .cls-130 {
        stroke: #69adb3;
      }

      .cls-203 {
        fill: #234051;
      }

      .cls-131 {
        stroke: #3c646e;
      }

      .cls-204 {
        fill: #1d374a;
      }

      .cls-132 {
        stroke: #8dafac;
      }

      .cls-133 {
        stroke: #385f6d;
      }

      .cls-134 {
        stroke: #515960;
      }

      .cls-135 {
        stroke: #30505d;
      }

      .cls-136 {
        stroke: #7acacc;
      }

      .cls-137 {
        stroke: #3f6877;
      }

      .cls-138 {
        stroke: #5194a3;
      }

      .cls-139 {
        stroke: #3d6169;
      }

      .cls-140 {
        stroke: #9df5f2;
      }

      .cls-141 {
        stroke: #68afcd;
      }

      .cls-142 {
        stroke: #60a6ba;
      }

      .cls-143 {
        stroke: #75c1c1;
      }

      .cls-144 {
        stroke: #a0c5c1;
      }

      .cls-205 {
        fill: #d2fefe;
      }

      .cls-145 {
        stroke: #6aa0a3;
      }

      .cls-146 {
        stroke: #20394a;
      }

      .cls-147 {
        stroke: #8bdde0;
      }

      .cls-148 {
        stroke: #3d6774;
      }

      .cls-206 {
        fill: #628c8d;
      }

      .cls-149 {
        stroke: #233f50;
      }

      .cls-150 {
        stroke: #5a898d;
      }

      .cls-151 {
        stroke: #2a607b;
      }

      .cls-152 {
        stroke: #69afb0;
      }

      .cls-153 {
        stroke: #3f7487;
      }

      .cls-154 {
        stroke: #152839;
      }

      .cls-207 {
        fill: #75c7e0;
      }

      .cls-155 {
        stroke: #274a5f;
      }

      .cls-208 {
        fill: #1f415b;
      }

      .cls-209 {
        fill: #67aac3;
      }

      .cls-156 {
        stroke: #658390;
      }

      .cls-157 {
        stroke: #9dddda;
      }

      .cls-210 {
        fill: #8feceb;
      }

      .cls-158 {
        stroke: #172b3c;
      }

      .cls-159 {
        stroke: #85b7b7;
      }

      .cls-160 {
        stroke: #2d647d;
      }

      .cls-161 {
        stroke: #7fa8aa;
      }

      .cls-211 {
        fill: #6798a0;
      }

      .cls-162 {
        stroke: #4d7275;
      }

      .cls-163 {
        stroke: #5a9bb1;
      }

      .cls-164 {
        stroke: #66a8af;
      }

      .cls-165 {
        stroke: #285671;
      }

      .cls-166 {
        stroke: #6d9e99;
      }

      .cls-167 {
        stroke: #78acad;
      }

      .cls-212 {
        fill: #245470;
      }

      .cls-213 {
        fill: #6da8a6;
      }

      .cls-168 {
        stroke: #436167;
      }

      .cls-214 {
        fill: #8fbcbb;
      }

      .cls-215 {
        fill: #467080;
      }
    </style>
  </defs>
  <g id="Layer_2-2" data-name="Layer 2">
    <g id="Layer_1-2" data-name="Layer 1-2">
      <g>
        <path class="cls-103" d="M27.61,10.72c4.52,6.79,8.04,13.58,10.54,20.38,.73,1.99,1.23,3.29,1.52,3.91,.06,.12,.17,.22,.31,.25l.76,.18" vector-effect="non-scaling-stroke"/>
        <path class="cls-119" d="M40.73,35.44l-1.39,4.47" vector-effect="non-scaling-stroke"/>
        <path class="cls-43" d="M39.35,39.91c-.06,.36,.07,.74,.39,1.14" vector-effect="non-scaling-stroke"/>
        <path class="cls-16" d="M39.74,41.04c1.19,3.04,2.34,6.1,3.42,9.18,2.26,6.38,4.74,12.01,6.99,18.07,.26,.72,1.3,3.42,2.04,3.58" vector-effect="non-scaling-stroke"/>
        <path class="cls-14" d="M52.19,71.88l7.24,20.34" vector-effect="non-scaling-stroke"/>
        <path class="cls-132" d="M59.43,92.21l.24,.41" vector-effect="non-scaling-stroke"/>
        <path class="cls-3" d="M59.67,92.62c-.12,.29,.05,.35,.13,.54,2.24,4.72,3.8,9.66,4.69,14.82,.01,.08,.09,.15,.22,.21" vector-effect="non-scaling-stroke"/>
        <path class="cls-128" d="M64.72,108.19l.02,.09" vector-effect="non-scaling-stroke"/>
        <path class="cls-132" d="M64.73,108.28c-.65,.28-1.18,.68-1.62,1.21-.38,.46-.45,.96-.22,1.49" vector-effect="non-scaling-stroke"/>
        <path class="cls-100" d="M62.89,110.98c-1.41,2.12-2.05,3.74-4.77,5.04" vector-effect="non-scaling-stroke"/>
        <path class="cls-144" d="M58.13,116.03c-2.38,1.06-4.19,2.68-5.42,4.85-2.34,4.13-5.3,8.22-8.18,11.98" vector-effect="non-scaling-stroke"/>
        <path class="cls-132" d="M44.53,132.86l-3.03,2.29c-.22,.17-.26,.48-.09,.7,.02,.02,.04,.05,.06,.07,.33,.3,.59,.67,.79,1.11" vector-effect="non-scaling-stroke"/>
        <path class="cls-54" d="M42.26,137.02c-.52,4.84-1.18,9.64-1.95,14.41-1,6.13-.99,12.43-1.21,18.59" vector-effect="non-scaling-stroke"/>
        <path class="cls-116" d="M39.1,170.03c-.21,2.29-.4,4.58-.55,6.88-.03,.39-.17,.91-.44,1.53-.28,.67-.37,1.34-.25,2.03" vector-effect="non-scaling-stroke"/>
        <path class="cls-43" d="M37.86,180.47c-.5,.31-.92,.86-1.26,1.65-1.61,3.66-3.8,8.2-6.57,13.63" vector-effect="non-scaling-stroke"/>
        <path class="cls-114" d="M30.03,195.75l-3.84,6.11c-.41,.65-1,1.1-1.75,1.32-5.3,1.58-10.43,3.55-15.41,5.92-2.31,1.1-4.94,1.9-7.36,3.04" vector-effect="non-scaling-stroke"/>
        <path class="cls-5" d="M1.66,212.14c-.71,.49-.84,1.06-.41,1.71,.07,.11,.2,.19,.34,.21,1.91,.28,3.28,.45,4.12,.53,11.15,1,22.44,1.99,33.64,2.18,2.44,.04,4.89,.11,7.33,.22,4.06,.17,8.6-2.05,12.44-3.39" vector-effect="non-scaling-stroke"/>
        <path class="cls-5" d="M138.35,148.73l.86-1.46c.07-.13,.07-.27-.02-.36-.17-.18-.45-.3-.83-.38" vector-effect="non-scaling-stroke"/>
        <path class="cls-129" d="M138.35,146.54c.73-3.1,1.11-6.28,1.14-9.53" vector-effect="non-scaling-stroke"/>
        <path class="cls-42" d="M139.5,137.01l1.1-4" vector-effect="non-scaling-stroke"/>
        <path class="cls-51" d="M140.6,133.01c1.31-6.51,2.44-13.02,3.37-19.52" vector-effect="non-scaling-stroke"/>
        <path class="cls-42" d="M143.97,113.49c.54-3.19,.77-6.41,.69-9.64" vector-effect="non-scaling-stroke"/>
        <path class="cls-51" d="M144.66,103.85c-.31-1.18-.43-2.55-.65-3.57-1.11-5.32-2.21-10.63-3.28-15.95-.07-.37-.22-.71-.42-1.02" vector-effect="non-scaling-stroke"/>
        <path class="cls-22" d="M140.31,83.3c-1.74-7.28-3.65-14.52-5.71-21.72" vector-effect="non-scaling-stroke"/>
        <path class="cls-156" d="M134.6,61.59l-.12-.45" vector-effect="non-scaling-stroke"/>
        <path class="cls-84" d="M134.47,61.14c-4.15-6.15-8.56-12.1-13.23-17.85" vector-effect="non-scaling-stroke"/>
        <path class="cls-156" d="M121.24,43.28c-.63-1.06-1.52-1.78-2.66-2.15" vector-effect="non-scaling-stroke"/>
        <path class="cls-118" d="M118.58,41.14c.07-.3,.04-.57-.08-.81-.05-.11-.17-.18-.33-.2-.37-.05-.67-.17-.89-.38-4.39-4.07-8.7-8.59-12.95-13.58" vector-effect="non-scaling-stroke"/>
        <path class="cls-161" d="M104.34,26.17l-.91-1.02" vector-effect="non-scaling-stroke"/>
        <path class="cls-112" d="M103.42,25.15c-.46-.42-.78-.67-.97-.74-1.74-.66-3.32-1.58-4.74-2.76-1.44-1.2-3.44-1.63-5.17-2.29-.12-.05-.23-.14-.32-.25-1.27-1.78-2.92-2.23-4.46-3.25-.67-.44-1.35-.82-2.05-1.15" vector-effect="non-scaling-stroke"/>
        <path class="cls-161" d="M85.71,14.69c-1.54-1.32-3.07-2.62-4.58-3.89-1.05-.88-1.67-2.43-2.83-3.45-.09-.09-.17-.21-.21-.35-.28-1.01-1.17-.61-1.79-.65-4.63-.35-7.41-.61-8.34-.78-3.22-.6-6.38-.2-9.49-.77-.94-.17-1.87-.34-2.8-.51" vector-effect="non-scaling-stroke"/>
        <path class="cls-16" d="M55.66,4.3l-10.79-1.13" vector-effect="non-scaling-stroke"/>
        <path class="cls-75" d="M44.87,3.17c-9.49-.89-17.76-1.6-24.8-2.12-1.24-.09-2.61-.06-4.12,.1-.15,.01-.17,.08-.07,.19,.99,1.1,2.68,1.92,3.48,2.52,2.85,2.16,5.6,4.44,8.25,6.85" vector-effect="non-scaling-stroke"/>
        <path class="cls-67" d="M44.87,3.17l-1.38,3.18c-.04,.1-.06,.09-.06-.02v-.11c0-.13-.04-.12-.12,.04-1.3,2.37-2.76,4.25-2.81,7.05,0,.06,0,.12,.01,.17l.42,2.59c.03,.15-.02,.3-.12,.4l-.11,.11c-.08,.07-.07,.25,.02,.42,.12,.23,.11,.46,0,.69" vector-effect="non-scaling-stroke"/>
        <path class="cls-18" d="M40.71,17.69c-3.95-2.02-8.85-4.31-12.24-7.13-.1-.08-.24-.1-.36-.04l-.5,.2" vector-effect="non-scaling-stroke"/>
        <path class="cls-90" d="M45.76,20.58c-1.24,5.1-2.92,10.05-5.03,14.86" vector-effect="non-scaling-stroke"/>
        <path class="cls-9" d="M55.66,4.3c.93,1.41-7.16,14.89-8.14,16.41" vector-effect="non-scaling-stroke"/>
        <path class="cls-81" d="M47.52,20.72c-.81,.38-1.39,.33-1.76-.13" vector-effect="non-scaling-stroke"/>
        <path class="cls-157" d="M45.76,20.58l-5.05-2.89" vector-effect="non-scaling-stroke"/>
        <path class="cls-83" d="M48.1,21.04c-.18,.09-.28,.2-.28,.32,0,.11,.12,.21,.28,.25,3.36,.8,6.69,1.72,9.99,2.75,1.4,.44,2.6,.78,3.6,1.02,1.45,.35,4.48,1.3,4.13-.1" vector-effect="non-scaling-stroke"/>
        <path class="cls-41" d="M69.11,26.08c.86,6.41,1.62,12.71,2.29,18.89,.25,2.29,.59,4.5,1.03,6.66" vector-effect="non-scaling-stroke"/>
        <path class="cls-11" d="M72.44,51.62c-.41,.44-.9,.53-1.46,.27-3.06-1.39-6.63-2.25-9.81-3.48" vector-effect="non-scaling-stroke"/>
        <path class="cls-81" d="M61.17,48.41l-3.24-1.23" vector-effect="non-scaling-stroke"/>
        <path class="cls-86" d="M57.92,47.19c.67-1.46,.42-5.21-.17-6.67-.94-2.29-1.76-4.41-2.49-6.39-.2-.53-.55-.67-1.05-.42-5.03,2.48-9.98,4.54-14.86,6.2" vector-effect="non-scaling-stroke"/>
        <path class="cls-152" d="M85.71,14.69c-.67,.12-1.32,.07-1.96-.15-.5-.17-.99-.55-1.48-1.15-.72-.87-1.44-2.36-2.81-2.09" vector-effect="non-scaling-stroke"/>
        <path class="cls-85" d="M79.46,11.31l-1.89-4c-.19-.41-.36-.41-.5,.01-.88,2.58-1.66,5.54-3.44,7.65-.07,.08-.06,.21,.03,.28,.02,.01,.04,.03,.06,.03,3.37,1.36,6.67,2.86,9.92,4.5,.22,.11,.28,.07,.19-.12l-.51-1" vector-effect="non-scaling-stroke"/>
        <path class="cls-152" d="M83.31,18.66c.39-.48,.76-.51,1.09-.09,1.12,1.43,2.08,2.77,3.99,2.89,2.84,.17,5.68,.06,8.38,1.11,2.02,.8,4.15,1.13,6.15,2.48,.17,.11,.31,.11,.5,.09" vector-effect="non-scaling-stroke"/>
        <path class="cls-52" d="M104.34,26.17c-2.44,3.9-5.3,7.56-8.57,10.99" vector-effect="non-scaling-stroke"/>
        <path class="cls-1" d="M95.76,37.16c-.22,.08-.35,.25-.39,.51-.01,.09,.02,.23,.1,.39l.66,1.27" vector-effect="non-scaling-stroke"/>
        <path class="cls-142" d="M96.13,39.33c.15,2.94,.45,5.87,.89,8.78,.72,4.69,.96,8.9,1.46,13.37" vector-effect="non-scaling-stroke"/>
        <path class="cls-50" d="M98.48,61.48c-.31,.17-.48,.05-.49-.36-.15-3.5-.68-6.88-1.15-10.34-.36-2.58-.75-6.8-1.51-10.18-.12-.55,.01-1.22-.5-1.78-.12-.13-.19-.25-.21-.33l-.15-.79c-.02-.14-.13-.26-.28-.34-4.81-2.39-9.63-4.75-14.46-7.1-3.43-1.67-6.97-3.07-10.63-4.18" vector-effect="non-scaling-stroke"/>
        <path class="cls-143" d="M69.11,26.08l-3.29-.8" vector-effect="non-scaling-stroke"/>
        <path class="cls-136" d="M65.81,25.27c-5.87-1.57-11.77-2.98-17.71-4.24" vector-effect="non-scaling-stroke"/>
        <path class="cls-143" d="M48.1,21.04l-.57-.33" vector-effect="non-scaling-stroke"/>
        <path class="cls-73" d="M72.73,52.38c-.15,.07-.3,.08-.48,.03" vector-effect="non-scaling-stroke"/>
        <path class="cls-28" d="M72.26,52.41l-9.27,9.1" vector-effect="non-scaling-stroke"/>
        <path class="cls-140" d="M61.17,48.41c.22,2.05,1.02,3.92,1.15,5.89,.16,2.4,.38,4.8,.67,7.21" vector-effect="non-scaling-stroke"/>
        <path class="cls-94" d="M62.99,61.51l-9.68,9.34" vector-effect="non-scaling-stroke"/>
        <path class="cls-147" d="M53.31,70.85l-.79,.88" vector-effect="non-scaling-stroke"/>
        <path class="cls-46" d="M52.51,71.73l-.33,.14" vector-effect="non-scaling-stroke"/>
        <path class="cls-93" d="M57.92,47.19c-4.7-1.84-10.25-3.9-16.65-6.14-.57-.2-1.08-.2-1.53,0" vector-effect="non-scaling-stroke"/>
        <path class="cls-21" d="M98.48,61.48l.41,.12" vector-effect="non-scaling-stroke"/>
        <path class="cls-87" d="M98.9,61.61c-.39,.38-.57,.84-.52,1.39" vector-effect="non-scaling-stroke"/>
        <path class="cls-27" d="M98.38,62.99l-.22,.11" vector-effect="non-scaling-stroke"/>
        <path class="cls-41" d="M98.16,63.1c-2.63-1.53-6.08-2.82-8.2-3.8-3.11-1.44-7.85-3.53-14.2-6.27-1.05-.45-1.96-.57-2.74-.37" vector-effect="non-scaling-stroke"/>
        <path class="cls-27" d="M73.03,52.66c-.12-.07-.22-.16-.3-.28" vector-effect="non-scaling-stroke"/>
        <path class="cls-28" d="M72.73,52.38c1.46-1.81,3.35-3.31,5.69-4.52,.22-.11,.35-.33,.36-.58,0-.12-.09-.12-.28-.02-2.16,1.22-4.18,2.67-6.06,4.35" vector-effect="non-scaling-stroke"/>
        <path class="cls-145" d="M79.46,11.31c1.08,2.55,2.37,5.01,3.86,7.35" vector-effect="non-scaling-stroke"/>
        <path class="cls-101" d="M121.24,43.28c-3.92,3.19-8.03,6.05-12.31,8.55-.71,.41-.7,.82,.02,1.21,7.94,4.36,15.71,6.38,24.51,8.26,.38,.08,.67-.07,1.02-.17" vector-effect="non-scaling-stroke"/>
        <path class="cls-45" d="M134.6,61.59c.02,.38-.14,.52-.46,.41" vector-effect="non-scaling-stroke"/>
        <path class="cls-61" d="M134.14,62c-1.7,.68-3.39,1.37-5.06,2.06-4.55,1.87-9.16,3.43-13.76,5.09" vector-effect="non-scaling-stroke"/>
        <path class="cls-63" d="M115.32,69.16c-.18-.45-.46-.57-.82-.36-.1,.06-.13,.2-.07,.31,.78,1.3,.81,2.51,1.25,3.84,.76,2.3,1.11,4.48,1.87,6.66,1.17,3.34,2.18,6.74,3.05,10.19" vector-effect="non-scaling-stroke"/>
        <path class="cls-151" d="M120.59,89.79c-4.63-.76-8.68-1.55-12.15-2.39-1.11-.27-1.77-.99-1.97-2.15" vector-effect="non-scaling-stroke"/>
        <path class="cls-80" d="M106.47,85.25c2.36-7.12,4.36-11.26,6.96-16.87,.06-.13,.09-.28,.07-.41-.22-2.06-.73-4.04-1.54-5.95" vector-effect="non-scaling-stroke"/>
        <path class="cls-63" d="M111.97,62.02c-.94-3.27-2.3-6.36-4.08-9.26" vector-effect="non-scaling-stroke"/>
        <path class="cls-123" d="M107.89,52.76l-11.76-13.44" vector-effect="non-scaling-stroke"/>
        <path class="cls-26" d="M107.89,52.76l-.65,.5" vector-effect="non-scaling-stroke"/>
        <path class="cls-141" d="M107.24,53.26c-.07-.07-.15-.11-.24-.12-.11-.01-.24,.06-.35,.19-2.4,3.01-5.06,5.54-7.75,8.28" vector-effect="non-scaling-stroke"/>
        <path class="cls-23" d="M118.58,41.14c-7.53-1.73-15.14-3.05-22.81-3.98" vector-effect="non-scaling-stroke"/>
        <path class="cls-130" d="M73.03,52.66c2.97,1.23,6.01,2.37,8.88,3.7,6.96,3.21,12.18,5.58,15.66,7.1,.28,.12,.48,0,.59-.36" vector-effect="non-scaling-stroke"/>
        <path class="cls-98" d="M98.38,62.99c3.37-2.86,6.33-6.11,8.87-9.73" vector-effect="non-scaling-stroke"/>
        <path class="cls-163" d="M111.97,62.02c-.4,.05-.54,.22-.41,.53,.68,1.57,1.18,3.21,1.5,4.92,.03,.16-.07,.31-.23,.34-.04,0-.08,0-.12,0-.86-.21-1.71-.42-2.54-.86-.94-.5-10.9-5.13-10.96-3.52,0,.12,.1,.23,.25,.25,4.56,.6,8.9,2.81,13.08,4.69,.22,.1,.32,.36,.22,.58,0,0,0,.01,0,.02-2.43,4.71-4.31,9.69-6.72,14.89-.24,.51-.16,.99,.23,1.43" vector-effect="non-scaling-stroke"/>
        <path class="cls-40" d="M106.25,85.28c-.15,.88-.64,1.34-1.5,1.39" vector-effect="non-scaling-stroke"/>
        <path class="cls-74" d="M104.76,86.67l-24.24-5.76c-.36-.09-.44,.03-.25,.35,.24,.38,.39,.84,.47,1.38,.73,5.5,1.15,9.99,1.55,16.52,.16,2.55,.4,5.1,.74,7.63" vector-effect="non-scaling-stroke"/>
        <path class="cls-40" d="M83.02,106.78l-.68,1.08" vector-effect="non-scaling-stroke"/>
        <path class="cls-106" d="M82.34,107.87l-.09,.02" vector-effect="non-scaling-stroke"/>
        <path class="cls-109" d="M82.25,107.88l-.17-.02c-.08,0-.14-.1-.12-.19h0c.21-1.15-.02-2.5-.04-3.31-.15-7.36-1.44-14.54-1.85-21.87-.03-.59-.27-1.03-.72-1.33" vector-effect="non-scaling-stroke"/>
        <path class="cls-164" d="M79.35,81.16l-.34-.23" vector-effect="non-scaling-stroke"/>
        <path class="cls-69" d="M79.01,80.92l.54-.33" vector-effect="non-scaling-stroke"/>
        <path class="cls-40" d="M79.55,80.6c1.02-.37,1.76-1.07,2.22-2.11,.02-.05,.01-.12-.02-.14,0,0-.02,0-.03,0h-.11s-.1,.05-.19,.13l-1.53,1.39" vector-effect="non-scaling-stroke"/>
        <path class="cls-27" d="M79.89,79.86c-.88-.95-.8-2.1-1.06-3.06-2.3-8.47-3.82-14.45-4.54-17.95-.51-2.48-1.19-4.63-2.04-6.44" vector-effect="non-scaling-stroke"/>
        <path class="cls-39" d="M79.89,79.86l-.45,.52" vector-effect="non-scaling-stroke"/>
        <path class="cls-58" d="M79.44,80.38l-.09,.02" vector-effect="non-scaling-stroke"/>
        <path class="cls-121" d="M79.35,80.4c-.04-1.05-10.21-4.32-11.81-4.75-4.41-1.19-9.15-2.79-14.23-4.8" vector-effect="non-scaling-stroke"/>
        <path class="cls-133" d="M79.44,80.38l.11,.22" vector-effect="non-scaling-stroke"/>
        <path class="cls-105" d="M79.01,80.92c-6.67,3.66-11.66,6.13-19.57,11.29" vector-effect="non-scaling-stroke"/>
        <path class="cls-104" d="M79.35,80.4c-.18,.2-.37,.28-.55,.21-7.65-2.71-15.32-5.4-23-8.05-1.21-.42-2.31-.7-3.28-.82" vector-effect="non-scaling-stroke"/>
        <path class="cls-40" d="M139.79,83.43c-.3,.22-.77,.44-1.42,.67-5.86,2.07-10.52,3.65-13.95,4.74-.42,.13-3.2,1.62-3.83,.96" vector-effect="non-scaling-stroke"/>
        <path class="cls-32" d="M106.47,85.25l-.22,.04" vector-effect="non-scaling-stroke"/>
        <path class="cls-160" d="M140.31,83.3l-.52,.12" vector-effect="non-scaling-stroke"/>
        <path class="cls-106" d="M139.79,83.43c.02-.22-.06-.3-.24-.24-6.01,1.86-11.99,3.82-17.95,5.87-.12,.04-.25-.02-.28-.14-1.25-3.45-2.28-6.9-3.09-10.35" vector-effect="non-scaling-stroke"/>
        <path class="cls-122" d="M118.23,78.57c5.38-5.36,11.25-10.58,15.92-16.57" vector-effect="non-scaling-stroke"/>
        <path class="cls-107" d="M118.23,78.57l-2.91-9.42" vector-effect="non-scaling-stroke"/>
        <path class="cls-95" d="M144.66,103.85c-.62,.02-1.02,0-1.2-.1-7.37-3.77-14.62-8.08-21.76-12.9-.23-.15-.54-.08-.7,.17-.04,.07-.07,.15-.08,.23-.09,.69,.18,1.17,.82,1.45,.22,.09,.37,.32,.38,.58,.11,2.41,.77,4.81,.57,7.17-.23,2.72-.26,4.39-.11,5.02,.28,1.13,.42,2.28,.42,3.44,0,.76-.58,1.69,.47,2.31,.11,.07,.26,.08,.4,.04,5.41-1.71,10.84-3.38,16.28-5.02,1.12-.34,2.2-.8,3.23-1.38,.23-.13,.52-.04,.65,.18,.02,.04,.04,.09,.05,.13,.27,1.25-.2,2.5-.22,3.56-.04,1.27-.16,2.52-.37,3.76-.02,.15,0,.29,.08,.4l.41,.57" vector-effect="non-scaling-stroke"/>
        <path class="cls-95" d="M140.6,133.01c-2.45-2.51-4.71-5.19-6.77-8.04" vector-effect="non-scaling-stroke"/>
        <path class="cls-151" d="M133.82,124.97c.26,0,.42-.11,.49-.33,.04-.12,0-.27-.1-.39-2.61-3.21-5.39-6.27-8.33-9.19-.12-.12-.26-.19-.38-.19-.17,0-.3,.05-.42,.14" vector-effect="non-scaling-stroke"/>
        <path class="cls-95" d="M125.07,115.02l-1.89-1.97" vector-effect="non-scaling-stroke"/>
        <path class="cls-151" d="M123.18,113.04c-.17-2.63-2.59-8.5-3.73-10.05-3.5-4.73-7.11-9.37-10.82-13.93-.76-.93-.6-1.7-2.21-1.76" vector-effect="non-scaling-stroke"/>
        <path class="cls-39" d="M106.41,87.3c.36-.5,.37-.83,.02-.98-.12-.05-.27-.02-.37,.08-.25,.25-.33,.56-.22,.92" vector-effect="non-scaling-stroke"/>
        <path class="cls-160" d="M105.84,87.32h-.34c-.14,0-.27,.05-.38,.15-7.46,6.7-15.26,13.3-22.23,20.48-.19,.19-.49,.25-.55-.09" vector-effect="non-scaling-stroke"/>
        <path class="cls-45" d="M105.8,111c-4.85,0-9.76-1.06-14.15-1.37-2.52-.18-5.05-.33-7.58-.47-.19-.01-.34-.07-.38-.15-.22-.39-.4-.36-.54,.07-.04,.11-.19,.15-.34,.1h0c-.29-.1-.48,0-.57,.3" vector-effect="non-scaling-stroke"/>
        <path class="cls-56" d="M82.23,109.49l-.74-.12" vector-effect="non-scaling-stroke"/>
        <path class="cls-7" d="M81.49,109.36l.09-1.24" vector-effect="non-scaling-stroke"/>
        <path class="cls-127" d="M104.76,86.67c-6.94,7.04-14.42,13.46-21.73,20.11" vector-effect="non-scaling-stroke"/>
        <path class="cls-124" d="M82.25,107.88l-.66,.24" vector-effect="non-scaling-stroke"/>
        <path class="cls-162" d="M81.59,108.13c-3.23-2.79-6.3-5.75-9.19-8.91-.11-.11-.28-.12-.4-.01-.02,.02-.04,.04-.05,.06-1.84,3.01-4.1,5.71-6.77,8.09-.19,.17-.35,.45-.47,.84" vector-effect="non-scaling-stroke"/>
        <path class="cls-89" d="M79.35,81.16c-.68,.67-1.06,1.2-1.14,1.61-.86,4.53-2.08,8.96-3.66,13.28-.65,1.76-1.81,3.07-3.74,2.1-4.2-2.1-7.69-3.55-11.13-5.53" vector-effect="non-scaling-stroke"/>
        <path class="cls-165" d="M123.18,113.04l-.7,.03" vector-effect="non-scaling-stroke"/>
        <path class="cls-70" d="M122.47,113.07c-.94,.07-2.02,.04-3.25-.11-5.16-.64-9.45-1.22-12.87-1.76" vector-effect="non-scaling-stroke"/>
        <path class="cls-165" d="M125.07,115.02l8.76,9.95" vector-effect="non-scaling-stroke"/>
        <path class="cls-15" d="M139.5,137.01c-.75,2.26-1.16,4.58-1.24,6.97-.01,.3-.22,.9-.64,1.78-.05,.12-.18,.18-.33,.17l-23.26-2.25c-.11-.01-.24,.04-.35,.13-.61,.52-1.39,.79-2.35,.79-5.61,.01-9.42-.01-11.43-.08" vector-effect="non-scaling-stroke"/>
        <path class="cls-25" d="M99.9,144.52h-.68" vector-effect="non-scaling-stroke"/>
        <path class="cls-155" d="M99.22,144.52c.11-.16,.28-.25,.52-.27,.15-.01,.27-.09,.32-.19,1.99-4.25,3.45-8.67,4.37-13.27,.02-.09,.12-.17,.24-.2,.2-.04,.36-.15,.48-.34" vector-effect="non-scaling-stroke"/>
        <path class="cls-64" d="M106.41,87.3l-.06,23.9" vector-effect="non-scaling-stroke"/>
        <path class="cls-76" d="M106.36,111.2c-.34,6.22-.87,12.41-1.59,18.58-.06,.51-.32,.57-.77,.41" vector-effect="non-scaling-stroke"/>
        <path class="cls-138" d="M104,130.2c.78-5.95,1.38-11.85,1.8-17.69" vector-effect="non-scaling-stroke"/>
        <path class="cls-64" d="M105.8,112.52v-1.51" vector-effect="non-scaling-stroke"/>
        <path class="cls-30" d="M105.8,111l.04-23.68" vector-effect="non-scaling-stroke"/>
        <path class="cls-20" d="M105.8,112.52c-.7,0-1.64,.16-2.82,.5-1.2,.34-2.78,.44-4.72,.3-.45-.03-.93,.2-1.4,.17-1.73-.13-3.46-.1-5.18,.08-.13,.01-.27-.01-.41-.07-.89-.35-2.16,.42-3.19,.46-.12,0-.25-.04-.37-.14l-3.48-2.78" vector-effect="non-scaling-stroke"/>
        <path class="cls-70" d="M84.23,111.02l-.77-.08c-.13-.02-.23-.08-.23-.15v-.98c0-.13-.07-.26-.18-.34-.23-.17-.36-.06-.38,.34" vector-effect="non-scaling-stroke"/>
        <path class="cls-91" d="M82.66,109.81l-.41-.23" vector-effect="non-scaling-stroke"/>
        <path class="cls-37" d="M81.49,109.36c-5.61,.07-11.2-.28-16.76-1.08" vector-effect="non-scaling-stroke"/>
        <path class="cls-35" d="M82.23,109.49l.02,.09" vector-effect="non-scaling-stroke"/>
        <path class="cls-48" d="M82.25,109.58c-.3,.06-.48,.25-.56,.56" vector-effect="non-scaling-stroke"/>
        <path class="cls-68" d="M81.69,110.14c-.08-.01-.16,0-.25,.02-.11,.04-.21,.15-.26,.3-.99,2.65-2.29,6.4-3.91,11.22-.42,1.25-1.21,2.28-2.37,3.07" vector-effect="non-scaling-stroke"/>
        <path class="cls-13" d="M74.9,124.75c-1.7-.16-10.42-11.77-12-13.77" vector-effect="non-scaling-stroke"/>
        <path class="cls-153" d="M84.23,111.02c1.25,2.02,3.28,3.49,4.58,4.77,4.97,4.91,10.04,9.71,15.2,14.41" vector-effect="non-scaling-stroke"/>
        <path class="cls-79" d="M122.47,113.07c-1.72,1.7-3.37,3.47-4.95,5.31-1.71,1.99-5.83,5.95-12.37,11.87" vector-effect="non-scaling-stroke"/>
        <path class="cls-17" d="M105.16,130.25c-1.02,.26-1.82,.35-2.39,.27-7.67-1.05-15.28-2.48-22.81-4.31" vector-effect="non-scaling-stroke"/>
        <path class="cls-148" d="M79.96,126.21c.95-4.43,1.71-8.82,2.28-13.16" vector-effect="non-scaling-stroke"/>
        <path class="cls-108" d="M82.23,113.05l.49-2.5c.04-.18,.04-.33,.02-.42l-.08-.33" vector-effect="non-scaling-stroke"/>
        <path class="cls-97" d="M96.32,167.33c-.01-1.37-.98-1.06-1.95-.89-4.32,.74-8.4,1.51-12.23,2.29-.92,.19-.96,.49-.14,.92,1.52,.79,2.83,1.85,3.93,3.18,.08,.09,.12,.24,.13,.41,.03,.65,.27,.88,.73,.7,2.25-.92,4.59-2.44,7.01-4.56" vector-effect="non-scaling-stroke"/>
        <path class="cls-111" d="M50.24,181.05l2.29-7.55" vector-effect="non-scaling-stroke"/>
        <path class="cls-99" d="M52.53,173.5c.66,.34,1.25,.65,2.04,.54,4.41-.62,8.75-1.58,13.01-2.89,1.24-.38,2.19-.23,3.42-.12" vector-effect="non-scaling-stroke"/>
        <path class="cls-4" d="M71,171.03l1.19,.1" vector-effect="non-scaling-stroke"/>
        <path class="cls-146" d="M99.22,144.52c-1.02,1.68-2.2,3.24-3.54,4.68-7.2,7.74-14.08,14.9-22.7,21.97-.2,.17-.75,.35-.78-.04" vector-effect="non-scaling-stroke"/>
        <path class="cls-149" d="M72.2,171.13c.63-2.45,1.1-4.93,1.4-7.43,.4-3.37,.98-6.07,1.6-9.13,.03-.13-.04-.25-.15-.28h0l-.36-.06" vector-effect="non-scaling-stroke"/>
        <path class="cls-154" d="M138.35,146.54l-.33,.36" vector-effect="non-scaling-stroke"/>
        <path class="cls-6" d="M138.02,146.9l-.57-.4c-.15-.11-.28-.17-.37-.18-6.18-.92-12.39-1.49-18.64-1.71-1.4-.05-2.8-.19-4.19-.42-.37-.06-.87,.34-1.5,1.21-4,5.43-7.91,10.94-11.72,16.5-.74,1.08-1.88,2.5-3.42,4.25" vector-effect="non-scaling-stroke"/>
        <path class="cls-44" d="M97.62,166.14c-.16-4.18,.49-8.24,.76-12.39,.2-3.12,.71-6.19,1.53-9.23" vector-effect="non-scaling-stroke"/>
        <path class="cls-62" d="M99.22,144.52l-.54-.12" vector-effect="non-scaling-stroke"/>
        <path class="cls-120" d="M98.69,144.39c.17-.25,.28-.64,.35-1.18" vector-effect="non-scaling-stroke"/>
        <path class="cls-78" d="M99.03,143.21c.22-1.11,.55-2.23,.99-3.38,1.23-3.15,1.95-5.27,2.68-8.12,.07-.25-.08-.5-.33-.56-.05-.01-.1-.02-.15-.01-1.31,.08-2.67-.17-4.01,0-1.37,.16-2.73,.25-4.11,.28-.82,.01-1.79-.46-2.82,.03-.12,.06-.26,.08-.39,.06-.96-.12-1.83-.46-2.62-1.02-.13-.1-.28-.14-.41-.12l-2.06,.24" vector-effect="non-scaling-stroke"/>
        <path class="cls-120" d="M85.82,130.59l-2.9-1.95c-.12-.08-.25-.11-.34-.07-.46,.2,3.46,3.71,3.79,4.01,4.04,3.77,7.74,7.87,11.68,11.81" vector-effect="non-scaling-stroke"/>
        <path class="cls-62" d="M98.06,144.39c-7.25,2.21-14.54,4.28-21.89,6.22-.17,.04-.34,.07-.52,.09" vector-effect="non-scaling-stroke"/>
        <path class="cls-31" d="M75.65,150.7l-.14-.36" vector-effect="non-scaling-stroke"/>
        <path class="cls-92" d="M82.23,113.05h-.51" vector-effect="non-scaling-stroke"/>
        <path class="cls-115" d="M81.73,113.05l-.04-2.92" vector-effect="non-scaling-stroke"/>
        <path class="cls-12" d="M74.9,125.25l-2.68,.15" vector-effect="non-scaling-stroke"/>
        <path class="cls-96" d="M72.22,125.4c-5.5-1.3-11.02-2.47-16.57-3.5-.39-.07-1.03-.37-1.89-.89-.11-.06-.15-.2-.1-.31,.78-1.66,2.95-2.89,4.47-4.68" vector-effect="non-scaling-stroke"/>
        <path class="cls-131" d="M81.73,113.05c-.77,3.72-1.34,7.53-1.69,11.43-.06,.72-.46,1.04-1.19,.96l-2.85-.28c-.12-.01-.25,.04-.38,.13l-.37,.29" vector-effect="non-scaling-stroke"/>
        <path class="cls-125" d="M75.24,125.6l-.34-.34" vector-effect="non-scaling-stroke"/>
        <path class="cls-33" d="M74.9,125.25v-.51" vector-effect="non-scaling-stroke"/>
        <path class="cls-71" d="M79.96,126.21c-.41,2.38-1.1,4.81-1.44,7.13-.83,5.71-1.83,11.37-3.01,16.99" vector-effect="non-scaling-stroke"/>
        <path class="cls-139" d="M75.51,150.34l-14.24,.78c-.57,.03-.67-.17-.3-.61,1.53-1.81,2.95-3.82,4.26-6.02,.63-1.06,1.7-1.83,2.45-2.87,.62-.86,.61-1.92,1.21-2.87,.48-.75,.81-1.33,.99-1.73,.33-.73,.75-1.4,1.24-2.03,.09-.11,.13-.25,.14-.38,.04-1.32,2.38-5.06,3.18-6.27,.32-.49,.16-.78-.49-.88" vector-effect="non-scaling-stroke"/>
        <path class="cls-110" d="M73.94,127.44l1.3-1.84" vector-effect="non-scaling-stroke"/>
        <path class="cls-8" d="M61.15,162.47c2.02,2.11,4.18,4.06,6.49,5.84" vector-effect="non-scaling-stroke"/>
        <path class="cls-55" d="M71,171.03l-1.21-1.75" vector-effect="non-scaling-stroke"/>
        <path class="cls-168" d="M56.52,158.81c.08,.67,.11,1.2,.07,1.57-.47,4.56-1.04,7.84-1.69,9.85-.23,.7-1.02,1.79-2.36,3.26" vector-effect="non-scaling-stroke"/>
        <path class="cls-19" d="M49.4,182.8l-.56-.31" vector-effect="non-scaling-stroke"/>
        <path class="cls-29" d="M48.84,182.49c.15,.01,.26-.03,.33-.12,.07-.09,.04-.24-.06-.36-2.45-2.89-4.74-5.9-6.88-9.03-.24-.35-.68-.72-1.32-1.12-.07-.04-.15-.04-.18,0,0,0,0,.01,0,.02-.01,.05,0,.1,.06,.17,2.02,2.24,3.42,4.73,5.29,7.22,.75,.99,1.4,2.06,1.95,3.2" vector-effect="non-scaling-stroke"/>
        <path class="cls-19" d="M48.02,182.45l-10.17-1.98" vector-effect="non-scaling-stroke"/>
        <path class="cls-88" d="M138.02,146.9c.17,.08,.29,.19,.37,.33,.06,.1,.03,.25-.07,.37-1.9,2.32-3.22,5.03-4.97,7.46-2.73,3.82-5.39,7.7-8.07,11.56-.46,.66-1.05,1.27-1.77,1.83-2.41,1.84-5.09,4.69-6.73,6.17-2.66,2.38-5.2,4.89-7.62,7.53-3.25,3.54-6.2,7.03-10.58,8.14" vector-effect="non-scaling-stroke"/>
        <path class="cls-117" d="M98.58,190.27c-2.95-.2-7.09-.67-12.43-1.42-2.15-.3-8.63-1.03-19.44-2.2-1.49-.16-3.06-1.12-4.7-1.34-4.26-.57-8.47-1.31-12.62-2.21" vector-effect="non-scaling-stroke"/>
        <path class="cls-126" d="M49.38,183.11l.02-.31" vector-effect="non-scaling-stroke"/>
        <path class="cls-47" d="M49.4,182.8l.85-1.75" vector-effect="non-scaling-stroke"/>
        <path class="cls-66" d="M50.24,181.05c.71,.16,1.42,.26,2.14,.3,1.24,.07,2.76-.86,4.13-1.17,2.14-.49,4.68-1.2,7.62-2.11,1.15-.36,2.16-.4,3.34-.55,.59-.07,.71,.12,.38,.6l-4.07,5.78c-.36,.5-.22,.68,.38,.54,.89-.21,1.88-.57,2.96-1.07,6.4-2.96,12.75-6.02,19.04-9.2,.46-.23,.73-.12,.78,.34,.02,.16,.08,.3,.17,.39,4.16,4.42,8.48,8.67,12.97,12.76,.49,.45,.59,.37,.31-.25-2.72-5.82-4.22-12.05-6.59-18.02" vector-effect="non-scaling-stroke"/>
        <path class="cls-88" d="M93.8,169.39l2.52-2.05" vector-effect="non-scaling-stroke"/>
        <path class="cls-66" d="M96.32,167.33l1.3-1.19" vector-effect="non-scaling-stroke"/>
        <path class="cls-137" d="M85.82,130.59l13.21,12.62" vector-effect="non-scaling-stroke"/>
        <path class="cls-59" d="M98.69,144.39h-.63" vector-effect="non-scaling-stroke"/>
        <path class="cls-135" d="M75.65,150.7l-.97,3.53" vector-effect="non-scaling-stroke"/>
        <path class="cls-2" d="M74.68,154.23c-1.49,5.06-3.11,10.08-4.88,15.05" vector-effect="non-scaling-stroke"/>
        <path class="cls-60" d="M69.8,169.28c-.86,.02-1.58-.3-2.16-.97" vector-effect="non-scaling-stroke"/>
        <path class="cls-102" d="M67.64,168.31c.59-.35,.65-.72,.17-1.12-1.87-1.58-3.68-3.21-5.44-4.87-.33-.31-1.41-.99-1.22,.16" vector-effect="non-scaling-stroke"/>
        <path class="cls-60" d="M61.15,162.47c-.75-.7-3.79-3.75-4.63-3.66" vector-effect="non-scaling-stroke"/>
        <path class="cls-36" d="M56.52,158.81l-.56-.78" vector-effect="non-scaling-stroke"/>
        <path class="cls-134" d="M138.35,148.73c-3.76,5.69-7.57,11.35-11.42,16.99-.82,1.2-1.05,2.36-2.01,3.41-2.78,3.02-5.54,6.05-8.29,9.11-3.09,3.45-6.61,6.97-9.87,10.52-3.46,3.76-5.96,5.73-10.1,8.11-4.29,2.46-8.59,4.89-12.9,7.3-7.49,4.19-15.99,6.8-24.64,9.42" vector-effect="non-scaling-stroke"/>
        <path class="cls-38" d="M1.66,212.14c-.1,.79,.16,1.1,.8,.93,1.94-.51,3.85-1.13,5.73-1.86" vector-effect="non-scaling-stroke"/>
        <path class="cls-88" d="M8.18,211.21c.42,1.64,1.45,.75,2.33,.75,1.32,0,2.38,.05,3.19,.14,11.91,1.4,23.84,2.7,35.8,3.9" vector-effect="non-scaling-stroke"/>
        <path class="cls-158" d="M49.5,216.01c2.18-1.48,4.4-2.79,6.65-3.92,3.26-1.64,6.1-3.69,9.16-5.25,6.48-3.33,12.96-6.67,19.45-10,2.4-1.23,5.82-3.21,8.88-4.38,1.92-.73,3.57-1.46,4.94-2.19" vector-effect="non-scaling-stroke"/>
        <path class="cls-24" d="M73.94,127.44c-5.69,9.99-12,19.67-17.3,29.86-.16,.3-.38,.55-.68,.73" vector-effect="non-scaling-stroke"/>
        <path class="cls-167" d="M55.96,158.03l-.2-.12" vector-effect="non-scaling-stroke"/>
        <path class="cls-159" d="M55.76,157.91l-1.78-2.47" vector-effect="non-scaling-stroke"/>
        <path class="cls-82" d="M53.97,155.44c.66-.13,1.12,.1,1.37,.69,.09,.19,.22,.31,.32,.28,.27-.07,.41-.25,.43-.56,.01-.19,.04-.33,.06-.35,.64-.46,1.12-1.07,1.44-1.83,1.06-2.51,2.59-4.59,3.91-6.91,.81-1.41,1.86-2.68,2.59-4.11,2.82-5.54,6.38-10.78,9.7-16.06,.07-.12,.07-.26-.01-.36-.33-.38-.82-.5-1.47-.36" vector-effect="non-scaling-stroke"/>
        <path class="cls-10" d="M72.22,125.4l.08,.5" vector-effect="non-scaling-stroke"/>
        <path class="cls-77" d="M72.3,125.91c-6.96,1.34-13.88,2.86-20.76,4.55-.99,.24-3.32,1.04-7.01,2.4" vector-effect="non-scaling-stroke"/>
        <path class="cls-166" d="M48.84,182.49l-.81-.04" vector-effect="non-scaling-stroke"/>
        <path class="cls-34" d="M55.76,157.91l-14.61,12.59c-.28,.24-.7,.21-.95-.06-.15-.15-.51-.29-1.09-.41" vector-effect="non-scaling-stroke"/>
        <path class="cls-150" d="M49.38,183.11l-6.47,4.77" vector-effect="non-scaling-stroke"/>
        <path class="cls-65" d="M42.91,187.88c.15-.42,.03-.67-.34-.75-.12-.03-.27,.01-.39,.1-3.69,2.73-7.36,5.49-10.98,8.29-.41,.32-.67,.3-1.17,.23" vector-effect="non-scaling-stroke"/>
        <path class="cls-117" d="M49.5,216.01c-.12-.8-.16-1.27-.12-1.42,2.57-8.7,5.15-17.41,7.74-26.11" vector-effect="non-scaling-stroke"/>
        <path class="cls-149" d="M57.12,188.47c.18-.18,3.24-2.48,2.56-2.6-.56-.1-3.52,1.98-4.13,2.3-2.69,1.41-5.28,3.14-7.97,4.43-1.94,.93-3.12,1.52-3.52,1.76-5.27,3.22-10.67,6.22-16.2,9-.21,.11-.82,.27-1.82,.49" vector-effect="non-scaling-stroke"/>
        <path class="cls-49" d="M26.05,203.83c.51-1.27,.72-2.68,1.71-3.64,.73-.71,1.49-1.39,2.29-2.02,4.3-3.41,8.59-6.85,12.86-10.3" vector-effect="non-scaling-stroke"/>
        <path class="cls-72" d="M24.3,204.84l-16.11,6.38" vector-effect="non-scaling-stroke"/>
        <path class="cls-57" d="M53.97,155.44l-11.71-18.42" vector-effect="non-scaling-stroke"/>
        <path class="cls-53" d="M57.12,188.47c-3.11,1.69-6.2,3.33-9.27,4.92-5.35,2.78-10.62,5.96-15.97,8.87-1.94,1.06-3.95,1.98-6.02,2.76-.41,.16-1.36,1.36-1.25,0,0-.09-.06-.17-.15-.18l-.17-.02" vector-effect="non-scaling-stroke"/>
        <path class="cls-113" d="M24.3,204.84l1.76-1" vector-effect="non-scaling-stroke"/>
      </g>
      <path class="cls-205" d="M44.87,3.17l-1.38,3.18c-.04,.1-.06,.09-.06-.02v-.11c0-.13-.04-.12-.12,.04-1.3,2.37-2.76,4.25-2.81,7.05,0,.06,0,.12,.01,.17l.42,2.59c.03,.15-.02,.3-.12,.4l-.11,.11c-.08,.07-.07,.25,.02,.42,.12,.23,.11,.46,0,.69-3.95-2.02-8.85-4.31-12.24-7.13-.1-.08-.24-.1-.36-.04l-.5,.2c-2.65-2.41-5.4-4.69-8.25-6.85-.8-.6-2.48-1.43-3.48-2.52-.1-.11-.07-.17,.07-.19,1.51-.16,2.89-.2,4.12-.1,7.04,.52,15.31,1.23,24.8,2.12h0Z"/>
      <path class="cls-187" d="M44.87,3.17l10.79,1.13c.93,1.41-7.16,14.89-8.14,16.41-.81,.38-1.39,.33-1.76-.13l-5.05-2.89c.12-.23,.12-.46,0-.69-.09-.17-.09-.35-.02-.42l.11-.11c.1-.09,.15-.25,.12-.4l-.42-2.59c0-.05-.01-.11-.01-.17,.05-2.8,1.52-4.68,2.81-7.05,.09-.16,.13-.17,.12-.04v.11c0,.11,.02,.12,.06,.02l1.38-3.18h0Z"/>
      <path class="cls-175" d="M55.66,4.3c.93,.17,1.86,.33,2.8,.51,3.11,.57,6.27,.17,9.49,.77,.93,.17,3.71,.43,8.34,.78,.62,.05,1.51-.36,1.79,.65,.04,.14,.11,.27,.21,.35,1.16,1.02,1.78,2.57,2.83,3.45,1.51,1.27,3.04,2.57,4.58,3.89-.67,.12-1.32,.07-1.96-.15-.5-.17-.99-.55-1.48-1.15-.72-.87-1.44-2.36-2.81-2.09l-1.89-4c-.19-.41-.36-.41-.5,.01-.88,2.58-1.66,5.54-3.44,7.65-.07,.08-.06,.21,.03,.28,.02,.01,.04,.03,.06,.03,3.37,1.36,6.67,2.86,9.92,4.5,.22,.11,.28,.07,.19-.12l-.51-1c.39-.48,.76-.51,1.09-.09,1.12,1.43,2.08,2.77,3.99,2.89,2.84,.17,5.68,.06,8.38,1.11,2.02,.8,4.15,1.13,6.15,2.48,.17,.11,.31,.11,.5,.09l.91,1.02c-2.44,3.9-5.3,7.56-8.57,10.99-.22,.08-.35,.25-.39,.51-.01,.09,.02,.23,.1,.39l.66,1.27c.15,2.94,.45,5.87,.89,8.78,.72,4.69,.96,8.9,1.46,13.37-.31,.17-.48,.05-.49-.36-.15-3.5-.68-6.88-1.15-10.34-.36-2.58-.75-6.8-1.51-10.18-.12-.55,.01-1.22-.5-1.78-.12-.13-.19-.25-.21-.33l-.15-.79c-.02-.14-.13-.26-.28-.34-4.81-2.39-9.63-4.75-14.46-7.1-3.43-1.67-6.97-3.07-10.63-4.18l-3.29-.8c-5.87-1.57-11.77-2.98-17.71-4.24l-.57-.33c.98-1.53,9.07-15,8.14-16.41h0Z"/>
      <path class="cls-211" d="M79.46,11.31c1.08,2.55,2.37,5.01,3.86,7.35l.51,1c.09,.19,.03,.23-.19,.12-3.24-1.63-6.55-3.13-9.92-4.5-.1-.04-.16-.16-.12-.26,0-.02,.02-.04,.03-.05,1.78-2.11,2.56-5.07,3.44-7.65,.14-.42,.31-.42,.5-.01l1.89,4h0Z"/>
      <path class="cls-214" d="M40.71,17.69l5.05,2.89c-1.24,5.1-2.92,10.05-5.03,14.86l-.76-.18c-.14-.03-.25-.12-.31-.25-.28-.62-.79-1.92-1.52-3.91-2.5-6.8-6.01-13.59-10.54-20.38l.5-.2c.13-.05,.27-.04,.36,.04,3.39,2.82,8.3,5.11,12.24,7.13h0Z"/>
      <path class="cls-213" d="M79.46,11.31c1.37-.27,2.09,1.22,2.81,2.09,.49,.59,.99,.98,1.48,1.15,.64,.22,1.29,.27,1.96,.15,.7,.33,1.39,.72,2.05,1.15,1.55,1.02,3.2,1.47,4.46,3.25,.08,.12,.19,.2,.32,.25,1.73,.66,3.73,1.09,5.17,2.29,1.42,1.18,3,2.1,4.74,2.76,.19,.07,.51,.32,.97,.74-.19,.01-.33,.02-.5-.09-2-1.35-4.13-1.69-6.15-2.48-2.7-1.06-5.53-.94-8.38-1.11-1.9-.12-2.86-1.46-3.99-2.89-.33-.42-.7-.39-1.09,.09-1.49-2.35-2.77-4.8-3.86-7.35h0Z"/>
      <path class="cls-190" d="M45.76,20.58c.37,.46,.96,.51,1.76,.13l.57,.33c-.18,.09-.28,.2-.28,.32,0,.11,.12,.21,.28,.25,3.36,.8,6.69,1.72,9.99,2.75,1.4,.44,2.6,.78,3.6,1.02,1.45,.35,4.48,1.3,4.13-.1l3.29,.8c.86,6.41,1.62,12.71,2.29,18.89,.25,2.29,.59,4.5,1.03,6.66-.41,.44-.9,.53-1.46,.27-3.06-1.39-6.63-2.25-9.81-3.48l-3.24-1.23c.67-1.46,.42-5.21-.17-6.67-.94-2.29-1.76-4.41-2.49-6.39-.2-.53-.55-.67-1.05-.42-5.03,2.48-9.98,4.54-14.86,6.2l1.39-4.47c2.11-4.81,3.79-9.76,5.03-14.86h0Z"/>
      <path class="cls-191" d="M48.1,21.04c5.94,1.25,11.85,2.67,17.71,4.24,.36,1.4-2.68,.45-4.13,.1-1-.24-2.2-.57-3.6-1.02-3.29-1.04-6.62-1.95-9.99-2.75-.17-.04-.29-.14-.28-.25,0-.12,.09-.22,.28-.32h0Z"/>
      <path class="cls-177" d="M98.48,61.48l.41,.12c-.39,.38-.57,.84-.52,1.39l-.22,.11c-2.63-1.53-6.08-2.82-8.2-3.8-3.11-1.44-7.85-3.53-14.2-6.27-1.05-.45-1.96-.57-2.74-.37-.12-.07-.22-.16-.3-.28,1.46-1.81,3.35-3.31,5.69-4.52,.22-.11,.35-.33,.36-.58,0-.12-.09-.12-.28-.02-2.16,1.22-4.18,2.67-6.06,4.35-.44-2.15-.78-4.37-1.03-6.66-.67-6.18-1.44-12.48-2.29-18.89,3.66,1.11,7.2,2.51,10.63,4.18,4.83,2.35,9.65,4.72,14.46,7.1,.15,.08,.26,.2,.28,.34l.15,.79c.02,.08,.09,.2,.21,.33,.51,.57,.37,1.23,.5,1.78,.76,3.39,1.15,7.6,1.51,10.18,.47,3.46,1,6.84,1.15,10.34,.02,.41,.18,.53,.49,.36h0Z"/>
      <path class="cls-170" d="M104.34,26.17c4.25,4.98,8.56,9.51,12.95,13.58,.22,.21,.52,.33,.89,.38,.15,.02,.27,.09,.33,.2,.12,.24,.15,.51,.08,.81-7.53-1.73-15.14-3.05-22.81-3.98,3.28-3.43,6.13-7.09,8.57-10.99h0Z"/>
      <path class="cls-171" d="M57.92,47.19c-4.7-1.84-10.25-3.9-16.65-6.14-.57-.2-1.08-.2-1.53,0-.32-.4-.45-.78-.39-1.14,4.88-1.65,9.84-3.72,14.86-6.2,.5-.25,.86-.11,1.05,.42,.73,1.98,1.56,4.11,2.49,6.39,.6,1.46,.84,5.21,.17,6.67h0Z"/>
      <path class="cls-202" d="M95.76,37.16c7.68,.93,15.28,2.25,22.81,3.98,1.14,.37,2.03,1.09,2.66,2.15-3.92,3.19-8.03,6.05-12.31,8.55-.71,.41-.7,.82,.02,1.21,7.94,4.36,15.71,6.38,24.51,8.26,.38,.08,.67-.07,1.02-.17l.12,.45c.02,.38-.14,.52-.46,.41-1.7,.68-3.39,1.37-5.06,2.06-4.55,1.87-9.16,3.43-13.76,5.09-.18-.45-.46-.57-.82-.36-.1,.06-.13,.2-.07,.31,.78,1.3,.81,2.51,1.25,3.84,.76,2.3,1.11,4.48,1.87,6.66,1.17,3.34,2.18,6.74,3.05,10.19-4.63-.76-8.68-1.55-12.15-2.39-1.11-.27-1.77-.99-1.97-2.15,2.36-7.12,4.36-11.26,6.96-16.87,.06-.13,.09-.28,.07-.41-.22-2.06-.73-4.04-1.54-5.95-.94-3.27-2.3-6.36-4.08-9.26l-11.76-13.44-.66-1.27c-.08-.15-.12-.3-.1-.39,.04-.26,.17-.43,.39-.51h0Z"/>
      <path class="cls-185" d="M96.13,39.33l11.76,13.44-.65,.5c-.07-.07-.15-.11-.24-.12-.11-.01-.24,.06-.35,.19-2.4,3.01-5.06,5.54-7.75,8.28l-.41-.12c-.5-4.48-.74-8.68-1.46-13.37-.44-2.91-.74-5.84-.89-8.78h0Z"/>
      <path class="cls-187" d="M57.92,47.19l3.24,1.23c.22,2.05,1.02,3.92,1.15,5.89,.16,2.4,.38,4.8,.67,7.21l-9.68,9.34-.79,.88-.33,.14c-.73-.17-1.77-2.87-2.04-3.58-2.24-6.06-4.73-11.69-6.99-18.07-1.09-3.08-2.23-6.14-3.42-9.18,.45-.2,.96-.2,1.53,0,6.4,2.25,11.95,4.3,16.65,6.14h0Z"/>
      <path class="cls-197" d="M121.24,43.28c4.67,5.75,9.08,11.7,13.23,17.85-.35,.1-.64,.25-1.02,.17-8.8-1.88-16.57-3.9-24.51-8.26-.72-.39-.73-.8-.02-1.21,4.29-2.51,8.39-5.36,12.31-8.55Z"/>
      <path class="cls-210" d="M72.73,52.38c-.15,.07-.3,.08-.48,.03l-9.27,9.1c-.28-2.41-.51-4.81-.67-7.21-.13-1.97-.93-3.84-1.15-5.89,3.18,1.23,6.75,2.08,9.81,3.48,.56,.26,1.05,.17,1.46-.27,1.88-1.68,3.9-3.13,6.06-4.35,.19-.11,.28-.1,.28,.02,0,.25-.14,.47-.36,.58-2.34,1.2-4.24,2.71-5.69,4.52h0Z"/>
      <path class="cls-194" d="M72.73,52.38c.08,.12,.18,.22,.3,.28,2.97,1.23,6.01,2.37,8.88,3.7,6.96,3.21,12.18,5.58,15.66,7.1,.28,.12,.48,0,.59-.36l.22-.11c3.37-2.86,6.33-6.11,8.87-9.73l.65-.5c1.78,2.9,3.14,5.98,4.08,9.26-.4,.05-.54,.22-.41,.53,.68,1.57,1.18,3.21,1.5,4.92,.03,.16-.07,.31-.23,.34-.04,0-.08,0-.12,0-.86-.21-1.71-.42-2.54-.86-.94-.5-10.9-5.13-10.96-3.52,0,.12,.1,.23,.25,.25,4.56,.6,8.9,2.81,13.08,4.69,.22,.1,.32,.36,.22,.58,0,0,0,.01,0,.02-2.43,4.71-4.31,9.69-6.72,14.89-.24,.51-.16,.99,.23,1.43-.15,.88-.64,1.34-1.5,1.39l-24.24-5.76c-.36-.09-.44,.03-.25,.35,.24,.38,.39,.84,.47,1.38,.73,5.5,1.15,9.99,1.55,16.52,.16,2.55,.4,5.1,.74,7.63l-.68,1.08-.09,.02-.17-.02c-.08,0-.14-.1-.12-.19h0c.21-1.15-.02-2.5-.04-3.31-.15-7.36-1.44-14.54-1.85-21.87-.03-.59-.27-1.03-.72-1.33l-.34-.23,.54-.33c1.02-.37,1.76-1.07,2.22-2.11,.02-.05,.01-.12-.02-.14,0,0-.02,0-.03,0h-.11s-.1,.05-.19,.13l-1.53,1.39c-.88-.95-.8-2.1-1.06-3.06-2.3-8.47-3.82-14.45-4.54-17.95-.51-2.48-1.19-4.63-2.04-6.44,.17,.05,.33,.04,.48-.03h0Z"/>
      <path class="cls-190" d="M98.16,63.1c-.11,.36-.3,.48-.59,.36-3.47-1.52-8.69-3.89-15.66-7.1-2.87-1.33-5.91-2.47-8.88-3.7,.78-.2,1.69-.08,2.74,.37,6.35,2.74,11.08,4.83,14.2,6.27,2.12,.98,5.57,2.27,8.2,3.8h0Z"/>
      <path class="cls-177" d="M72.26,52.41c.85,1.82,1.53,3.97,2.04,6.44,.72,3.5,2.23,9.48,4.54,17.95,.26,.96,.18,2.11,1.06,3.06l-.45,.52-.09,.02c-.04-1.05-10.21-4.32-11.81-4.75-4.41-1.19-9.15-2.79-14.23-4.8l9.68-9.34,9.27-9.1h0Z"/>
      <path class="cls-207" d="M107.24,53.26c-2.54,3.63-5.5,6.87-8.87,9.73-.04-.55,.13-1.01,.52-1.39,2.69-2.74,5.35-5.27,7.75-8.28,.1-.13,.24-.2,.35-.19,.09,.01,.17,.05,.24,.12h0Z"/>
      <path class="cls-195" d="M134.6,61.59c2.06,7.2,3.97,14.44,5.71,21.72l-.52,.12c.02-.22-.06-.3-.24-.24-6.01,1.86-11.99,3.82-17.95,5.87-.12,.04-.25-.02-.28-.14-1.25-3.45-2.28-6.9-3.09-10.35,5.38-5.36,11.25-10.58,15.92-16.57,.32,.1,.48-.04,.46-.41h0Z"/>
      <path class="cls-201" d="M134.14,62c-4.66,5.98-10.53,11.21-15.92,16.57l-2.91-9.42c4.6-1.66,9.21-3.22,13.76-5.09,1.68-.69,3.37-1.38,5.06-2.06h0Z"/>
      <path class="cls-209" d="M111.97,62.02c.81,1.91,1.32,3.89,1.54,5.95,.01,.14-.01,.28-.07,.41-2.6,5.61-4.59,9.74-6.96,16.87l-.22,.04c-.39-.45-.47-.92-.23-1.43,2.41-5.19,4.29-10.18,6.72-14.89,.11-.22,.03-.48-.19-.59,0,0-.01,0-.02,0-4.19-1.89-8.52-4.09-13.08-4.69-.15-.02-.25-.13-.25-.25,.07-1.61,10.02,3.02,10.96,3.52,.83,.44,1.67,.66,2.54,.86,.16,.04,.32-.06,.35-.22,0-.04,0-.08,0-.12-.31-1.71-.81-3.35-1.5-4.92-.13-.3,0-.48,.41-.53h0Z"/>
      <path class="cls-194" d="M115.32,69.16l2.91,9.42c.81,3.45,1.84,6.91,3.09,10.35,.04,.12,.17,.18,.28,.14,5.96-2.06,11.94-4.02,17.95-5.87,.18-.06,.26,.03,.24,.24-.3,.22-.77,.44-1.42,.67-5.86,2.07-10.52,3.65-13.95,4.74-.42,.13-3.2,1.62-3.83,.96-.86-3.45-1.88-6.85-3.05-10.19-.76-2.18-1.11-4.36-1.87-6.66-.44-1.33-.48-2.54-1.25-3.84-.07-.11-.03-.25,.07-.31,.36-.2,.64-.08,.82,.36h0Z"/>
      <path class="cls-173" d="M53.31,70.85c5.08,2.01,9.82,3.61,14.23,4.8,1.6,.43,11.77,3.7,11.81,4.75-.18,.2-.37,.28-.55,.21-7.65-2.71-15.32-5.4-23-8.05-1.21-.42-2.31-.7-3.28-.82l.79-.88h0Z"/>
      <path class="cls-172" d="M52.51,71.73c.98,.13,2.07,.4,3.28,.82,7.67,2.65,15.34,5.34,23,8.05,.19,.07,.37,0,.55-.21l.09-.02,.11,.22-.54,.33c-6.67,3.66-11.66,6.13-19.57,11.29l-7.24-20.34,.33-.14h0Z"/>
      <path class="cls-212" d="M79.55,80.6l-.11-.22,.45-.52,1.53-1.39c.08-.08,.16-.13,.19-.13h.11s.07,.04,.07,.1c0,.01,0,.03-.01,.04-.46,1.03-1.2,1.73-2.22,2.11Z"/>
      <path class="cls-189" d="M79.01,80.92l.34,.23c-.68,.67-1.06,1.2-1.14,1.61-.86,4.53-2.08,8.96-3.66,13.28-.65,1.76-1.81,3.07-3.74,2.1-4.2-2.1-7.69-3.55-11.13-5.53l-.24-.41c7.92-5.16,12.9-7.63,19.57-11.29h0Z"/>
      <path class="cls-197" d="M104.76,86.67c-6.94,7.04-14.42,13.46-21.73,20.11-.34-2.54-.58-5.08-.74-7.63-.39-6.53-.81-11.02-1.55-16.52-.07-.53-.23-.99-.47-1.38-.2-.32-.11-.43,.25-.35l24.24,5.76h0Z"/>
      <path class="cls-169" d="M79.35,81.16c.45,.3,.69,.75,.72,1.33,.41,7.33,1.7,14.52,1.85,21.87,.02,.81,.25,2.16,.04,3.3-.02,.1,.03,.19,.11,.2h0l.17,.02-.66,.24c-3.23-2.79-6.3-5.75-9.19-8.91-.11-.11-.28-.12-.4-.01-.02,.02-.04,.04-.05,.06-1.84,3.01-4.1,5.71-6.77,8.09-.19,.17-.35,.45-.47,.84-.13-.06-.21-.13-.22-.21-.89-5.16-2.45-10.1-4.69-14.82-.09-.19-.25-.25-.13-.54,3.45,1.97,6.93,3.42,11.13,5.53,1.94,.97,3.1-.33,3.74-2.1,1.59-4.32,2.81-8.75,3.66-13.28,.07-.4,.45-.94,1.14-1.61h0Z"/>
      <path class="cls-212" d="M140.31,83.3c.2,.31,.34,.65,.42,1.02,1.07,5.32,2.17,10.64,3.28,15.95,.22,1.02,.34,2.39,.65,3.57-.62,.02-1.02,0-1.2-.1-7.37-3.77-14.62-8.08-21.76-12.9-.23-.15-.54-.08-.7,.17-.04,.07-.07,.15-.08,.23-.09,.69,.18,1.17,.82,1.45,.22,.09,.37,.32,.38,.58,.11,2.41,.77,4.81,.57,7.17-.23,2.72-.26,4.39-.11,5.02,.28,1.13,.42,2.28,.42,3.44,0,.76-.58,1.69,.47,2.31,.11,.07,.26,.08,.4,.04,5.41-1.71,10.84-3.38,16.28-5.02,1.12-.34,2.2-.8,3.23-1.38,.23-.13,.52-.04,.65,.18,.02,.04,.04,.09,.05,.13,.27,1.25-.2,2.5-.22,3.56-.04,1.27-.16,2.52-.37,3.76-.02,.15,0,.29,.08,.4l.41,.57c-.94,6.5-2.06,13.01-3.37,19.52-2.45-2.51-4.71-5.19-6.77-8.04,.26,0,.42-.11,.49-.33,.04-.12,0-.27-.1-.39-2.61-3.21-5.39-6.27-8.33-9.19-.12-.12-.26-.19-.38-.19-.17,0-.3,.05-.42,.14l-1.89-1.97c-.17-2.63-2.59-8.5-3.73-10.05-3.5-4.73-7.11-9.37-10.82-13.93-.76-.93-.6-1.7-2.21-1.76,.36-.5,.37-.83,.02-.98-.12-.05-.27-.02-.37,.08-.25,.25-.33,.56-.22,.92h-.34c-.14,0-.27,.05-.38,.15-7.46,6.7-15.26,13.3-22.23,20.48-.19,.19-.49,.25-.55-.09l.68-1.08c7.31-6.65,14.8-13.06,21.73-20.11,.85-.04,1.35-.51,1.5-1.39l.22-.04c.2,1.17,.86,1.89,1.97,2.15,3.47,.83,7.52,1.63,12.15,2.39,.63,.66,3.4-.83,3.83-.96,3.44-1.08,8.09-2.66,13.95-4.74,.65-.23,1.12-.45,1.42-.67l.52-.12h0Z"/>
      <path class="cls-177" d="M106.41,87.3l-.06,23.9c-.34,6.22-.87,12.41-1.59,18.58-.06,.51-.32,.57-.77,.41,.78-5.95,1.38-11.85,1.8-17.69v-1.51l.04-23.68c-.11-.36-.04-.67,.22-.92,.1-.1,.25-.13,.37-.08,.35,.15,.35,.48-.02,.98h0Z"/>
      <path class="cls-195" d="M105.84,87.32l-.04,23.68c-4.85,0-9.76-1.06-14.15-1.37-2.52-.18-5.05-.33-7.58-.47-.19-.01-.34-.07-.38-.15-.22-.39-.4-.36-.54,.07-.04,.11-.19,.15-.34,.1h0c-.29-.1-.48,0-.57,.3l-.74-.12,.09-1.24,.66-.24,.09-.02c.07,.34,.37,.28,.55,.09,6.97-7.19,14.78-13.79,22.23-20.48,.11-.1,.24-.15,.38-.15h.33Z"/>
      <path class="cls-202" d="M106.41,87.3c1.6,.07,1.45,.83,2.21,1.76,3.72,4.56,7.33,9.2,10.82,13.93,1.14,1.55,3.56,7.42,3.73,10.05l-.7,.03c-.94,.07-2.02,.04-3.25-.11-5.16-.64-9.45-1.22-12.87-1.76l.06-23.9Z"/>
      <path class="cls-208" d="M144.66,103.85c.07,3.23-.16,6.45-.69,9.64l-.41-.57c-.07-.11-.1-.25-.08-.4,.21-1.24,.33-2.5,.37-3.76,.03-1.07,.49-2.32,.22-3.56-.06-.26-.31-.42-.57-.36-.05,0-.09,.03-.13,.05-1.03,.58-2.1,1.04-3.23,1.38-5.44,1.64-10.87,3.31-16.28,5.02-.14,.04-.28,.03-.4-.04-1.05-.62-.46-1.55-.47-2.31,0-1.16-.15-2.31-.42-3.44-.16-.62-.12-2.3,.11-5.02,.2-2.36-.46-4.77-.57-7.17-.01-.26-.16-.49-.38-.58-.64-.28-.91-.76-.82-1.45,.04-.3,.29-.51,.57-.49,.08,0,.15,.03,.22,.08,7.14,4.83,14.4,9.13,21.76,12.9,.17,.09,.57,.12,1.2,.1h0Z"/>
      <path class="cls-176" d="M81.59,108.13l-.09,1.24c-5.61,.07-11.2-.28-16.76-1.08l-.02-.09c.12-.39,.28-.67,.47-.84,2.67-2.38,4.92-5.08,6.77-8.09,.08-.13,.25-.17,.39-.09,.02,.01,.04,.03,.06,.05,2.89,3.16,5.96,6.12,9.19,8.91h0Z"/>
      <path class="cls-189" d="M64.73,108.28c5.56,.8,11.15,1.16,16.76,1.08l.74,.12,.02,.09c-.3,.06-.48,.25-.56,.56-.08-.01-.16,0-.25,.02-.11,.04-.21,.15-.26,.3-.99,2.65-2.29,6.4-3.91,11.22-.42,1.25-1.21,2.28-2.37,3.07-1.7-.16-10.42-11.77-12-13.77-.23-.53-.16-1.03,.22-1.49,.43-.53,.97-.93,1.62-1.21h0Z"/>
      <path class="cls-202" d="M105.8,111v1.51c-.7,0-1.64,.16-2.82,.5-1.2,.34-2.78,.44-4.72,.3-.45-.03-.93,.2-1.4,.17-1.73-.13-3.46-.1-5.18,.08-.13,.01-.27-.01-.41-.07-.89-.35-2.16,.42-3.19,.46-.12,0-.25-.04-.37-.14l-3.48-2.78-.77-.08c-.13-.02-.23-.08-.23-.15v-.98c0-.13-.07-.26-.18-.34-.23-.17-.36-.06-.38,.34l-.41-.23-.02-.09c.09-.3,.28-.4,.57-.3,.15,.05,.3,0,.34-.1h0c.14-.44,.32-.46,.54-.07,.04,.08,.19,.14,.38,.15,2.53,.14,5.06,.29,7.58,.47,4.38,.31,9.29,1.38,14.15,1.37h0Z"/>
      <path class="cls-174" d="M84.23,111.02c1.25,2.02,3.28,3.49,4.58,4.77,4.97,4.91,10.04,9.71,15.2,14.41,.45,.16,.7,.09,.77-.41,.72-6.17,1.25-12.36,1.59-18.58,3.41,.53,7.7,1.12,12.87,1.76,1.23,.15,2.31,.19,3.25,.11-1.72,1.7-3.37,3.47-4.95,5.31-1.71,1.99-5.83,5.95-12.37,11.87-1.02,.26-1.82,.35-2.39,.27-7.67-1.05-15.28-2.48-22.81-4.31,.95-4.43,1.71-8.82,2.28-13.16l.49-2.5c.04-.18,.04-.33,.02-.42l-.08-.33c.02-.4,.15-.52,.38-.34,.11,.09,.18,.21,.18,.34v.98c0,.07,.1,.13,.24,.15l.77,.08h0Z"/>
      <path class="cls-191" d="M82.25,109.58l.41,.23,.08,.33c.02,.09,.01,.23-.02,.42l-.49,2.5h-.51l-.04-2.92c.07-.31,.26-.5,.56-.56h0Z"/>
      <path class="cls-193" d="M81.69,110.14l.04,2.92c-.77,3.72-1.34,7.53-1.69,11.43-.06,.72-.46,1.04-1.19,.96l-2.85-.28c-.12-.01-.25,.04-.38,.13l-.37,.29-.34-.34v-.51c1.16-.8,1.95-1.82,2.37-3.07,1.62-4.83,2.92-8.57,3.91-11.22,.06-.15,.16-.26,.26-.3,.08-.03,.17-.04,.25-.02h0Z"/>
      <path class="cls-206" d="M62.89,110.98c1.59,1.99,10.3,13.61,12,13.77v.51l-2.68,.15c-5.5-1.3-11.02-2.47-16.57-3.5-.39-.07-1.03-.37-1.89-.89-.11-.06-.15-.2-.1-.31,.78-1.66,2.95-2.89,4.47-4.68,2.72-1.3,3.35-2.93,4.77-5.04h0Z"/>
      <path class="cls-184" d="M105.8,112.52c-.42,5.84-1.02,11.73-1.8,17.69-5.16-4.69-10.22-9.5-15.2-14.41-1.29-1.28-3.33-2.75-4.58-4.77l3.48,2.78c.12,.1,.25,.15,.37,.14,1.03-.04,2.31-.81,3.19-.46,.15,.06,.28,.08,.41,.07,1.72-.18,3.45-.2,5.18-.08,.47,.04,.95-.2,1.4-.17,1.94,.14,3.51,.04,4.72-.3,1.19-.33,2.13-.5,2.82-.5h0Z"/>
      <path class="cls-186" d="M81.73,113.05h.51c-.57,4.34-1.33,8.73-2.28,13.16-.41,2.38-1.1,4.81-1.44,7.13-.83,5.71-1.83,11.37-3.01,16.99l-14.24,.78c-.57,.03-.67-.17-.3-.61,1.53-1.81,2.95-3.82,4.26-6.02,.63-1.06,1.7-1.83,2.45-2.87,.62-.86,.61-1.92,1.21-2.87,.48-.75,.81-1.33,.99-1.73,.33-.73,.75-1.4,1.24-2.03,.09-.11,.13-.25,.14-.38,.04-1.32,2.38-5.06,3.18-6.27,.32-.49,.16-.78-.49-.88l1.3-1.84,.37-.29c.12-.1,.26-.15,.38-.13l2.85,.28c.73,.07,1.13-.25,1.19-.96,.36-3.9,.92-7.71,1.69-11.43h0Z"/>
      <path class="cls-208" d="M122.47,113.07l.7-.03,1.89,1.97,8.76,9.95c2.06,2.84,4.32,5.53,6.77,8.04l-1.1,4c-.75,2.26-1.16,4.58-1.24,6.97-.01,.3-.22,.9-.64,1.78-.05,.12-.18,.18-.33,.17l-23.26-2.25c-.11-.01-.24,.04-.35,.13-.61,.52-1.39,.79-2.35,.79-5.61,.01-9.42-.01-11.43-.08h-.68c.11-.16,.28-.25,.52-.27,.15-.01,.27-.09,.32-.19,1.99-4.25,3.45-8.67,4.37-13.27,.02-.09,.12-.17,.24-.2,.2-.04,.36-.15,.48-.34,6.54-5.92,10.66-9.87,12.37-11.87,1.58-1.84,3.23-3.61,4.95-5.31h0Z"/>
      <path class="cls-202" d="M133.82,124.97l-8.76-9.95c.12-.09,.26-.14,.42-.14,.13,0,.27,.07,.38,.19,2.94,2.91,5.72,5.97,8.33,9.19,.1,.12,.14,.27,.1,.39-.07,.21-.23,.32-.49,.33h0Z"/>
      <path class="cls-179" d="M58.13,116.03c-1.52,1.78-3.7,3.01-4.47,4.68-.05,.11,0,.25,.1,.31,.87,.52,1.5,.82,1.89,.89,5.55,1.03,11.07,2.2,16.57,3.5l.08,.5c-6.96,1.34-13.88,2.86-20.76,4.55-.99,.24-3.32,1.04-7.01,2.4,2.87-3.76,5.83-7.86,8.18-11.98,1.23-2.18,3.04-3.79,5.42-4.85h0Z"/>
      <path class="cls-198" d="M74.9,125.25l.34,.34-1.3,1.84c-5.69,9.99-12,19.67-17.3,29.86-.16,.3-.38,.55-.68,.73l-.2-.12-1.78-2.47c.66-.13,1.12,.1,1.37,.69,.09,.19,.22,.31,.32,.28,.27-.07,.41-.25,.43-.56,.01-.19,.04-.33,.06-.35,.64-.46,1.12-1.07,1.44-1.83,1.06-2.51,2.59-4.59,3.91-6.91,.81-1.41,1.86-2.68,2.59-4.11,2.82-5.54,6.38-10.78,9.7-16.06,.07-.12,.07-.26-.01-.36-.33-.38-.82-.5-1.47-.36l-.08-.5,2.68-.15h0Z"/>
      <path class="cls-189" d="M72.3,125.91c.66-.15,1.15-.03,1.47,.36,.08,.09,.09,.24,.01,.36-3.32,5.28-6.88,10.51-9.7,16.06-.73,1.43-1.78,2.69-2.59,4.11-1.32,2.32-2.85,4.4-3.91,6.91-.32,.75-.8,1.36-1.44,1.83-.02,.02-.05,.16-.06,.35-.02,.3-.16,.49-.43,.56-.1,.03-.24-.1-.32-.28-.25-.59-.71-.82-1.37-.69l-11.71-18.42c-.2-.44-.46-.81-.79-1.11-.2-.19-.22-.5-.03-.71,.02-.02,.04-.04,.07-.06l3.03-2.29c3.68-1.36,6.02-2.16,7.01-2.4,6.88-1.69,13.8-3.21,20.76-4.55h0Z"/>
      <path class="cls-178" d="M79.96,126.21c7.53,1.83,15.13,3.26,22.81,4.31,.57,.08,1.36-.01,2.39-.27-.12,.19-.28,.3-.48,.34-.13,.03-.22,.11-.24,.2-.93,4.6-2.38,9.02-4.37,13.27-.05,.1-.17,.18-.32,.19-.23,.02-.4,.11-.52,.27l-.54-.12c.17-.25,.28-.64,.35-1.18,.22-1.11,.55-2.23,.99-3.38,1.23-3.15,1.95-5.27,2.68-8.12,.07-.25-.08-.5-.33-.56-.05-.01-.1-.02-.15-.01-1.31,.08-2.67-.17-4.01,0-1.37,.16-2.73,.25-4.11,.28-.82,.01-1.79-.46-2.82,.03-.12,.06-.26,.08-.39,.06-.96-.12-1.83-.46-2.62-1.02-.13-.1-.28-.14-.41-.12l-2.06,.24-2.9-1.95c-.12-.08-.25-.11-.34-.07-.46,.2,3.46,3.71,3.79,4.01,4.04,3.77,7.74,7.87,11.68,11.81-7.25,2.21-14.54,4.28-21.89,6.22-.17,.04-.34,.07-.52,.09l-.14-.36c1.17-5.62,2.18-11.29,3.01-16.99,.34-2.32,1.02-4.75,1.44-7.13h0Z"/>
      <path class="cls-181" d="M73.94,127.44c.65,.09,.81,.38,.49,.88-.8,1.22-3.14,4.95-3.18,6.27,0,.14-.05,.28-.14,.38-.5,.63-.91,1.31-1.24,2.03-.18,.4-.51,.98-.99,1.73-.6,.95-.58,2.01-1.21,2.87-.76,1.05-1.83,1.81-2.45,2.87-1.3,2.21-2.72,4.21-4.26,6.02-.37,.44-.27,.65,.3,.61l14.24-.78,.14,.36-.97,3.53c-1.49,5.06-3.11,10.08-4.88,15.05-.86,.02-1.58-.3-2.16-.97,.59-.35,.65-.72,.17-1.12-1.87-1.58-3.68-3.21-5.44-4.87-.33-.31-1.41-.99-1.22,.16-.75-.7-3.79-3.75-4.63-3.66l-.56-.78c.29-.18,.52-.43,.68-.73,5.3-10.19,11.61-19.88,17.3-29.86h0Z"/>
      <path class="cls-215" d="M85.82,130.59l13.21,12.62c-.06,.54-.18,.94-.35,1.18h-.63c-3.94-3.95-7.64-8.05-11.68-11.82-.33-.3-4.25-3.82-3.79-4.01,.09-.04,.22-.01,.34,.07l2.9,1.95h0Z"/>
      <path class="cls-193" d="M99.03,143.21l-13.21-12.62,2.06-.24c.13-.02,.28,.03,.41,.12,.78,.56,1.66,.9,2.62,1.02,.14,.02,.27,0,.39-.06,1.03-.49,2-.01,2.82-.03,1.37-.03,2.74-.12,4.11-.28,1.34-.16,2.7,.09,4.01,0,.25-.01,.47,.18,.49,.43,0,.05,0,.1-.01,.15-.74,2.84-1.46,4.96-2.68,8.12-.45,1.15-.78,2.28-.99,3.38h0Z"/>
      <path class="cls-196" d="M139.5,137.01c-.03,3.25-.41,6.43-1.14,9.53l-.33,.36-.57-.4c-.15-.11-.28-.17-.37-.18-6.18-.92-12.39-1.49-18.64-1.71-1.4-.05-2.8-.19-4.19-.42-.37-.06-.87,.34-1.5,1.21-4,5.43-7.91,10.94-11.72,16.5-.74,1.08-1.88,2.5-3.42,4.25-.16-4.18,.49-8.24,.76-12.39,.2-3.12,.71-6.19,1.53-9.23,2.01,.07,5.82,.09,11.43,.08,.96,0,1.74-.27,2.35-.79,.11-.1,.24-.15,.35-.13l23.26,2.25c.14,.01,.27-.05,.33-.17,.41-.88,.62-1.48,.64-1.78,.08-2.39,.49-4.72,1.24-6.97h0Z"/>
      <path class="cls-199" d="M42.26,137.02l11.71,18.42,1.78,2.47-14.61,12.59c-.28,.24-.7,.21-.95-.06-.15-.15-.51-.29-1.09-.41,.22-6.17,.2-12.46,1.21-18.59,.78-4.77,1.43-9.57,1.95-14.41h0Z"/>
      <path class="cls-203" d="M138.02,146.9c.17,.08,.29,.19,.37,.33,.06,.1,.03,.25-.07,.37-1.9,2.32-3.22,5.03-4.97,7.46-2.73,3.82-5.39,7.7-8.07,11.56-.46,.66-1.05,1.27-1.77,1.83-2.41,1.84-5.09,4.69-6.73,6.17-2.66,2.38-5.2,4.89-7.62,7.53-3.25,3.54-6.2,7.03-10.58,8.14-2.95-.2-7.09-.67-12.43-1.42-2.15-.3-8.63-1.03-19.44-2.2-1.49-.16-3.06-1.12-4.7-1.34-4.26-.57-8.47-1.31-12.62-2.21l.02-.31,.85-1.75c.71,.16,1.42,.26,2.14,.3,1.24,.07,2.76-.86,4.13-1.17,2.14-.49,4.68-1.2,7.62-2.11,1.15-.36,2.16-.4,3.34-.55,.59-.07,.71,.12,.38,.6l-4.07,5.78c-.36,.5-.22,.68,.38,.54,.89-.21,1.88-.57,2.96-1.07,6.4-2.96,12.75-6.02,19.04-9.2,.46-.23,.73-.12,.78,.34,.02,.16,.08,.3,.17,.39,4.16,4.42,8.48,8.67,12.97,12.76,.49,.45,.59,.37,.31-.25-2.72-5.82-4.22-12.05-6.59-18.02l2.52-2.05,1.3-1.19c1.54-1.75,2.68-3.17,3.42-4.25,3.81-5.57,7.71-11.07,11.72-16.5,.63-.86,1.13-1.27,1.5-1.21,1.39,.23,2.79,.37,4.19,.42,6.25,.22,12.46,.78,18.64,1.71,.09,.01,.22,.07,.37,.18l.57,.4h0Z"/>
      <path class="cls-200" d="M98.06,144.39h.63l.54,.13c-1.02,1.68-2.2,3.24-3.54,4.68-7.2,7.74-14.08,14.9-22.7,21.97-.2,.17-.75,.35-.78-.04,.63-2.45,1.1-4.93,1.4-7.43,.4-3.37,.98-6.07,1.6-9.13,.03-.13-.04-.25-.15-.28h0l-.36-.06,.97-3.53c.18-.02,.36-.05,.52-.09,7.34-1.94,14.64-4.01,21.89-6.22h0Z"/>
      <path class="cls-183" d="M99.22,144.52h.68c-.82,3.04-1.33,6.12-1.53,9.23-.27,4.15-.91,8.21-.76,12.39l-1.3,1.19c-.01-1.37-.98-1.06-1.95-.89-4.32,.74-8.4,1.51-12.23,2.29-.92,.19-.96,.49-.14,.92,1.52,.79,2.83,1.85,3.93,3.18,.08,.09,.12,.24,.13,.41,.03,.65,.27,.88,.73,.7,2.25-.92,4.59-2.44,7.01-4.56,2.37,5.98,3.87,12.2,6.59,18.02,.29,.62,.19,.7-.31,.25-4.48-4.08-8.81-8.34-12.97-12.76-.09-.09-.15-.23-.17-.39-.06-.46-.32-.57-.78-.34-6.3,3.18-12.64,6.24-19.04,9.2-1.09,.5-2.07,.86-2.96,1.07-.61,.15-.74-.03-.38-.54l4.07-5.78c.33-.47,.21-.67-.38-.6-1.18,.15-2.18,.2-3.34,.55-2.94,.91-5.48,1.61-7.62,2.11-1.37,.32-2.89,1.25-4.13,1.17-.72-.04-1.43-.15-2.14-.3l2.29-7.55c.66,.34,1.25,.65,2.04,.54,4.41-.62,8.75-1.58,13.01-2.89,1.24-.38,2.19-.23,3.42-.12l1.19,.1c.04,.39,.58,.21,.78,.04,8.62-7.07,15.5-14.23,22.7-21.97,1.34-1.44,2.52-3,3.54-4.68h0Z"/>
      <path class="cls-182" d="M138.35,146.54c.38,.07,.66,.2,.83,.38,.08,.09,.09,.23,.02,.36l-.86,1.46c-3.76,5.69-7.57,11.35-11.42,16.99-.82,1.2-1.05,2.36-2.01,3.41-2.78,3.02-5.54,6.05-8.29,9.11-3.09,3.45-6.61,6.97-9.87,10.52-3.46,3.76-5.96,5.73-10.1,8.11-4.29,2.46-8.59,4.89-12.9,7.3-7.49,4.19-15.99,6.8-24.64,9.42-3.84,1.33-8.38,3.56-12.44,3.39-2.44-.1-4.89-.17-7.33-.22-11.2-.19-22.49-1.17-33.64-2.18-.84-.07-2.21-.25-4.12-.53-.14-.02-.27-.1-.34-.21-.43-.65-.29-1.22,.41-1.71-.1,.79,.16,1.1,.8,.93,1.94-.51,3.85-1.13,5.73-1.86,.42,1.64,1.45,.75,2.33,.75,1.32,0,2.38,.05,3.19,.14,11.91,1.4,23.84,2.7,35.8,3.9,2.18-1.48,4.4-2.79,6.65-3.92,3.26-1.64,6.1-3.69,9.16-5.25,6.48-3.33,12.96-6.67,19.45-10,2.4-1.23,5.82-3.21,8.88-4.38,1.92-.73,3.57-1.46,4.94-2.19,4.39-1.11,7.33-4.6,10.58-8.14,2.42-2.63,4.95-5.14,7.62-7.53,1.65-1.47,4.32-4.32,6.73-6.17,.73-.55,1.31-1.16,1.77-1.83,2.68-3.85,5.34-7.73,8.07-11.56,1.75-2.44,3.07-5.15,4.97-7.46,.1-.12,.13-.26,.07-.37-.08-.14-.2-.25-.37-.33l.33-.36h0Z"/>
      <path class="cls-204" d="M74.68,154.23l.36,.06c.11,.02,.19,.14,.16,.27h0c-.63,3.06-1.2,5.76-1.6,9.13-.3,2.51-.77,4.98-1.4,7.43l-1.19-.1-1.21-1.75c1.77-4.97,3.4-9.98,4.88-15.05h0Z"/>
      <path class="cls-192" d="M55.76,157.91l.2,.12,.56,.78c.08,.67,.11,1.2,.07,1.57-.47,4.56-1.04,7.84-1.69,9.85-.23,.7-1.02,1.79-2.36,3.26l-2.29,7.55-.85,1.75-.56-.31c.15,.01,.26-.03,.33-.12,.07-.09,.04-.24-.06-.36-2.45-2.89-4.74-5.9-6.88-9.03-.24-.35-.68-.72-1.32-1.12-.07-.04-.15-.04-.18,0,0,0,0,.01,0,.02-.01,.05,0,.1,.06,.17,2.02,2.24,3.42,4.73,5.29,7.22,.75,.99,1.4,2.06,1.95,3.2l-10.17-1.98c-.11-.69-.03-1.37,.25-2.03,.27-.62,.41-1.14,.44-1.53,.16-2.3,.34-4.59,.55-6.88,.58,.12,.95,.26,1.09,.41,.25,.27,.67,.3,.95,.06l14.61-12.59h0Z"/>
      <path class="cls-180" d="M56.52,158.81c.85-.09,3.88,2.96,4.63,3.66,2.02,2.11,4.18,4.06,6.49,5.84,.58,.67,1.3,.99,2.16,.97l1.21,1.75c-1.24-.12-2.19-.26-3.42,.12-4.26,1.31-8.59,2.28-13.01,2.89-.8,.11-1.38-.2-2.04-.54,1.34-1.47,2.13-2.56,2.36-3.26,.65-2.01,1.22-5.3,1.69-9.85,.04-.38,.02-.9-.07-1.57h0Z"/>
      <path class="cls-215" d="M67.64,168.31c-2.31-1.78-4.47-3.73-6.49-5.84-.19-1.14,.89-.46,1.22-.16,1.76,1.67,3.57,3.29,5.44,4.87,.47,.4,.41,.78-.17,1.12h0Z"/>
      <path class="cls-182" d="M96.32,167.33l-2.52,2.05c-2.42,2.12-4.75,3.63-7.01,4.56-.46,.18-.7-.05-.73-.7,0-.17-.06-.32-.13-.41-1.1-1.33-2.41-2.39-3.93-3.18-.83-.43-.78-.73,.14-.92,3.84-.78,7.91-1.55,12.23-2.29,.97-.17,1.94-.48,1.95,.89h0Z"/>
      <path class="cls-176" d="M48.84,182.49l-.81-.04c-.55-1.14-1.2-2.2-1.95-3.2-1.87-2.49-3.26-4.98-5.29-7.22-.06-.06-.07-.12-.06-.17,.02-.05,.09-.07,.17-.03,0,0,.02,0,.02,.01,.64,.39,1.08,.77,1.32,1.12,2.13,3.13,4.42,6.14,6.88,9.03,.11,.12,.13,.28,.06,.36-.07,.09-.18,.13-.33,.12h0Z"/>
      <path class="cls-171" d="M37.86,180.47l10.17,1.98,.81,.04,.56,.31-.02,.31-6.47,4.77c.15-.42,.03-.67-.34-.75-.12-.03-.27,.01-.39,.1-3.69,2.73-7.36,5.49-10.98,8.29-.41,.32-.67,.3-1.17,.23,2.77-5.43,4.96-9.97,6.57-13.63,.34-.79,.76-1.34,1.26-1.65h0Z"/>
      <path class="cls-204" d="M49.38,183.11c4.16,.91,8.36,1.64,12.62,2.21,1.64,.22,3.21,1.18,4.7,1.34,10.81,1.17,17.29,1.9,19.44,2.2,5.34,.75,9.49,1.22,12.43,1.42-1.37,.73-3.02,1.46-4.94,2.19-3.06,1.16-6.49,3.14-8.88,4.38-6.49,3.33-12.97,6.66-19.45,10-3.06,1.57-5.9,3.62-9.16,5.25-2.25,1.13-4.46,2.44-6.65,3.92-.12-.8-.16-1.27-.12-1.42,2.57-8.7,5.15-17.41,7.74-26.11,.18-.18,3.24-2.48,2.56-2.6-.56-.1-3.52,1.98-4.13,2.3-2.69,1.41-5.28,3.14-7.97,4.43-1.94,.93-3.12,1.52-3.52,1.76-5.27,3.22-10.67,6.22-16.2,9-.21,.11-.82,.27-1.82,.49,.51-1.27,.72-2.68,1.71-3.64,.73-.71,1.49-1.39,2.29-2.02,4.3-3.41,8.59-6.85,12.86-10.3l6.47-4.77h0Z"/>
      <path class="cls-200" d="M57.12,188.47c-3.11,1.69-6.2,3.33-9.27,4.92-5.35,2.78-10.62,5.96-15.97,8.87-1.94,1.06-3.95,1.98-6.02,2.76-.41,.16-1.36,1.36-1.25,0,0-.09-.06-.17-.15-.18l-.17-.02,1.76-1c1-.22,1.6-.38,1.82-.49,5.52-2.77,10.92-5.77,16.2-9,.4-.25,1.57-.83,3.52-1.76,2.69-1.29,5.28-3.02,7.97-4.43,.61-.32,3.57-2.4,4.13-2.3,.67,.12-2.38,2.42-2.56,2.6h0Z"/>
      <path class="cls-188" d="M42.91,187.88c-4.27,3.45-8.56,6.88-12.86,10.3-.8,.63-1.56,1.3-2.29,2.02-.99,.96-1.2,2.37-1.71,3.64l-1.76,1-16.11,6.38c-1.88,.73-3.79,1.35-5.73,1.86-.63,.17-.9-.14-.8-.93,2.42-1.14,5.05-1.94,7.36-3.04,4.98-2.37,10.12-4.35,15.41-5.92,.75-.22,1.34-.67,1.75-1.32l3.84-6.11c.49,.07,.75,.09,1.17-.23,3.63-2.8,7.29-5.57,10.98-8.29,.13-.09,.27-.13,.39-.1,.37,.08,.49,.33,.34,.75h0Z"/>
      <path class="cls-203" d="M57.12,188.47c-2.59,8.7-5.17,17.41-7.74,26.11-.04,.15,0,.63,.12,1.42-11.95-1.19-23.89-2.49-35.8-3.9-.81-.09-1.87-.14-3.19-.14-.87,0-1.91,.89-2.33-.75l16.11-6.38,.17,.02c.09,.01,.15,.09,.15,.18-.12,1.35,.83,.16,1.25,0,2.07-.78,4.07-1.7,6.02-2.76,5.35-2.92,10.62-6.1,15.97-8.87,3.07-1.59,6.16-3.23,9.27-4.92h0Z"/>
    </g>
  </g>
</svg>