<?xml version="1.0" encoding="UTF-8"?>
<svg id="Layer_2" data-name="Layer 2" xmlns="http://www.w3.org/2000/svg" viewBox="0 0 32 21">
  <defs>
    <style>
      .cls-1 {
        fill: #bdc3c7;
      }
    </style>
  </defs>
  <g id="Capa_1" data-name="Capa 1">
    <g>
      <circle class="cls-1" cx="6.5" cy="14.5" r="5.5"/>
      <path class="cls-1" d="M6.5,21c-3.58,0-6.5-2.92-6.5-6.5s2.92-6.5,6.5-6.5,6.5,2.92,6.5,6.5-2.92,6.5-6.5,6.5Zm0-11c-2.48,0-4.5,2.02-4.5,4.5s2.02,4.5,4.5,4.5,4.5-2.02,4.5-4.5-2.02-4.5-4.5-4.5Z"/>
    </g>
    <g>
      <circle class="cls-1" cx="23.5" cy="14.5" r="5.5"/>
      <path class="cls-1" d="M23.5,21c-3.58,0-6.5-2.92-6.5-6.5s2.92-6.5,6.5-6.5,6.5,2.92,6.5,6.5-2.92,6.5-6.5,6.5Zm0-11c-2.48,0-4.5,2.02-4.5,4.5s2.02,4.5,4.5,4.5,4.5-2.02,4.5-4.5-2.02-4.5-4.5-4.5Z"/>
    </g>
    <path class="cls-1" d="M1,15c-.55,0-1-.45-1-1C0,6.28,6.28,0,14,0c.55,0,1,.45,1,1s-.45,1-1,1C7.38,2,2,7.38,2,14c0,.55-.45,1-1,1Z"/>
    <path class="cls-1" d="M18,15c-.55,0-1-.45-1-1C17,6.28,23.28,0,31,0c.55,0,1,.45,1,1s-.45,1-1,1c-6.62,0-12,5.38-12,12,0,.55-.45,1-1,1Z"/>
  </g>
</svg>