<?xml version="1.0" encoding="UTF-8"?>
<svg id="Layer_2" data-name="Layer 2" xmlns="http://www.w3.org/2000/svg" viewBox="0 0 217.45 229.62">
  <defs>
    <style>
      .cls-1 {
        fill: #fee262;
      }

      .cls-2 {
        fill: #f7ce65;
      }

      .cls-3 {
        fill: #f4c960;
      }

      .cls-4 {
        fill: #fcc748;
      }

      .cls-5 {
        fill: #fee984;
      }

      .cls-6 {
        fill: #fee26b;
      }

      .cls-7 {
        fill: #fddd49;
      }

      .cls-8 {
        fill: #fee13d;
      }

      .cls-9 {
        fill: #fde44b;
      }

      .cls-10 {
        fill: #fce77c;
      }
    </style>
  </defs>
  <g id="Layer_1-2" data-name="Layer 1">
    <path class="cls-7" d="M136.7,44.23c2.9,.1,5.8,1.1,8.7,3,.4,.2,.5,.7,.4,1.3-1.3,5.4-4.2,6.2-8.8,2.6-.3-.2-.7-.4-1.2-.4-1.5-.2-2.9-.7-4.1-1.5-.7-.5-1-.7-1.1-.7-3.6-.4-6.8-1.6-9.7-3.7-.1-.1-.7-.1-1.4-.1h-10.2c-.2,0-.6-.2-1-.5-3.6-2.8-3.2,4.5-8,2.4-.3-.1-.4-.5-.3-.9h0c.6-1.4,.7-2.8,.3-4.2-.1-.4,0-.7,.3-1,.5-.4,.9-.8,1.1-1.4l6-1.2c.4-.1,.7-.4,.7-.8-.6-8.9-.6-17.9,.1-26.8,0-.3-.2-.7-.5-.9-.9-.7-1.5-1.6-1.7-2.7l3.3-6.4c.2-.5,.5-.4,.7,.1l19.8,40.8c.3,.5,.6,.9,.9,1l5.7,2Z"/>
    <path class="cls-10" d="M106.3,6.53c.3,1.1,.9,2,1.7,2.7,.3,.3,.5,.6,.5,.9-.7,8.9-.7,17.9-.1,26.8,0,.4-.3,.7-.7,.8l-6,1.2-12.3,2.5c5-11.8,10.6-23.5,16.9-34.9Z"/>
    <path class="cls-7" d="M84.3,44.23c.4,.8,.3,1.8-.3,3-.2,.3-.6,.6-1,.6-5.9,.8-11.6,7.9-17.6,12.4-4.6,3.6-6.2,6.9-6.1,12.5,0,.5-.1,.9-.3,1.2-1.2,1.9-2.3,3.9-3.4,5.9-2.5,4.4-6,8.3-8.9,12.7-.9,1.4-2.2,2.4-3.8,3-5.2,2-4.9,4.6,.9,7.8l9.2,8.8c.3,.3,.5,.7,.4,1.1-1.1,9.4-2.8,17.5,.2,27.5,.3,1.1,1,2.2,2.1,3.5,2,2.5,2.6,5.8,4.8,8,4.8,4.8,10.3,8.5,16.5,11.2l1.6,9.7c.1,.5,.3,.8,.7,1l5.6,2.4c.4,.2,.9,0,1.1-.4l3.7-5.3c13.3,4.1,26.7,4.6,40.2,1.4l2.5,3.9c.2,.4,.6,.5,.9,.4l6.8-3.4c-.2,1.4,.4,2,1.5,2,1.7,0,3.2-.5,4.4-1.3,4-2.7,8.3-4.5,11.7-7.9,3.6-3.6,8-6.9,9.9-11.8,1.7-4.5,5-8.4,5.9-13.1,1.1-5.7,8.4-27.6,1.6-30.9-.4-.2-.7-.5-.7-.9-.6-3.4,4.7-5.1,4-10.7-.1-.4-.3-.8-.6-1.2-4.8-5.3-9-11-12.6-17.2-.2-.4-.3-.9-.3-1.3,.1-3.4-2.6-5.4,1.3-8.2,.4-.2,.5-.7,.4-1l-2.5-6.1c-.2-.5-.5-.9-.7-1.1l-6.7-4.9c-1.7-1.3-2.3-2.7-1.5-4.5l2.2-5.3c.2-.4,.5-.8,.8-1,4.3-3,10.4-8,10.3-13,0-.4,.2-.8,.5-1,1.9-1.2,2.2-3,1.1-5.2l6.1-3.4c1-.6,1.4-.3,1.2,.9-2.3,12.9-4.7,25.7-7.1,38.5-.8,4.2,.7,7.2,4.5,9.1,.7,5.1,2.7,9.8,5.9,14.1-.4,3.6,2,6,2.7,8.7,1.3,5-.4,9.1-1,13.8-.1,.3,.1,.7,.4,1.1l1.6,1.9c-1.5,2.3-1.4,4.5,.2,6.6-2.3,5.8-2.5,11.7-.7,17.6-2.3,6.2-5.3,12.1-9.1,17.6-.3,.4-.4,.8-.4,1.2,0,.9,.3,1.7,.6,2.5-5.5,2.8-5.7,7-4.6,12.8,2,10,3.6,20.1,4.9,30.2-3.7,.2-3.9-2-5.4-4.5-4.7-7.3-9.2-14.1-13.4-20.4-1.2-1.9-2.7-1.9-4.3-.2-3,3.3-6.4,6.1-10.3,8.3-.4,.2-.7,.6-.7,1-.1,1.1-.7,2-1.7,2.5-4.1-.4-8,.4-11.6,2.7l-17.2,2.1c-6-1.9-12.4-.5-19.6-3.6-.4-.2-.9-.2-1.2,0l-1.7,.9c-3.8-2.8-7.7-3.1-12.1-.8-11.2,6.1-22.3,12-33.1,17.7-.8,.4-1.1,.2-1-.7,2-12.3,4.1-24.5,6.2-36.5,.9-5.1-.5-8.4-4-11.8-.3-.3-.7-.5-1.1-.5L1,150.73c-1.2-.2-1.3-.7-.4-1.5l33.5-32.4c1.6-1.5,1.6-3.1,0-4.6L.8,79.33c-.4-.4-.3-.7,.4-.8l43-6.4c.5-.1,.9-.2,1.2-.5,2.6-2.6,4.2-5,3.5-9-2.2-13.3-4.3-26.3-6.4-39-.1-.9,.2-1.1,1-.7l40.8,21.3Z"/>
    <path class="cls-1" d="M169.9,27.53c1.1,2.2,.8,4-1.1,5.2-.3,.2-.5,.6-.5,1,.1,5-6.1,10-10.3,13-.4,.3-.7,.6-.8,1l-2.2,5.3c-.7,1.7-.2,3.2,1.5,4.5l6.7,4.9c.2,.2,.5,.6,.7,1.1l2.5,6.1c.1,.4,0,.8-.4,1-3.9,2.8-1.1,4.8-1.3,8.2,0,.5,.1,.9,.3,1.3,3.6,6.1,7.8,11.9,12.6,17.2,.3,.3,.5,.8,.6,1.2,.8,5.6-4.6,7.3-4,10.7,.1,.4,.3,.7,.7,.9,6.8,3.4-.5,25.2-1.6,30.9-.9,4.7-4.1,8.5-5.9,13.1-1.9,4.9-6.3,8.2-9.9,11.8-3.4,3.4-7.7,5.1-11.7,7.9-1.2,.9-2.7,1.3-4.4,1.3-1.2,0-1.7-.6-1.5-2,.5-7.7,1.4-15.4,2.7-23.1,.1-.8-.2-1.3-.9-1.6,1.7-1.1,3.3-2.8,4.9-5,4.2-5.9,10.6-14.4,19.2-25.5,1-1.2,1.1-2.5-.1-3.6-.3-.3-.4-.7-.4-1,1.3-10.2,2.6-16.5-3.9-23.9-.2-.3-.3-.7-.3-1.1,.3-1.9-1.7-3.1-2.4-4.3-1.5-3-1.7-4.3-1.2-8.1,.7-5.6-3.7-11.6-9.2-12.7-1-.2-3.5,.2-7.6,1.1-4,.9-8,.9-12,.1-2.7-.5-4.7-2.3-7.6-2.8-2.8-.5-8.1-2.6-10.3-1.5-5.6,2.9-15.7,9.2-30.3,19.1-.4,.3-.8,.3-1.2,.1-.7-.4-.8-.9-.3-1.7,6.3-10.1,12.3-21.9,19.6-31.1,1.4-1.7,.1-3.2-1.7-1.9-4.2,3.2-4.6,5.3-10.7,4.4-.5-.1-1,.1-1.2,.4-.9,1.4-2.1,2.2-3.7,2.6-.5,.1-.9,.3-1.2,.7-2.3,2.4-3.3,5-6,6.9-4.1,2.9-7.2,6.5-11,9.8-1.4,1.2-2.1,2.9-2.2,5,0,.4,.2,.7,.5,.8,4.2,1.5,7.9,3.7,11.2,6.7,.4,.4,.2,.6-.5,.7-8.3,1.1-14.4,5.1-18.4,11.8-2.7,4.6-5.9,6.5-10.2,9-5.7-3.2-6-5.8-.9-7.8,1.6-.6,2.8-1.6,3.8-3,2.9-4.4,6.4-8.3,8.9-12.7,1.1-2,2.3-3.9,3.4-5.9,.2-.4,.3-.8,.3-1.2-.1-5.6,1.4-9,6.1-12.5,6-4.6,11.7-11.6,17.6-12.4,.4-.1,.8-.3,1-.6,.6-1.2,.8-2.2,.3-3l5.2-2.6,12.3-2.5c-.2,.5-.6,1-1.1,1.4-.3,.2-.5,.6-.3,1,.5,1.4,.4,2.9-.3,4.2-.2,.3,0,.7,.3,.9h0c4.8,2.1,4.5-5.2,8-2.4,.4,.3,.8,.5,1,.5l10.3-.1c.7,0,1.2,0,1.4,.1,2.9,2,6.1,3.3,9.7,3.7,.1,0,.4,.2,1.1,.7,1.2,.9,2.6,1.4,4.1,1.5,.4,0,.8,.2,1.2,.4,4.6,3.6,7.5,2.8,8.8-2.6,.1-.5,0-1-.4-1.3-2.9-1.9-5.8-2.9-8.7-3l33.3-16.7Z"/>
    <path class="cls-5" d="M141.8,148.43l-1.3-.4,.1-.7c0-.7,0-1.1-.1-1.3-4-10.1-8.7-19.8-14.2-29.1-.3-.5-.4-.9-.3-1.3,1.5-5.6,5.7-9.7,6.9-15.8,.1-.4,0-.9-.1-1.3-1.3-3.2-3.1-5.6-5.2-9.1-1.2-2.1-3.5-4.4-6.8-6.8-.7-.5-1.4-.8-2.2-.9-13.6-1.7-26.9,1.2-40.6,.9-.5,0-.9,.4-.9,.8,0,.1,0,.2,.1,.3,6.7,16.8,15.2,32.6,25.3,47.6,.4,.7,1.6,2.1,3.5,4.2,.3,.3,.4,.7,.3,1.1l-.6,2.7-13.4-3c-1.8-.4-3.2,.2-4.1,1.9l-4,7.6c-.2,.3-.5,.6-1,.7-9.6,2.5-5.7,10.1-6.3,16.9-6.2-2.7-11.7-6.5-16.5-11.2-2.1-2.1-2.8-5.4-4.8-8-1.1-1.3-1.7-2.5-2.1-3.5-3-10-1.3-18.1-.2-27.5,0-.4-.1-.8-.4-1.1l-9.2-8.8c4.3-2.5,7.5-4.4,10.2-9,4-6.7,10.1-10.7,18.4-11.8,.7-.1,.9-.3,.5-.7-3.3-3-7-5.2-11.2-6.7-.3-.1-.5-.5-.5-.8,.1-2.1,.8-3.8,2.2-5,3.8-3.3,6.8-6.9,11-9.8,2.7-1.9,3.7-4.5,6-6.9,.3-.3,.7-.6,1.2-.7,1.6-.4,2.9-1.2,3.7-2.6,.2-.3,.7-.5,1.2-.4,6.2,.9,6.5-1.2,10.7-4.4,1.8-1.4,3,.2,1.7,1.9-7.4,9.2-13.3,21-19.6,31.1-.5,.8-.4,1.3,.3,1.7,.3,.2,.8,.1,1.2-.1,14.6-9.9,24.7-16.3,30.3-19.1,2.2-1.1,7.5,1,10.3,1.5,2.9,.6,5,2.3,7.6,2.8,4,.8,8,.8,12-.1,4.1-.9,6.7-1.3,7.6-1.1,5.6,1.1,9.9,7.1,9.2,12.7-.5,3.7-.3,5.1,1.2,8.1,.6,1.2,2.7,2.4,2.4,4.3-.1,.4,0,.8,.3,1.1,6.5,7.4,5.2,13.7,3.9,23.9-.1,.4,.1,.8,.4,1,1.1,1.1,1,2.4,.1,3.6-8.6,11.1-15,19.6-19.2,25.5-1.7,2.3-3.3,4-5,5.1Z"/>
    <path class="cls-9" d="M174.7,72.63c13.3,1.2,26.4,3.2,39.4,5.8-10.9,3.8-22.1,6.6-33.5,8.3-3.3-4.3-5.2-9-5.9-14.1Z"/>
    <path class="cls-4" d="M214.1,78.43c1-.3,2-.2,3,.3,.2,.1,.3,.4,.2,.7l-.1,.1-32.9,32.6-1.6-1.9c-.3-.4-.5-.8-.4-1.1,.6-4.7,2.3-8.8,1-13.8-.7-2.7-3.1-5.1-2.7-8.7,11.4-1.6,22.6-4.3,33.5-8.2Z"/>
    <path class="cls-1" d="M140.5,147.93l-31.8-7.8-3-.8,.6-2.7c.1-.4,0-.8-.3-1.1-1.9-2.1-3.1-3.5-3.5-4.2-10.1-15-18.5-30.8-25.3-47.6-.2-.4,0-.9,.5-1.1,.1,0,.2-.1,.3-.1,13.7,.3,27-2.6,40.6-.9,.8,.1,1.6,.4,2.2,.9,3.3,2.4,5.6,4.6,6.8,6.8,2.1,3.6,3.9,5.9,5.2,9.1,.2,.4,.2,.8,.1,1.3-1.3,6.1-5.4,10.2-6.9,15.8-.1,.4,0,.9,.3,1.3,5.5,9.3,10.2,19,14.2,29.1,.1,.2,.1,.6,.1,1.3l-.1,.7Zm-44.7-65.1l-3.7,3.1c-.3,.3-.5,.7-.5,1,1,8.1,.9,14.2,9.5,17.6,2.6,1,5.7,.2,8.7,.7,5.3,.8,7.5-.2,8.4-5.6,1-6.2-.4-11.3-4.2-15.2-3.5-3.6-13.5-2.6-18.1-2.3-.1,0-.2,0-.1,.1l.2,.2c0,.1,0,.3-.2,.4h0Z"/>
    <path class="cls-8" d="M96,82.53l-.2-.2c-.1-.1,0-.1,.1-.1,4.6-.4,14.6-1.3,18.1,2.3,3.8,3.9,5.2,8.9,4.2,15.2-.9,5.4-3.1,6.5-8.4,5.6-3-.5-6.1,.3-8.7-.7-8.6-3.4-8.5-9.5-9.5-17.6,0-.3,.1-.7,.5-1l3.7-3.1c.2-.2,.2-.4,.2-.4h0Z"/>
    <path class="cls-9" d="M184.4,118.83c10,9.2,19.5,18.6,28.6,28.4-1.1,1-2.1,1.4-3,1-3.9-1.5-12.7-5.4-26.3-11.8-1.8-5.9-1.6-11.8,.7-17.6Z"/>
    <path class="cls-3" d="M105.7,139.33l3,.8-.3,1.6-18.8,29-3.7,5.3c-.3,.4-.8,.6-1.1,.4l-5.6-2.4c-.3-.1-.6-.5-.7-1l-1.6-9.7c.6-6.8-3.3-14.4,6.3-16.9,.4-.1,.8-.4,1-.7l4-7.6c.9-1.7,2.2-2.3,4.1-1.9l13.4,3.1Z"/>
    <path class="cls-4" d="M183.7,136.53c13.6,6.4,22.4,10.3,26.3,11.8,.8,.3,1.8,0,3-1l4,3.6c.7,.7,.6,1.1-.4,1.2l-41.8,5.8c-.4-.8-.6-1.6-.6-2.5,0-.4,.1-.8,.4-1.2,3.8-5.6,6.8-11.5,9.1-17.7Z"/>
    <path class="cls-2" d="M108.7,140.13l31.8,7.8,1.3,.4c.7,.3,1,.8,.9,1.6-1.3,7.7-2.2,15.4-2.7,23.1l-6.8,3.4c-.3,.1-.6,0-.9-.4l-2.5-3.9-19.6-29.8c-.2-.4-.6-.6-1-.6h-.9l.4-1.6Z"/>
    <path class="cls-6" d="M108.4,141.73h.9c.4,0,.8,.3,1,.6l19.6,29.8c-13.6,3.2-27,2.7-40.2-1.4l18.7-29Z"/>
    <path class="cls-4" d="M175.2,200.93l1.2,5c.2,.9-.1,1.1-.8,.7l-36.1-18.9c1-.6,1.5-1.4,1.7-2.5,0-.4,.3-.7,.7-1,3.9-2.2,7.3-5,10.3-8.3,1.6-1.8,3-1.7,4.3,.2,4.2,6.3,8.7,13.1,13.4,20.4,1.5,2.4,1.6,4.6,5.3,4.4Z"/>
    <path class="cls-4" d="M110.6,192.43l-1.9,28.4c0,.5,.1,.9,.3,1.2l1.9,2.2-2.7,5.1c-.2,.4-.4,.4-.7-.1l-19.3-39.5,1.7-.9c.3-.2,.8-.2,1.2,0,7.2,3.1,13.5,1.7,19.5,3.6Z"/>
    <path class="cls-9" d="M127.9,190.33c-5.2,11.5-10.8,22.8-16.8,33.8l-1.9-2.2c-.2-.3-.4-.7-.3-1.2l1.9-28.4,17.1-2Z"/>
  </g>
</svg>