<?xml version="1.0" encoding="UTF-8"?>
<svg id="Layer_2" data-name="Layer 2" xmlns="http://www.w3.org/2000/svg" viewBox="0 0 125.41 62.96">
  <defs>
    <style>
      .cls-1 {
        fill: #a9a09a;
      }

      .cls-2 {
        fill: #d1cbcc;
      }

      .cls-3 {
        fill: #d3c1b1;
      }

      .cls-4 {
        fill: #aeaaa5;
      }

      .cls-5 {
        fill: #d5c8bc;
      }

      .cls-6 {
        fill: #758ba1;
      }

      .cls-7 {
        fill: #9fa4a9;
      }

      .cls-8 {
        fill: #ece5e7;
      }

      .cls-9 {
        fill: #78797a;
      }

      .cls-10 {
        fill: #66767e;
      }

      .cls-11 {
        fill: #97999e;
      }

      .cls-12 {
        fill: #bda89b;
      }

      .cls-13 {
        fill: #a29992;
      }

      .cls-14 {
        fill: #48565f;
      }

      .cls-15 {
        fill: #b2a79e;
      }

      .cls-16 {
        fill: #989491;
      }

      .cls-17 {
        fill: #9b8981;
      }

      .cls-18 {
        fill: #9e9f9c;
      }

      .cls-19 {
        fill: #b9b4b3;
      }

      .cls-20 {
        fill: #8d8f91;
      }

      .cls-21 {
        fill: #cba898;
      }

      .cls-22 {
        fill: #858585;
      }

      .cls-23 {
        fill: #827972;
      }

      .cls-24 {
        fill: #928c89;
      }

      .cls-25 {
        fill: #5d6f79;
      }

      .cls-26 {
        fill: #c8bbaf;
      }

      .cls-27 {
        fill: #9ea0a2;
      }

      .cls-28 {
        fill: #b69a8c;
      }

      .cls-29 {
        fill: #d0c3b8;
      }

      .cls-30 {
        fill: #cbc2bd;
      }

      .cls-31 {
        fill: #9e928a;
      }
    </style>
  </defs>
  <g id="Layer_1-2" data-name="Layer 1">
    <path class="cls-3" d="M48.08,3.07c0,.55-.25,.84-.73,.86-.39,.03-.71,.14-.85,.31-.41,.49-.65,1.09-.71,1.79-.48,.29-.89,.68-1.23,1.18-.17,.25-.46,.36-.69,.25l-6.19-3c-.27-.13-.58-.1-.81,.08-1.22,.95-2.18,3.62-4.03,1.21,4.03-6.63,9.11-7.53,15.24-2.68Z"/>
    <path class="cls-2" d="M48.08,3.07l.96,.54c-.48,1.73,0,2.13,1.43,1.19,.25-.16,.58-.19,.89-.08,1.53,.55,2.87,1.39,4.01,2.51,.29,.28,.67,.37,.93,.21,.25-.15,.34-.46,.29-.93,6.33,1.81,11.81,5.09,16.45,9.85-.37,2.31,.05,4.48,1.25,6.5,1.06,3.06,3.02,5.27,3.54,8.46l-.83,1.25-6.46,6.04c-1.19,.09-1.73-.43-1.64-1.55,.55-6.47,.7-11.97,.43-16.52l-13.54-5.93c-1.58-.77-1.95-1.79-1.11-3.07,.12-.19,.09-.45-.07-.56-.03-.02-.07-.04-.1-.05l-1.01-.26c-1.46-2.49-3.68-3.69-6.67-3.6l-1.04-1.04c.06-.7,.3-1.3,.71-1.79,.14-.17,.46-.28,.85-.31,.48-.02,.72-.31,.73-.86Z"/>
    <path class="cls-8" d="M49.04,3.61c3.07-.38,5.58,.59,7.55,2.9,.05,.47-.04,.78-.29,.93-.26,.16-.64,.07-.93-.21-1.14-1.12-2.48-1.96-4.01-2.51-.31-.11-.64-.08-.89,.08-1.43,.94-1.91,.54-1.43-1.19Z"/>
    <path class="cls-1" d="M45.79,6.03l1.04,1.04c-.68,1.23-1.68,2.06-3,2.5l-1.92,1.94c-.24,.24-.37,.54-.36,.83,.07,2.01-.53,4.35-1.82,7.02-.26,.54,0,1.21,.57,1.5l13.24,6.72c.15,.08,.49,.16,1,.23,.47,.07,.7,.4,.71,1.01l-14.48,9.47c-.69,.45-1.05,.28-1.06-.53-.04-4.67-.21-9.33-.52-14-.1-1.48,1.05-3.28-1.9-3.23l-.21-4.46c-.39-1.11-1.07-2.02-2.04-2.71,1.77,0,3.29-.54,4.56-1.64,.14-.12,.16-.32,.05-.46-.03-.04-.07-.07-.12-.09-2.03-.87-3.7-.32-5.03,1.65l-2.46-.79,.25-.23c.14-.13,.18-.35,.08-.54-.89-1.77-.73-3.61,.47-5.51,1.85,2.41,2.81-.26,4.03-1.21,.23-.18,.54-.21,.81-.08l6.19,3c.23,.11,.52,0,.69-.25,.34-.5,.75-.89,1.23-1.18Z"/>
    <path class="cls-28" d="M46.83,7.07c2.99-.09,5.21,1.11,6.67,3.6-3.44,.24-6.66-.13-9.67-1.1,1.32-.44,2.32-1.27,3-2.5Z"/>
    <path class="cls-26" d="M43.83,9.57c3.01,.97,6.23,1.34,9.67,1.1l1.01,.26c.19,.05,.29,.27,.23,.49-.01,.04-.03,.08-.06,.12-.84,1.28-.47,2.3,1.11,3.07-.59,4.42-.52,8.81,.2,13.18,.03,.2,.22,.34,.41,.31,.04,0,.08-.02,.12-.04l12.81-7.52c.27,4.55,.12,10.05-.43,16.52-.09,1.12,.45,1.64,1.64,1.55l-1.96-.04-12.29-9.21-1.04-.54c0-.61-.24-.94-.71-1.01-.51-.07-.85-.15-1-.23l-13.24-6.72c-.58-.29-.83-.96-.57-1.5,1.29-2.67,1.89-5.01,1.82-7.02,0-.29,.12-.59,.36-.83l1.92-1.94Z"/>
    <path class="cls-23" d="M35.04,13.36l-.54-.54c1.33-1.97,3-2.52,5.03-1.65,.16,.07,.24,.26,.16,.43-.02,.05-.05,.09-.09,.12-1.27,1.1-2.79,1.65-4.56,1.64Z"/>
    <path class="cls-3" d="M30.87,12.12l1.17-.09,2.46,.79,.54,.54c.97,.69,1.65,1.6,2.04,2.71,.05,.88-.28,1.33-.99,1.35-.24,.01-.54,.1-.89,.27l-2.91,1.42-6.07-3.28c-.27-.14-.55-.15-.7-.02-1.26,1.12-1,1.71,.79,1.78,.21,0,.47,.18,.67,.47,1.79,2.51,3.89,4.7,6.31,6.55,.54,2.74-9.29,7.47-11.5,8.25l-10.99-5.77L1.36,24.83l4.9-5.86c.19-.23,.48-.41,.81-.5,4.95-1.37,10.32-3.96,15.36-2.02,.26,.1,.55,0,.69-.25,1.53-2.62,4.11-3.98,7.75-4.08Z"/>
    <path class="cls-5" d="M55.79,14.61l13.54,5.93-12.81,7.52c-.17,.1-.38,.04-.48-.14-.02-.04-.04-.08-.05-.13-.72-4.37-.79-8.76-.2-13.18Z"/>
    <path class="cls-16" d="M32.29,19.11l3.71,2.96-2.21,2.71-.5-.17c-2.42-1.85-4.52-4.04-6.31-6.55-.2-.29-.46-.46-.67-.47-1.79-.07-2.05-.66-.79-1.78,.15-.13,.43-.12,.7,.02l6.07,3.28Z"/>
    <path class="cls-29" d="M94.19,25.98c-1.01,1.06-1.27,2.39-.79,3.99l-1.4,2.35-2.21,1.79c-1.53,.18-2.85,.94-3.98,2.27-.2,.23-.52,.3-.76,.16-1.61-.92-2.2-2.44-1.76-4.57,.17-.78,1.4-7.96,.29-8.37-.2-.08-.51,.12-.73,.46-.31,.49-.75,.84-1.31,1.05-2.75-.86-3.85-3.84-7.25-2.25-1.2-2.02-1.62-4.19-1.25-6.5,4.22-1.34,7.36,.79,10.39,3.65,.23,.22,.54,.35,.86,.37,3.97,.27,7.27,2.14,9.9,5.6Z"/>
    <path class="cls-4" d="M37.08,16.07l.21,4.46-1.29,1.54-3.71-2.96,2.91-1.42c.35-.17,.65-.26,.89-.27,.71-.02,1.04-.47,.99-1.35Z"/>
    <path class="cls-24" d="M37.29,20.53c2.95-.05,1.8,1.75,1.9,3.23,.31,4.67,.48,9.33,.52,14,.01,.81,.37,.98,1.06,.53l14.48-9.47,1.04,.54c-.1,1.55-.74,2.81-.75,4.31-.05,3.81-.38,7.6-1,11.36-5.93-2.02-11.7-4.53-17.29-7.52v-1.19c.43-2.21-1.4-10.58-3.46-11.54l2.21-2.71,1.29-1.54Z"/>
    <path class="cls-30" d="M123.54,34.36c-.49-.48-.56-1.03-.21-1.65,.14-.25,.08-.56-.13-.71-1.83-1.29-3.43-2.96-4.79-5.03-.15-.23-.35-.35-.59-.38-.37-.04-.43,.11-.18,.45l5.44,7.53c.15,3.58-.38,7.1-1.6,10.55-1.1-.73-2-1.67-2.69-2.84l-.69-1.18-7.18-6.21c-.19-.16-.49-.2-.81-.11-.17,.05-.35,.07-.53,.04l-8.4-4.49c.73-2.77,.76-5.42,.09-7.95,5.99-2.72,9.56,.74,15.49-.06,7.27-.99,11.22,6.26,6.78,12.04Z"/>
    <path class="cls-9" d="M81.54,25.11c1.54,1.9,1.37,3.46-.5,4.68l-3.21,1.53c-.52-3.19-2.48-5.4-3.54-8.46,3.4-1.59,4.5,1.39,7.25,2.25Z"/>
    <path class="cls-15" d="M101.27,22.38c.67,2.53,.64,5.18-.09,7.95-2.49-2.58-.44,3.9-3.25,1.2-.2-.2-.51-.24-.77-.11-1.67,.83-2.92,.35-3.76-1.45-.48-1.6-.22-2.93,.79-3.99,1.87-2.19,4.23-3.39,7.08-3.6Z"/>
    <path class="cls-15" d="M89.79,34.11l-.96,4.96c-1.53-.13-2.94-.63-4.25-1.5l-1.04-.54c-1.12-1.32-2.52-2.22-4.21-2.71-.39-.35-.57-.75-.56-1.2,0-.13,.17-.45,.44-.83l1.83-2.5c1.87-1.22,2.04-2.78,.5-4.68,.56-.21,1-.56,1.31-1.05,.22-.34,.53-.54,.73-.46,1.11,.41-.12,7.59-.29,8.37-.44,2.13,.15,3.65,1.76,4.57,.24,.14,.56,.07,.76-.16,1.13-1.33,2.45-2.09,3.98-2.27Z"/>
    <path class="cls-19" d="M33.29,24.61l.5,.17c2.06,.96,3.89,9.33,3.46,11.54l-4.21,4.54-1.25,.17c-2.64-2.89-5.63-5.38-8.96-7.46l-.79-.29-.25-.42c2.21-.78,12.04-5.51,11.5-8.25Z"/>
    <path class="cls-21" d="M1.36,24.83l9.44,2.26-7.65,5.89c-.28,.21-.62,.28-.9,.19-.55-.17-.8-.62-.75-1.35l-.14-6.99Z"/>
    <path class="cls-25" d="M123.54,34.36l-.46,.21-5.44-7.53c-.25-.34-.19-.49,.18-.45,.24,.03,.44,.15,.59,.38,1.36,2.07,2.96,3.74,4.79,5.03,.21,.15,.27,.46,.13,.71-.35,.62-.28,1.17,.21,1.65Z"/>
    <path class="cls-12" d="M10.8,27.09l10.99,5.77,.25,.42-12.25,7.58c-3.27-1.91-6.34-4.12-9.22-6.61,.21-1.03,.52-1.84,.93-2.43-.05,.73,.2,1.18,.75,1.35,.28,.09,.62,.02,.9-.19l7.65-5.89Z"/>
    <path class="cls-18" d="M56.29,29.36l12.29,9.21-.04,.71c-4.46,2.43-9.13,4.35-14,5.75,.62-3.76,.95-7.55,1-11.36,.01-1.5,.65-2.76,.75-4.31Z"/>
    <path class="cls-13" d="M101.18,30.33l8.4,4.49,.21,.46c-3.29,1.61-5.95,3.83-8,6.67-1.48,1.01-3.09,1.32-4.83,.94,1.07-1.24,1.21-2.31,.44-3.22-.19-.21-.52-.25-.8-.1-2.64,1.44-3.33,.59-2.06-2.54,2.45,.79,4.58,2.11,6.39,3.98,.23,.24,.56,.31,.8,.16,1.38-.85-.6-2.52-.17-4.2,.1-.38,.1-.72,.01-.97-1.12-3.26-5.24-2.47-8.03-2.89-.76,.11-1.27-.15-1.54-.79l1.4-2.35c.84,1.8,2.09,2.28,3.76,1.45,.26-.13,.57-.09,.77,.11,2.81,2.7,.76-3.78,3.25-1.2Z"/>
    <path class="cls-22" d="M81.04,29.79l-1.83,2.5c-.27,.38-.44,.7-.44,.83-.01,.45,.17,.85,.56,1.2l-1.35,5.38c-.25,1.01,.07,1.19,.97,.56l4.59-3.23,1.04,.54-1.49,11.19-7.55-3.08-.46-.86c.06-1.21,.12-2.42,.18-3.63,.15-2.97,1.56-5.49,1.74-8.62l.83-1.25,3.21-1.53Z"/>
    <path class="cls-24" d="M92,32.32c.27,.64,.78,.9,1.54,.79,.04,.81-.12,1.57-.49,2.28-.16,.29-.11,.63,.11,.76l1.38,.88c-1.27,3.13-.58,3.98,2.06,2.54,.28-.15,.61-.11,.8,.1,.77,.91,.63,1.98-.44,3.22l-7.78-3.72-.35-.1,.96-4.96,2.21-1.79Z"/>
    <path class="cls-7" d="M77,32.57c-.18,3.13-1.59,5.65-1.74,8.62-.06,1.21-.12,2.42-.18,3.63,.12,.69-.04,1.14-.49,1.33-.21,.09-.51-.05-.71-.34l-4.05-5.74-1.29-.79,.04-.71,1.96,.04,6.46-6.04Z"/>
    <path class="cls-26" d="M93.54,33.11c2.79,.42,6.91-.37,8.03,2.89,.09,.25,.09,.59-.01,.97-.43,1.68,1.55,3.35,.17,4.2-.24,.15-.57,.08-.8-.16-1.81-1.87-3.94-3.19-6.39-3.98l-1.38-.88c-.22-.13-.27-.47-.11-.76,.37-.71,.53-1.47,.49-2.28Z"/>
    <path class="cls-16" d="M22.04,33.28l.79,.29-1.75,11.71-9.76-4c-.17-.07-.41-.07-.68-.01l-.35,.09-.5-.5,12.25-7.58Z"/>
    <path class="cls-27" d="M22.83,33.57c3.33,2.08,6.32,4.57,8.96,7.46-3.33,2.14-6.9,3.56-10.71,4.25l1.75-11.71Z"/>
    <path class="cls-17" d="M.57,34.25c2.88,2.49,5.95,4.7,9.22,6.61l.5,.5-.14,.23c-.06,.09-.06,.26-.01,.45l3.12,11.04c.07,.27-.11,.57-.41,.66l-6.56,2.12-.75-.58c-1.75-3.42-4.04-6.39-4.31-10.37-.22-3.21-.63-6.41-1.23-9.59l.57-1.07Z"/>
    <path class="cls-31" d="M79.33,34.32c1.69,.49,3.09,1.39,4.21,2.71l-4.59,3.23c-.9,.63-1.22,.45-.97-.56l1.35-5.38Z"/>
    <path class="cls-27" d="M118.1,41.1c-2.82,1.53-5.67,2.68-8.56,3.43,.25-1.38,2.14-8.98,.25-9.25l-.21-.46c.18,.03,.36,.01,.53-.04,.32-.09,.62-.05,.81,.11l7.18,6.21Z"/>
    <path class="cls-22" d="M109.79,35.28c1.89,.27,0,7.87-.25,9.25-2.43-1.23-5.01-2.09-7.75-2.58,2.05-2.84,4.71-5.06,8-6.67Z"/>
    <path class="cls-20" d="M37.25,36.32v1.19c-.65,2.39-.87,4.78-.65,7.19,.1,1.09-.14,1.2-.73,.33l-2.83-4.17,4.21-4.54Z"/>
    <path class="cls-10" d="M54.54,45.03c4.87-1.4,9.54-3.32,14-5.75l1.29,.79c-2.75,1.72-6.46,11.16-7.95,14.82-.13,.31-.13,.65,0,.93,.67,1.43,1.88,2.18,3.62,2.25l-.71,.96-10.89,3.81c-5.88,.44-11.62-.32-17.23-2.27-2.66-.93-4.68-2.79-7.17-4.27-.27-.16-.6-.2-.91-.11-3.69,1.18-9.5,3.73-13.3,2.85-3.11-.72-6.11-1.78-9-3.18l6.56-2.12c.3-.09,.48-.39,.41-.66l-3.12-11.04c-.05-.19-.05-.36,.01-.45l.14-.23,.35-.09c.27-.06,.51-.06,.68,.01l9.76,4c3.81-.69,7.38-2.11,10.71-4.25l1.25-.17,2.83,4.17c.59,.87,.83,.76,.73-.33-.22-2.41,0-4.8,.65-7.19,5.59,2.99,11.36,5.5,17.29,7.52Z"/>
    <path class="cls-11" d="M84.58,37.57c1.31,.87,2.72,1.37,4.25,1.5l.35,.1c-.81,2.49-.64,4.47,.53,5.94,.35,.44,.31,1.06-.08,1.39-.08,.07-.17,.12-.27,.15l-6.27,2.11,1.49-11.19Z"/>
    <path class="cls-25" d="M89.18,39.17l7.78,3.72c1.74,.38,3.35,.07,4.83-.94,2.74,.49,5.32,1.35,7.75,2.58,2.89-.75,5.74-1.9,8.56-3.43l.69,1.18c-1.58,1.25-2.77,2.8-3.57,4.66-1.16,2.71,.52,6.08-4.64,5.95-1.59-.05-2.53,.82-2.82,2.61-4.27-1-8.58-1.43-12.95-1.29-.3,0-.57,.19-.7,.48-2.46,5.62-7.71,5.74-12.65,7.15-4.59,1.3-12.16-1.4-16.67-2.81l.71-.96c3.77-3.76,7.12-7.89,10.04-12.39l7.55,3.08,6.27-2.11c.48-.16,.72-.72,.52-1.24-.04-.11-.1-.21-.17-.3-1.17-1.47-1.34-3.45-.53-5.94Zm7.62,11.17c.1-.75-.36-1.46-1.08-1.67l-2.93-.86c-.53-.16-.97-.26-1.03-.25-.68,.5-.58,.83,.31,.98,.22,.04,.47,.33,.65,.76,.52,1.25,3.15,8.2,4.08,1.04Z"/>
    <path class="cls-6" d="M69.83,40.07l4.05,5.74c.2,.29,.5,.43,.71,.34,.45-.19,.61-.64,.49-1.33l.46,.86c-2.92,4.5-6.27,8.63-10.04,12.39-1.74-.07-2.95-.82-3.62-2.25-.13-.28-.13-.62,0-.93,1.49-3.66,5.2-13.1,7.95-14.82Z"/>
    <path class="cls-6" d="M118.79,42.28c.69,1.17,1.59,2.11,2.69,2.84-1.97,3.63-4.78,6.43-8.44,8.41l-5.28,1.97c.29-1.79,1.23-2.66,2.82-2.61,5.16,.13,3.48-3.24,4.64-5.95,.8-1.86,1.99-3.41,3.57-4.66Z"/>
    <path class="cls-14" d="M96.8,50.34c-.93,7.16-3.56,.21-4.08-1.04-.18-.43-.43-.72-.65-.76-.89-.15-.99-.48-.31-.98,.06-.01,.5,.09,1.03,.25l2.93,.86c.72,.21,1.18,.92,1.08,1.67Z"/>
  </g>
</svg>