<?xml version="1.0" encoding="UTF-8"?>
<svg id="Layer_2" data-name="Layer 2" xmlns="http://www.w3.org/2000/svg" viewBox="0 0 180.86 91.47">
  <defs>
    <style>
      .cls-1 {
        fill: #a9a09a;
      }

      .cls-2 {
        fill: #d1cbcc;
      }

      .cls-3 {
        fill: #d5b9a4;
      }

      .cls-4 {
        fill: #a4a5a2;
      }

      .cls-5 {
        fill: #8f9697;
      }

      .cls-6 {
        fill: #e4d3c5;
      }

      .cls-7 {
        fill: #aeaaa5;
      }

      .cls-8 {
        fill: #d5c8bc;
      }

      .cls-9 {
        fill: #758ba1;
      }

      .cls-10 {
        fill: #cebaab;
      }

      .cls-11 {
        fill: #ece5e7;
      }

      .cls-12 {
        fill: #dec1ae;
      }

      .cls-13 {
        fill: #758790;
      }

      .cls-14 {
        fill: #c6b6a9;
      }

      .cls-15 {
        fill: #bda89b;
      }

      .cls-16 {
        fill: #c8bfb6;
      }

      .cls-17 {
        fill: #89959c;
      }

      .cls-18 {
        fill: #989491;
      }

      .cls-19 {
        fill: #617e89;
      }

      .cls-20 {
        fill: #cacbd3;
      }

      .cls-21 {
        fill: #9e9f9c;
      }

      .cls-22 {
        fill: #d9cec9;
      }

      .cls-23 {
        fill: #afafaf;
      }

      .cls-24 {
        fill: #e2d5cd;
      }

      .cls-25 {
        fill: #b7bdc7;
      }

      .cls-26 {
        fill: #dad6db;
      }

      .cls-27 {
        fill: #c8bbaf;
      }

      .cls-28 {
        fill: #c1b1a4;
      }

      .cls-29 {
        fill: #b69a8c;
      }

      .cls-30 {
        fill: #d0c3b8;
      }

      .cls-31 {
        fill: #868a8d;
      }
    </style>
  </defs>
  <g id="Layer_1-2" data-name="Layer 1">
    <path class="cls-6" d="M101.52,2.81l.52,3.63c.06,.39,.02,.74-.11,.97l-2.2,4.05c-.23,.43-.3,.85-.16,1.03,.89,1.17,2.09,1.72,3.62,1.63,.41-.03,.76,.07,.96,.26,1.09,1.02,2.28,1.24,3.58,.65,.27-.12,.44-.46,.43-.85-.05-1.67,.59-3.09,1.92-4.26,.81,.8,2.09,.62,3.86-.54,1.67,2.42,3.99,3.67,6.95,3.76,.33,0,.66,.1,.99,.29l10.93,6.26c.58,.33,.83,1.06,.61,1.77-1.23,3.94-2.89,8.02-4.97,12.24-.05,.11-.06,.42-.03,.95-.62-.33-1.29-.5-2-.49-7.39,.03-14.8,.24-22.21,.63-1.18,.06-1.85-.74-2-2.39l-2.5-11.45,2.04-1.05c.26-.14,.35-.49,.21-.8l-2.72-6.01c-.15-.32-.44-.52-.75-.53-4.22-.07-8.41,.19-12.57,.8l-7.02,1.3c-1.21,.22-2.18-.22-2.92-1.32-.71-1.06-1.63-1.89-2.75-2.48-.35-.18-.49-.08-.41,.31,.36,1.85,4.17,3.8,5.6,5.44l-8.2-.38c-3.91,6.29-8.27,12.35-13.09,18.17l-9.4-18.25c1.42-2.39,7.95-4,13.23-5.75l8.74-2.77c.37-.12,.72-.12,.98-.01l4.46,1.85c.26,.11,.61-.03,.88-.34,1.32-1.55,2.71-3,4.16-4.35,2.5-2.34,5.45-2.79,8.62-3.77,4.93-1.52,9.03-1.64,12.72,1.8Z"/>
    <path class="cls-11" d="M101.52,2.81l8.56,7.11c-1.33,1.17-1.97,2.59-1.92,4.26,0,.39-.16,.73-.43,.85-1.3,.59-2.49,.37-3.58-.65-.2-.19-.55-.29-.96-.26-1.53,.09-2.73-.46-3.62-1.63-.14-.18-.07-.6,.16-1.03l2.2-4.05c.13-.23,.17-.58,.11-.97l-.52-3.63Z"/>
    <path class="cls-11" d="M113.94,9.38l6.66,1.04c9.41,5.15,18.19,11.24,26.32,18.27-.73,3.3-.88,6.62-.46,9.96-.03,1.04-.55,1.37-1.54,1-6.06-2.27-11.56-3.93-16.5-5-.03-.53-.02-.84,.03-.95,2.08-4.22,3.74-8.3,4.97-12.24,.22-.71-.03-1.44-.61-1.77l-10.93-6.26c-.33-.19-.66-.28-.99-.29-2.96-.09-5.28-1.34-6.95-3.76Z"/>
    <path class="cls-28" d="M85.92,13.36c.65,2.87,.43,5.68-.65,8.41l-1.81-3.24c-.18-.32-.42-.55-.68-.63l-4.36-1.29c-1.43-1.64-5.24-3.59-5.6-5.44-.08-.39,.06-.49,.41-.31,1.12,.59,2.04,1.42,2.75,2.48,.74,1.1,1.71,1.54,2.92,1.32l7.02-1.3Z"/>
    <path class="cls-16" d="M99.71,20.95c-2.23,2.53-4.5,3.77-6.8,3.73-1.85-.03-3.05,.16-3.61,.57-2.32-.47-3.66-1.63-4.03-3.48,1.08-2.73,1.3-5.54,.65-8.41,4.16-.61,8.35-.87,12.57-.8,.31,0,.6,.21,.75,.53l2.72,6.01c.14,.31,.05,.66-.21,.8l-2.04,1.05Z"/>
    <path class="cls-24" d="M78.42,16.61l4.36,1.29c.26,.08,.5,.31,.68,.63l1.81,3.24c.37,1.85,1.71,3.01,4.03,3.48,3.07,2.07,4.72,4.88,4.93,8.45,.21,3.38,.32,5.17,.35,5.37,.67,4.18,2.35,11.21-2.92,10.99l-21.44-33.83,8.2,.38Z"/>
    <path class="cls-12" d="M47.73,16.15l9.4,18.25,.03,.64-12.44,12.46c-.23,.23-.51,.37-.79,.4-.53,.05-.95-.11-1.27-.5-.09-.11-.23-.14-.33-.08-.02,.02-.04,.04-.05,.07-.43,.89-.48,1.81-.15,2.76h-1.42l.63-4.53c.23-4.96-.08-9.92-.94-14.88-.06-.32-.23-.61-.48-.8-6.69-5.07-13.33-2-20.53-.17-.33,.09-.67,.08-1.04-.03-1.46-.4-2.6-.01-3.43,1.16-.5,.7-.07,2.18,1.28,4.45,1.79,2.98,3.29,6.22,4.52,9.71l-.09,.59c-5.04,.67-9.11,1.67-12.21,3-1.67,.72-3,.98-4,.79l-.29-1.54c3.13-4.12,5.76-8.54,7.87-13.26,.58-1.29,.19-2.24-.58-3.28,1.78-1.73,3.08-3.39,5.65-3.95,6.33-1.37,12.95-3.02,19.39-1.79,.3,.06,.61-.04,.85-.25l10.42-9.22Z"/>
    <path class="cls-22" d="M70.22,16.23l21.44,33.83-21.24,7.88-.75-.58-12.51-22.32-.03-.64c4.82-5.82,9.18-11.88,13.09-18.17Z"/>
    <path class="cls-23" d="M99.71,20.95l2.5,11.45c-2.02,4.78-2.64,9.73-4.83,14.41-1.22,2.61-1.96,5.37-2.21,8.3l-.96,.54c-.6-.48-.85-.31-.75,.5,.57,4.77,1.28,9.5,2.14,14.18,.14,.76-.21,1.52-.86,1.86l-11.23,6.05-12.88-19.84-.21-.46,21.24-7.88c5.27,.22,3.59-6.81,2.92-10.99-.03-.2-.14-1.99-.35-5.37-.21-3.57-1.86-6.38-4.93-8.45,.56-.41,1.76-.6,3.61-.57,2.3,.04,4.57-1.2,6.8-3.73Z"/>
    <path class="cls-6" d="M41.34,45.62l-20.62-.56c-1.23-3.49-2.73-6.73-4.52-9.71-1.35-2.27-1.78-3.75-1.28-4.45,.83-1.17,1.97-1.56,3.43-1.16,.37,.11,.71,.12,1.04,.03,7.2-1.83,13.84-4.9,20.53,.17,.25,.19,.42,.48,.48,.8,.86,4.96,1.17,9.92,.94,14.88Z"/>
    <path class="cls-27" d="M158.74,28.46c-3.57,4.05-6.59,8.49-9.05,13.32-.51,1.01-.29,1.85,.63,2.41l14.12,10.24c.23,.17,.42,.44,.54,.77,.3,.82,.95,1.21,1.94,1.16l.25,.25-23.27,.23c-.74-5.47,2.56-11.25,2.93-16.64l-.37-1.55c-.42-3.34-.27-6.66,.46-9.96,4.28-.59,7.06-2.37,11.82-.23Z"/>
    <path class="cls-24" d="M158.74,28.46c3.8,.87,7.34,1.28,10.34,3.93,3.15,2.79,6.17,5.71,9.08,8.77l-1.82,1.27c-.36,.25-.62,.49-.68,.62-2.08,4.91-4.66,9.54-7.74,13.89l-.5-.08-.25-.25-.25-.25c-.13-4.38-1.09-8.6-2.88-12.66-.12-.27-.39-.46-.7-.47-4.31-.11-8.65,.21-13.02,.96-.92-.56-1.14-1.4-.63-2.41,2.46-4.83,5.48-9.27,9.05-13.32Z"/>
    <path class="cls-3" d="M11.42,31.36c.77,1.04,1.16,1.99,.58,3.28-2.11,4.72-4.74,9.14-7.87,13.26-.31-1.66-1.11-2.99-2.42-4,.19-2.81,1.26-5.13,3.21-6.96l6.5-5.58Z"/>
    <path class="cls-27" d="M102.21,32.4c.15,1.65,.82,2.45,2,2.39,7.41-.39,14.82-.6,22.21-.63,.71,0,1.38,.16,2,.49l-.75,21.46-32.5-1c.25-2.93,.99-5.69,2.21-8.3,2.19-4.68,2.81-9.63,4.83-14.41Z"/>
    <path class="cls-26" d="M128.42,34.65c4.94,1.07,10.44,2.73,16.5,5,.99,.37,1.51,.04,1.54-1l.37,1.55c-3.59,3.39-7.31,6.57-11.18,9.52-2.42,1.85-4.46,4.61-7.23,6.47h-.5l-.25-.08,.75-21.46Z"/>
    <path class="cls-14" d="M57.16,35.04l12.51,22.32c-1.72,.79-23.84-5.81-27.46-6.71l-.08-.5c-.33-.95-.28-1.87,.15-2.76,.05-.1,.18-.13,.3-.06,.03,.02,.06,.04,.08,.07,.32,.39,.74,.55,1.27,.5,.28-.03,.56-.17,.79-.4l12.44-12.46Z"/>
    <path class="cls-20" d="M146.83,40.2c-.37,5.39-3.67,11.17-2.93,16.64l.18,5.09c-5.53-1.07-10.75-2.99-15.66-5.74,2.77-1.86,4.81-4.62,7.23-6.47,3.87-2.95,7.59-6.13,11.18-9.52Z"/>
    <path class="cls-2" d="M178.16,41.16c.03,.89,.22,1.64,.55,2.24l2.1,8.27c.08,.32,.06,.66-.06,.95l-4.39,10.04-2.44-1.55-6-4.17c3.08-4.35,5.66-8.98,7.74-13.89,.06-.13,.32-.37,.68-.62l1.82-1.27Z"/>
    <path class="cls-8" d="M166.92,56.36c-.99,.05-1.64-.34-1.94-1.16-.12-.33-.31-.6-.54-.77l-14.12-10.24c4.37-.75,8.71-1.07,13.02-.96,.31,.01,.58,.2,.7,.47,1.79,4.06,2.75,8.28,2.88,12.66Z"/>
    <path class="cls-29" d="M1.71,43.9c1.31,1.01,2.11,2.34,2.42,4l.29,1.54,.29,.71-.95,1.15c-.17,.21-.27,.53-.28,.91l-.1,17.19c-1.23-1.64-2.07-3.47-2.5-5.5-.23-3.62-1.09-7.3-.83-10.69,.24-3.15,.79-6.26,1.66-9.31Z"/>
    <path class="cls-30" d="M20.72,45.06l20.62,.56-.63,4.53c.41,4.13,1.86,8.11,4.35,11.94l-23.14,.77c-.47-.2-1.11-15.34-1.29-17.21l.09-.59Z"/>
    <path class="cls-10" d="M20.63,45.65c.18,1.87,.82,17.01,1.29,17.21h-.75L4.71,50.15l-.29-.71c1,.19,2.33-.07,4-.79,3.1-1.33,7.17-2.33,12.21-3Z"/>
    <path class="cls-15" d="M4.71,50.15l16.46,12.71-.25,.25-17,7.83-.54-1.54,.1-17.19c0-.38,.11-.7,.28-.91l.95-1.15Z"/>
    <path class="cls-31" d="M40.71,50.15h1.42l.08,.5,14.66,26.71c.12,.42,.64,.61,1.55,.58-.23,.03-.4,.11-.51,.23-.16,.16-.11,.48,.13,.7,.01,.01,.03,.03,.04,.04,4.5,3.82,8.63,8.01,12.4,12.56l-16.6-6.07c-.29-1.23,0-2.18,.86-2.84,.25-.19,.34-.49,.22-.7l-4.91-8.04c-.19-.3-.45-.48-.64-.44-1.01,.22-1.61-.17-1.8-1.17-.05-.29-.33-.51-.68-.56-.25-.03-.48-.01-.7,.06-.17,.06-.15,.38,.05,.72,.02,.04,.05,.08,.08,.12,2.6,3.57-1.12,4.94-3.94,6.06-.11-.76,.01-1.47,.36-2.12,2.5-4.73,4.33-8.75,2.28-14.4-2.49-3.83-3.94-7.81-4.35-11.94Z"/>
    <path class="cls-1" d="M42.21,50.65c3.62,.9,25.74,7.5,27.46,6.71l.75,.58,.21,.46h-.32c-.15-.02-.33,.12-.47,.35-3.98,6.43-8.3,12.64-12.97,18.61l-14.66-26.71Z"/>
    <path class="cls-21" d="M95.17,55.11l32.5,1,.25,.08v18.42l-.75,.66-23.44-.91c-.32-.01-.6-.19-.74-.47l-8.78-18.24,.96-.54Z"/>
    <path class="cls-19" d="M94.21,55.65l8.78,18.24c.14,.28,.42,.46,.74,.47l23.44,.91c2,1.07,3.46,2.6,4.39,4.57,.68,1.45,1.44,1.49,2.27,.13,1.76-2.86,3.81-5.23,6.14-7.12,2.62-2.12,3.38-3.9,4.2-6.91,.27-.59,.64-1.04,1.13-1.36,.19-.13,.45-.06,.59,.15,.02,.02,.03,.05,.04,.08,.78,1.83,1.86,3.46,3.24,4.88,2.27,2.04,4.75,3.81,7.44,5.3,.62,.35,1.37,.34,1.97-.03,5.19-3.15,10.22-6.67,15.11-10.56,.78-.61,.76-1.2-.07-1.77-.28-.2-.42-.51-.33-.76,.11-.33,.32-.58,.63-.76l2.44,1.55c-.31,2.29-.93,4.46-1.87,6.49-.23,.5-.72,.93-1.36,1.21l-8.71,3.75c-2.03,.92-9.04,4.18-11.42,3.38-4.68-1.57-8.48-2.97-11.41-4.22-.32-.14-.68-.06-.88,.18l-5.53,6.98c-1.06,1.34-2.46,2.22-4.19,2.64-5.11,1.23-10.04,2.43-14.77,3.59-4.34,1.06-14.85-3.1-19.33-4.47-.46-.14-.94-.13-1.38,.03l-25.03,9.25c-3.77-4.55-7.9-8.74-12.4-12.56-.25-.21-.34-.53-.2-.71,0-.01,.02-.02,.03-.03,.11-.12,.28-.2,.51-.23l25.09,.3,11.23-6.05c.65-.34,1-1.1,.86-1.86-.86-4.68-1.57-9.41-2.14-14.18-.1-.81,.15-.98,.75-.5Z"/>
    <path class="cls-25" d="M127.92,56.19h.5c4.91,2.75,10.13,4.67,15.66,5.74,.77,1.21,.63,2.52-.41,3.93-3.75,2.29-15.05,9.54-15.75,8.75v-18.42Z"/>
    <path class="cls-4" d="M167.17,56.61l.25,.25-18.25,12.83c-1.38-1.42-2.46-3.05-3.24-4.88-.1-.23-.35-.35-.56-.27-.02,0-.05,.02-.07,.04-.49,.32-.86,.77-1.13,1.36l-.5-.08c1.04-1.41,1.18-2.72,.41-3.93l-.18-5.09,23.27-.23Z"/>
    <path class="cls-17" d="M167.42,56.86l.5,.08,6,4.17c-.31,.18-.52,.43-.63,.76-.09,.25,.05,.56,.33,.76,.83,.57,.85,1.16,.07,1.77-4.89,3.89-9.92,7.41-15.11,10.56-.6,.37-1.35,.38-1.97,.03-2.69-1.49-5.17-3.26-7.44-5.3l18.25-12.83Z"/>
    <path class="cls-5" d="M70.63,58.4l12.88,19.84-25.09-.3c-.91,.03-1.43-.16-1.55-.58,4.67-5.97,8.99-12.18,12.97-18.61,.14-.23,.32-.37,.47-.36h.32Z"/>
    <path class="cls-7" d="M45.06,62.09c2.05,5.65,.22,9.67-2.28,14.4-.35,.65-.47,1.36-.36,2.12l-1.5,.25-18.12-15.39c-.25-.21-.55-.32-.87-.33l-1.01-.03,.25-.25h.75l23.14-.77Z"/>
    <path class="cls-18" d="M20.92,63.11l1.01,.03c.32,0,.62,.12,.87,.33l18.12,15.39c-.18,.01-.34,.06-.48,.15-.32,.2-.62,.3-.8,.29-6.3-.53-12.78-.6-19.45-.2-1.69,1.85-3.11,4.02-4.26,6.51-4.58-4.43-8.58-9.32-12.01-14.67l17-7.83Z"/>
    <path class="cls-9" d="M143.67,65.86l.5,.08c-.82,3.01-1.58,4.79-4.2,6.91-2.33,1.89-4.38,4.26-6.14,7.12-.83,1.36-1.59,1.32-2.27-.13-.93-1.97-2.39-3.5-4.39-4.57l.75-.66c.7,.79,12-6.46,15.75-8.75Z"/>
    <path class="cls-19" d="M53.88,85.4l-3.27-1.33c-.34-.14-.67-.17-.91-.09-1.36,.49-2.49,1.27-3.86,1.58-5.63,1.31-11.22,2.01-16.76,2.09-2.25-3.31-5.22-6.16-8.89-8.55,6.67-.4,13.15-.33,19.45,.2,.18,.01,.48-.09,.8-.29,.14-.09,.3-.14,.48-.15l1.5-.25c2.82-1.12,6.54-2.49,3.94-6.06-.23-.31-.31-.67-.19-.8,.02-.02,.03-.03,.06-.04,.22-.07,.45-.09,.7-.06,.35,.05,.63,.27,.68,.56,.19,1,.79,1.39,1.8,1.17,.19-.04,.45,.14,.64,.44l4.91,8.04c.12,.21,.03,.51-.22,.7-.87,.66-1.15,1.61-.86,2.84Z"/>
    <path class="cls-13" d="M20.19,79.1c3.67,2.39,6.64,5.24,8.89,8.55l-13.15-2.04c1.15-2.49,2.57-4.66,4.26-6.51Z"/>
  </g>
</svg>