<?xml version="1.0" encoding="UTF-8"?>
<svg id="Layer_2" data-name="Layer 2" xmlns="http://www.w3.org/2000/svg" viewBox="0 0 165.08 77.27">
  <defs>
    <style>
      .cls-1 {
        fill: #696b69;
      }

      .cls-2 {
        fill: #a9a09a;
      }

      .cls-3 {
        fill: #c2b9af;
      }

      .cls-4 {
        fill: #d5b9a4;
      }

      .cls-5 {
        fill: #dfd2c9;
      }

      .cls-6 {
        fill: #95837c;
      }

      .cls-7 {
        fill: #d3c1b1;
      }

      .cls-8 {
        fill: #e4d3c5;
      }

      .cls-9 {
        fill: #aeaaa5;
      }

      .cls-10 {
        fill: #d5c8bc;
      }

      .cls-11 {
        fill: #cfd0dc;
      }

      .cls-12 {
        fill: #e0dbdd;
      }

      .cls-13 {
        fill: #cebaab;
      }

      .cls-14 {
        fill: #ece5e7;
      }

      .cls-15 {
        fill: #dec1ae;
      }

      .cls-16 {
        fill: #66767e;
      }

      .cls-17 {
        fill: #bfc4d4;
      }

      .cls-18 {
        fill: #9e9f9c;
      }

      .cls-19 {
        fill: #8198b1;
      }

      .cls-20 {
        fill: #8d8f91;
      }

      .cls-21 {
        fill: #928c89;
      }

      .cls-22 {
        fill: #d4c6b8;
      }

      .cls-23 {
        fill: #e2d5cd;
      }

      .cls-24 {
        fill: #8e99a4;
      }

      .cls-25 {
        fill: #dad6db;
      }

      .cls-26 {
        fill: #c8bbaf;
      }

      .cls-27 {
        fill: #c1b1a4;
      }

      .cls-28 {
        fill: #b69a8c;
      }

      .cls-29 {
        fill: #d0c3b8;
      }

      .cls-30 {
        fill: #868a8d;
      }

      .cls-31 {
        fill: #9e928a;
      }
    </style>
  </defs>
  <g id="Layer_1-2" data-name="Layer 1">
    <path class="cls-23" d="M113.48,7.19l-.78,.55c-.14,.09-.18,.29-.08,.44,.03,.04,.06,.07,.1,.09,2.81,1.82-3.55,11.29-4.06,12.16l-23.66,.59c-1.31,.03-2.04-.58-2.17-1.85-.43-4.11-1.57-8.44-3.42-12.99,5.01-2.47,10.2-4.5,15.55-6.11,.32-.1,.66-.09,.95,.03l17.57,7.09Z"/>
    <path class="cls-8" d="M70.26,11.72c1.07,8.61,1.53,17.16,1.38,25.66l-.05,4.99-15.39,.27-10.03-17.49-6.24-10.8c-.19-.34-.16-.72,.07-.88l1.77-1.2c.22-.15,.31-.44,.18-.63-.02-.04-.05-.07-.08-.1-.26-.21-.57-.27-.94-.17-1.62,.44-2.44,1.47-2.47,3.09-4.65,1.05-9.17,1.49-13.58,1.31-1.23-1.58-1.57-3.35-1.02-5.32,.08-.27,0-.59-.22-.83l-1.44-1.65,7.79-3.18c.27-.12,.6-.12,.93,0,3.03,.98,6.02,2.07,8.95,3.27,1.56,.64,2.27,1.83,3.47,2.94,.25,.23,.59,.32,.87,.22l12.23-4.06c.4-.13,.75-.15,.99-.07l12.83,4.64Z"/>
    <path class="cls-14" d="M138.74,17.68c-1.92,.81-4.63,4.84-5.79,4.46l-8.1-14.22c-.73-1.29-1.7-1.55-2.9-.79l-2.18,1.38c-.24,.15-.6,.21-1.02,.18-1.37-.13-1.79,.37-1.27,1.49,2.11,4.6,5.01,9.27,8.68,14l1.69,3c-.47,.53-.93,.88-1.4,1.04-1.67-2.46-13.48-6-17.5-7.25l-.29-.54c.51-.87,6.87-10.34,4.06-12.16-.15-.09-.2-.29-.11-.43,.02-.04,.05-.07,.09-.1l.78-.55c3.25,.98,6.28,.44,9.11-1.61,.35-.26,.7-.37,.9-.3l9.53,3.33c.33,.11,.59,.31,.72,.53l5,8.54Z"/>
    <path class="cls-26" d="M79.41,6.18c1.85,4.55,2.99,8.88,3.42,12.99,.13,1.27,.86,1.88,2.17,1.85l23.66-.59,.29,.54-.29,20.21-.25,.5-34.21-.46-2.56-3.84c.15-8.5-.31-17.05-1.38-25.66l.89,.07c.33,.02,.64-.07,.84-.27,2.24-2.11,4.71-3.89,7.42-5.34Z"/>
    <path class="cls-29" d="M132.95,22.14l-1,.58-5.2,.17c-.29,0-.53,.27-.55,.6l-.04,.69c-3.67-4.73-6.57-9.4-8.68-14-.52-1.12-.1-1.62,1.27-1.49,.42,.03,.78-.03,1.02-.18l2.18-1.38c1.2-.76,2.17-.5,2.9,.79l8.1,14.22Z"/>
    <path class="cls-15" d="M22.2,7.97l1.44,1.65c.21,.24,.3,.56,.22,.83-.55,1.97-.21,3.74,1.02,5.32-3.78,.52-7.33,1.82-10.64,3.91-.33-.55-.9-1.06-1.69-1.54-.91-1.03-.72-2.12,.59-3.27,3.51-3.11,6.53-5.41,9.06-6.9Z"/>
    <path class="cls-15" d="M46.17,25.15c-.8-.15-1.23,.15-1.3,.89l-1.67-.23c-.38-.05-.71-.02-.94,.09-2.16,1.07-11.51,5.35-12.4,2.66,3.43-4.42,6.29-9.12,8.6-14.1,.03-1.62,.85-2.65,2.47-3.09,.37-.1,.68-.04,.94,.17,.18,.14,.19,.43,.01,.63-.03,.04-.07,.07-.11,.1l-1.77,1.2c-.23,.16-.26,.54-.07,.88l6.24,10.8Z"/>
    <path class="cls-13" d="M38.46,14.46c-2.31,4.98-5.17,9.68-8.6,14.1l-.66,5.91c-1.04-1.33-1.56-2.83-1.56-4.48,0-.28-.19-.52-.45-.55-.39-.04-.7-.23-.93-.57-.15-.23-.5-.35-.88-.3-1.98,.26-3.62-.44-4.93-2.1,.95-.39,.6-1.18-.08-1.58-2.36-1.37-4.4-3.1-6.13-5.21,3.31-2.09,6.86-3.39,10.64-3.91,4.41,.18,8.93-.26,13.58-1.31Z"/>
    <path class="cls-3" d="M138.74,17.68l.96,1.79c-1.85,2.81-3.67,5.63-5.47,8.46-.84,1.33-4.17,3.09-.07,4.25,4.39,3.33,8.91,6.48,13.56,9.44,1.13,.71,1.55,1.8,2.73,2.56l-23.72,.09c-.05-1.01-.16-1.75,.34-2.65,1.59-2.91,2.39-6.02,2.38-9.33-.01-1.62,.58-2.76,.77-4.35,.03-.28,.24-.52,.54-.64,1.45-.56,2.65-1.47,3.59-2.72,.17-.23,.11-.58-.15-.79-.64-.55-1.39-.9-2.25-1.07l1-.58c1.16,.38,3.87-3.65,5.79-4.46Z"/>
    <path class="cls-28" d="M12.55,18.14c.79,.48,1.36,.99,1.69,1.54,1.73,2.11,3.77,3.84,6.13,5.21,.68,.4,1.03,1.19,.08,1.58-2.36-1.76-5.62,.15-8,1l-.5-.08,.6-9.25Z"/>
    <path class="cls-5" d="M141.86,19.43c-.19,1.1,.12,2.01,.92,2.73,.27,.24,.47,.49,.6,.76l4.03,8.26c-4.16,.77-9.93-1.08-13.25,1-4.1-1.16-.77-2.92,.07-4.25,1.8-2.83,3.62-5.65,5.47-8.46,.84-.27,1.56-.29,2.16-.04Z"/>
    <path class="cls-12" d="M141.86,19.43c3.91,.9,9.51,1.6,12.52,4.34,2.56,2.34,6.92,5.5,7.89,8.91,.91,3.25,1.84,6.5,2.77,9.73,.08,.26,.04,.59-.1,.93l-3.78,9.09-10.21-8.29c-.28-.47-.47-1.31-.56-2.52-.25-3.19-1.25-6.67-2.98-10.44l-4.03-8.26c-.13-.27-.33-.52-.6-.76-.8-.72-1.11-1.63-.92-2.73Z"/>
    <path class="cls-25" d="M108.95,20.97c4.02,1.25,15.83,4.79,17.5,7.25l-1.79,2.21c-5.02,2.99-9.11,7.11-14.02,9.96-.23,.13-.43,.39-.57,.73-.31,.75-.78,.77-1.41,.06l.29-20.21Z"/>
    <path class="cls-31" d="M131.95,22.72c.86,.17,1.61,.52,2.25,1.07,.26,.21,.32,.56,.15,.79-.94,1.25-2.14,2.16-3.59,2.72-.3,.12-.51,.36-.54,.64-.19,1.59-.78,2.73-.77,4.35,0,3.31-.79,6.42-2.38,9.33-.5,.9-.39,1.64-.34,2.65-.64-.03-.73,.35-.28,1.12l-.75,.33c-.42-.35-.58-.7-.49-1.04,1.63-5.71,2.51-11.55,2.64-17.5l-1.69-3,.04-.69c.02-.33,.26-.59,.55-.6l5.2-.17Z"/>
    <path class="cls-27" d="M46.17,25.15l10.03,17.49-24.38,5.88c-1.08-2.53-1.47-5.39-1.17-8.59,.04-.41-.09-.5-.39-.25-.28,.23-.45,.56-.52,1l-.04-4c.19,0,.35,.03,.5,.12,.08,.05,.2,.32,.3,.69l1.13,4.22c.08,.34,.34,.59,.64,.64l1.93,.34c.27,.05,.57-.12,.76-.43l9.91-16.22c.07-.74,.5-1.04,1.3-.89Z"/>
    <path class="cls-8" d="M20.45,26.47c1.31,1.66,2.95,2.36,4.93,2.1,.38-.05,.73,.07,.88,.3,.23,.34,.54,.53,.93,.57,.26,.03,.45,.27,.45,.55,0,1.65,.52,3.15,1.56,4.48l.5,2.21c-1.99-.31-13.68-.29-14-.54l-3.77-7.02c-.14-.27-.13-.6,.03-.86l.49-.79c2.38-.85,5.64-2.76,8-1Z"/>
    <path class="cls-4" d="M44.87,26.04l-9.91,16.22c-.19,.31-.49,.48-.76,.43l-1.93-.34c-.3-.05-.56-.3-.64-.64l-1.13-4.22c-.1-.37-.22-.64-.3-.69-.15-.09-.31-.13-.5-.12l-.5-2.21,.66-5.91c.89,2.69,10.24-1.59,12.4-2.66,.23-.11,.56-.14,.94-.09l1.67,.23Z"/>
    <path class="cls-17" d="M127.85,27.18c-.13,5.95-1.01,11.79-2.64,17.5-.09,.34,.07,.69,.49,1.04,1.05,2.23,1.33,4.47,.85,6.74l-17.34,8.84c-.16,.08-.35,.07-.51-.02l-.25-.14,.29-18.96,.51-.03c.38-.03,.69,.01,.87,.12l10.78,6.26c.32,.18,.69,.22,1.01,.11,1.06-.4,.82-1.39,.42-2.33-.58-1.33-.43-2.85,.44-4.55,1.23-2.4,1.86-6.18,1.89-11.33l1.79-2.21c.47-.16,.93-.51,1.4-1.04Z"/>
    <path class="cls-7" d="M11.95,27.39l.5,.08-.49,.79c-.16,.26-.17,.59-.03,.86l3.77,7.02-.29,.29c-4.13,.77-8.12,2.03-11.96,3.79l-.54-1.04c2.58-5.87,2.48-8.94,9.04-11.79Z"/>
    <path class="cls-11" d="M124.66,30.43c-.03,5.15-.66,8.93-1.89,11.33-.87,1.7-1.02,3.22-.44,4.55,.4,.94,.64,1.93-.42,2.33-.32,.11-.69,.07-1.01-.11l-10.78-6.26c-.18-.11-.49-.15-.87-.12l-.51,.03-.33-.5,.25-.5c.63,.71,1.1,.69,1.41-.06,.14-.34,.34-.6,.57-.73,4.91-2.85,9-6.97,14.02-9.96Z"/>
    <path class="cls-10" d="M147.41,31.18c1.73,3.77,2.73,7.25,2.98,10.44,.09,1.21,.28,2.05,.56,2.52l-.5,.04c-1.18-.76-1.6-1.85-2.73-2.56-4.65-2.96-9.17-6.11-13.56-9.44,3.32-2.08,9.09-.23,13.25-1Z"/>
    <path class="cls-22" d="M15.7,36.14c.32,.25,12.01,.23,14,.54l.04,4,.03,5.81c-1.88,.99-3.99,1.65-6.32,1.98l-1.19-.06c-.27-.01-.54-.2-.7-.5l-6.15-11.48,.29-.29Z"/>
    <path class="cls-13" d="M15.41,36.43l6.15,11.48c.16,.3,.43,.49,.7,.5l1.19,.06-2,.25-11.75-.08c-2.44-2.55-4.52-5.35-6.25-8.42,3.84-1.76,7.83-3.02,11.96-3.79Z"/>
    <path class="cls-30" d="M71.64,37.38l2.56,3.84c1.28,2.96,8.01,18.62,10.25,19.42-.15,.09-.24,.22-.28,.39-.05,.2,.09,.51,.37,.81l10.29,11.2c.45,.48,1.19,.53,1.65,.1,.01-.01,.02-.02,.04-.04,2.09-2.07,8.48-8.87,11.4-9.6,.33-.08,.58-.31,.64-.58,.07-.41,.04-.81-.11-1.2l5.05,7.7c.21,.32,.1,.76-.25,.98-.09,.06-.19,.09-.29,.11-4.63,.78-9.19,2.08-13.68,3.89-1.45,.59-1.26,1.59-.92,2.87-8.56-1.31-17.2-3.52-25.92-6.63-2.32-.83-4.62-.79-6.91,.11-2.65,1.05-8.41,3.65-11.83,2.82-5.67-1.37-11.2-3.23-16.58-5.57-1.22-.53-2.44-.46-3.66,.21-.31,.17-.53,.4-.68,.69-.14,.31-.38,.52-.64,.57-4.14,.8-9.38,2.42-13.44,.75,.9-1.03,1.33-2.5,1.29-4.41-.01-.47,.3-.89,.76-1.01,3.39-.89,6.47-2.35,9.24-4.37,2.13-.13,3.3-1.21,3.5-3.25,.69,.91,.59,1.81-.31,2.7-.23,.23-.28,.56-.12,.73,1.27,1.31,1.8,2.91,1.59,4.82-.03,.25,.12,.56,.39,.84,2.02,2.07,2.32-1.03,1.98-2.26-.65-2.37-.87-4.8-.66-7.31,.03-.31-.1-.62-.33-.83-1.71-1.59-2.74-3.56-3.08-5.9l10.68,8.47c1.31,1.04,2.4,.87,3.27-.52,2.55-4.05,7.13-9.88,8.49-14.21,.09-.3,.36-.5,.63-.47,2.03,.22,9.67,13.78,11.18,16.23-6.49,.52-13,.65-19.51,.38-1.59-.07-1.84,.45-.75,1.56l9.69,9.84c.2,.2,.53,.19,.73-.02,.03-.03,.05-.05,.07-.08,2.23-3.29,4.85-6.26,7.86-8.89,1.15-1.01,2.45-1.61,3.89-1.78,7.4-.89-3.5,10.82,2.95,8.61,1.67-.57,2.52-1.7,2.57-3.4,.1-3.26-.37-5.67,.33-9.11,.51-2.49,.3-4.99-.63-7.51-.09-.23-.33-.35-.54-.27-.03,0-.05,.02-.08,.04-.87,.56-1.16,1.42-.87,2.59l-.75-1.75-.57-7.31,.05-4.99Z"/>
    <path class="cls-28" d="M2.91,39.18l.54,1.04c1.73,3.07,3.81,5.87,6.25,8.42l-.5,.5-5.46,6.04-1,.5C.81,52.18-.1,48.44,0,44.47l2.9-5.29Z"/>
    <path class="cls-1" d="M31.82,48.52l1.13,1.45c.34,2.34,1.37,4.31,3.08,5.9,.23,.21,.36,.52,.33,.83-.21,2.51,0,4.94,.66,7.31,.34,1.23,.04,4.33-1.98,2.26-.27-.28-.42-.59-.39-.84,.21-1.91-.32-3.51-1.59-4.82-.16-.17-.11-.5,.12-.73,.9-.89,1-1.79,.31-2.7l-3.72-10.69-.03-5.81c.07-.44,.24-.77,.52-1,.3-.25,.43-.16,.39,.25-.3,3.2,.09,6.06,1.17,8.59Z"/>
    <path class="cls-18" d="M74.2,41.22l34.21,.46,.33,.5-.29,18.96-.5,.33-23.5-.83c-2.24-.8-8.97-16.46-10.25-19.42Z"/>
    <path class="cls-2" d="M71.59,42.37l.57,7.31c-1.07,2.28-3.82,7.82-2.96,9.21l-2,.58c-1.51-2.45-9.15-16.01-11.18-16.23-.27-.03-.54,.17-.63,.47-1.36,4.33-5.94,10.16-8.49,14.21-.87,1.39-1.96,1.56-3.27,.52l-10.68-8.47-1.13-1.45,24.38-5.88,15.39-.27Z"/>
    <path class="cls-18" d="M126.73,44.27l23.72-.09c-.51,.7-.87,1.57-1.63,2.04-5.64,3.57-11.17,7.3-16.58,11.21-2.23-3.86-4.16-7.87-5.79-12.04-.45-.77-.36-1.15,.28-1.12Z"/>
    <path class="cls-24" d="M150.45,44.18l.5-.04,10.21,8.29c-.61,.19-1.39,.42-2.3,.65-.33,.08-.57,.13-.6,.14-4.95,3.05-10.26,6.3-14.61,10.15-.61,.53-1.31,.96-2.12,1.29l-9.29-7.23c5.41-3.91,10.94-7.64,16.58-11.21,.76-.47,1.12-1.34,1.63-2.04Z"/>
    <path class="cls-16" d="M126.45,45.39c1.63,4.17,3.56,8.18,5.79,12.04l9.29,7.23-11.1-.19c-.27,0-.61-.11-1.01-.3l-5.67-2.8c-.29-.14-.47-.42-.46-.71l.03-1.27,3.23-6.93c.48-2.27,.2-4.51-.85-6.74l.75-.33Z"/>
    <path class="cls-9" d="M29.77,46.49l3.72,10.69c-.2,2.04-1.37,3.12-3.5,3.25l-6.6-10.76c-.18-.29-.44-.5-.72-.59l-1.22-.36,2-.25c2.33-.33,4.44-.99,6.32-1.98Z"/>
    <path class="cls-21" d="M9.7,48.64l11.75,.08,1.22,.36c.28,.09,.54,.3,.72,.59l6.6,10.76c-2.77,2.02-5.85,3.48-9.24,4.37-.46,.12-.77,.54-.76,1.01,.04,1.91-.39,3.38-1.29,4.41-3.98-1.01-6.58-2.09-7.81-3.23-1.8-1.67-4.52-5.44-8.15-11.31l1-.5c2.33,3.67,8.99,6.65,12.61,9.42,.25,.19,.58,.21,.8,.03,1.45-1.18-5.42-12.76-6.43-14.81-.18-.37-.45-.61-.7-.63l-.82-.05,.5-.5Z"/>
    <path class="cls-16" d="M67.2,59.47l2-.58c1.56-.04,2.79-.64,3.7-1.8,.22-.27,.33-.59,.31-.9l-.3-4.76c-.29-1.17,0-2.03,.87-2.59,.19-.12,.45-.06,.58,.15,.02,.03,.03,.05,.04,.08,.93,2.52,1.14,5.02,.63,7.51-.7,3.44-.23,5.85-.33,9.11-.05,1.7-.9,2.83-2.57,3.4-6.45,2.21,4.45-9.5-2.95-8.61-1.44,.17-2.74,.77-3.89,1.78-3.01,2.63-5.63,5.6-7.86,8.89-.16,.24-.48,.32-.72,.16-.03-.02-.06-.04-.08-.06l-9.69-9.84c-1.09-1.11-.84-1.63,.75-1.56,6.51,.27,13.02,.14,19.51-.38Z"/>
    <path class="cls-6" d="M9.2,49.14l.82,.05c.25,.02,.52,.26,.7,.63,1.01,2.05,7.88,13.63,6.43,14.81-.22,.18-.55,.16-.8-.03-3.62-2.77-10.28-5.75-12.61-9.42l5.46-6.04Z"/>
    <path class="cls-20" d="M72.16,49.68l.75,1.75,.3,4.76c.02,.31-.09,.63-.31,.9-.91,1.16-2.14,1.76-3.7,1.8-.86-1.39,1.89-6.93,2.96-9.21Z"/>
    <path class="cls-19" d="M126.55,52.46l-3.23,6.93c-2.17,4.18-6.25,11.19-10.99,12.69-4.61,1.46-9.26,3.19-13.97,5.19-.34-1.28-.53-2.28,.92-2.87,4.49-1.81,9.05-3.11,13.68-3.89,.41-.07,.7-.43,.64-.82-.01-.1-.05-.19-.1-.27l-5.05-7.7-.5-.25,.5-.33,.25,.14c.16,.09,.35,.1,.51,.02l17.34-8.84Z"/>
    <path class="cls-16" d="M84.45,60.64l23.5,.83,.5,.25c.15,.39,.18,.79,.11,1.2-.06,.27-.31,.5-.64,.58-2.92,.73-9.31,7.53-11.4,9.6-.45,.45-1.19,.44-1.65-.02-.01-.01-.02-.03-.04-.04l-10.29-11.2c-.28-.3-.42-.61-.37-.81,.04-.17,.13-.3,.28-.39Z"/>
  </g>
</svg>