<?xml version="1.0" encoding="UTF-8"?>
<svg id="Layer_2" data-name="Layer 2" xmlns="http://www.w3.org/2000/svg" viewBox="0 0 148.33 83.67">
  <defs>
    <style>
      .cls-1 {
        fill: #a9a09a;
      }

      .cls-2 {
        fill: #deccbd;
      }

      .cls-3 {
        fill: #c2b9af;
      }

      .cls-4 {
        fill: #95837c;
      }

      .cls-5 {
        fill: #717e86;
      }

      .cls-6 {
        fill: #e4d3c5;
      }

      .cls-7 {
        fill: #aeaaa5;
      }

      .cls-8 {
        fill: #d5c8bc;
      }

      .cls-9 {
        fill: #e0dbdd;
      }

      .cls-10 {
        fill: #cebaab;
      }

      .cls-11 {
        fill: #dec1ae;
      }

      .cls-12 {
        fill: #c6b6a9;
      }

      .cls-13 {
        fill: #66767e;
      }

      .cls-14 {
        fill: #97999e;
      }

      .cls-15 {
        fill: #a29992;
      }

      .cls-16 {
        fill: #48565f;
      }

      .cls-17 {
        fill: #b2a79e;
      }

      .cls-18 {
        fill: #58646c;
      }

      .cls-19 {
        fill: #989491;
      }

      .cls-20 {
        fill: #a6a6aa;
      }

      .cls-21 {
        fill: #8d8f91;
      }

      .cls-22 {
        fill: #afafaf;
      }

      .cls-23 {
        fill: #858585;
      }

      .cls-24 {
        fill: #b39181;
      }

      .cls-25 {
        fill: #827972;
      }

      .cls-26 {
        fill: #5d6f79;
      }

      .cls-27 {
        fill: #e2d5cd;
      }

      .cls-28 {
        fill: #c8bbaf;
      }

      .cls-29 {
        fill: #ddd3d1;
      }

      .cls-30 {
        fill: #c1b1a4;
      }

      .cls-31 {
        fill: #b69a8c;
      }

      .cls-32 {
        fill: #cbc2bd;
      }
    </style>
  </defs>
  <g id="Layer_1-2" data-name="Layer 1">
    <path class="cls-27" d="M111.01,19.42l-.52,1.56c-1.67,3.56-2.42,6.24-2.27,8.04,.09,1.11-.04,2.06-.4,2.85-.18,.4-.65,.58-1.05,.39-.11-.05-.21-.12-.29-.21l-6.03-7.03-5.29-13.02c-.2-.51-.73-.85-1.33-.84l-15.59,.07c-1.96-.77-3.3-2.12-4.02-4.05-.12-.3-.33-.55-.61-.7l-2.22-1.21c4.94-2.05,9.98-3.79,15.12-5.21,.31-.08,.65-.08,.96,.02,3.38,1.07,6.72,2.23,10.02,3.46,4.07,1.52,6.99,4.84,10.2,7.66,2.63,2.31,2.97,4.97,3.32,8.22Z"/>
    <path class="cls-11" d="M71.39,5.27l2.22,1.21c.28,.15,.49,.4,.61,.7,.72,1.93,2.06,3.28,4.02,4.05-4.01,1.27-7.94,2.76-11.77,4.49-1.89,.85,.29-4.37,.23-5.45l4.69-5Z"/>
    <path class="cls-2" d="M63.86,13.26l-1.33,4.51c-.15,1.47,.47,2.21,1.88,2.23-1.37,1.89-3.07,3.03-5.1,3.41-2.52,.47-10.67,1.96-12.11,3.86l-1.46,.96-2.25-.67c.92-.21,1.66-.66,2.23-1.37,2.56-3.17,6.78-5.85,9.91-8.6,.32-.28,.66-.42,.87-.36,1.06,.29,1.45,0,1.18-.88-.06-.21-.44-.35-.91-.35-5.02,.03-10.22-.28-14.87,1.43-2.55,.93-5.02,2.06-7.41,3.38-.57-.53-1.52-.9-2.83-1.13,3.23-3.39,6.78-6.43,10.64-9.12,7.22-5.02,15.17-2.04,21.56,2.7Z"/>
    <path class="cls-3" d="M66.7,10.27c.06,1.08-2.12,6.3-.23,5.45,3.83-1.73,7.76-3.22,11.77-4.49l15.59-.07c.6,0,1.13,.33,1.33,.84l5.29,13.02c-8.79,.34-17.46-.37-26.21-.21-4.43-1.52-7-5.32-11.71-7.04l1.33-4.51,2.84-2.99Z"/>
    <path class="cls-10" d="M43.49,27.56c-3.25-1.93-6.25-4.18-9-6.75,2.39-1.32,4.86-2.45,7.41-3.38,4.65-1.71,9.85-1.4,14.87-1.43,.47,0,.85,.14,.91,.35,.27,.88-.12,1.17-1.18,.88-.21-.06-.55,.08-.87,.36-3.13,2.75-7.35,5.43-9.91,8.6-.57,.71-1.31,1.16-2.23,1.37Z"/>
    <path class="cls-25" d="M62.53,17.77c4.71,1.72,7.28,5.52,11.71,7.04l.75,1.67c-.51,1.11-.5,2.23,.02,3.34,.17,.37,.19,.73,.04,.91-.13,.15-.31,.26-.56,.33-3.77-3.73-5.09-7.91-10.08-11.06-1.41-.02-2.03-.76-1.88-2.23Z"/>
    <path class="cls-9" d="M136.93,33.3l-1.23,6.97c-.67,2.12-1.7,1.05-2.35-.06-2.5-4.25-4.84-8.32-7.01-12.21-.54-.96-1.41-1.45-2.6-1.48l-9.5-.22c-.93-.02-1.04-.39-.32-1.1l1.65-1.61c.43-.42,.67-.64,.73-.67,1.11-.41,2-1.14,2.66-2.2,.11-.18,.05-.42-.14-.53-.03-.02-.06-.03-.09-.04-.89-.3-1.64-.96-2.25-1.99,3.31,.31,6.48,1.11,9.52,2.38,3.1,1.3,10.1,9.59,10.93,12.76Z"/>
    <path class="cls-32" d="M116.48,18.16c.61,1.03,1.36,1.69,2.25,1.99,.21,.07,.33,.29,.27,.49,0,.03-.02,.06-.04,.08-.66,1.06-1.55,1.79-2.66,2.2-.06,.03-.3,.25-.73,.67l-1.65,1.61c-.72,.71-.61,1.08,.32,1.1l9.5,.22c1.19,.03,2.06,.52,2.6,1.48,2.17,3.89,4.51,7.96,7.01,12.21,.65,1.11,1.68,2.18,2.35,.06l.08,.75c.01,.2-.03,.35-.13,.44-.2,.19-.33,.38-.32,.49,.09,2.05-.94,2.98-3.09,2.78l1.19-.46c.49-.19,.77-.33,.84-.41,.84-.96,.49-1.59-1.05-1.89-4.41-2.39-9.05-4.15-13.92-5.29l-1.06-.45c-1.63-3.73-3.79-7.13-6.46-10.21-1.54-1.88,.62-4.73-1.29-5.04l.52-1.56c1.99,.35,3.81-.07,5.47-1.26Z"/>
    <path class="cls-31" d="M34.49,20.81c2.75,2.57,5.75,4.82,9,6.75l2.25,.67c-1.23,1.35-2.74,2.28-4.54,2.79-1.34,.91-2.31,.66-2.92-.75-2.67-2.11-4.93-4.48-6.78-7.12,1.03-.93,1.08-2.09,.16-3.47,1.31,.23,2.26,.6,2.83,1.13Z"/>
    <path class="cls-6" d="M64.41,20c4.99,3.15,6.31,7.33,10.08,11.06,2.58,3.93,5.49,7.43,8.72,10.52,1.23,.8,1.76,1.86,1.57,3.19l-1.23,7.34-4.82-4.77-7.11-16.07c-.13-.29-.38-.48-.63-.47-6.85,.35-13.68,.13-20.5-.66-.37-.05-.69-.19-.9-.41l-2.39-2.46c1.44-1.9,9.59-3.39,12.11-3.86,2.03-.38,3.73-1.52,5.1-3.41Z"/>
    <path class="cls-7" d="M110.49,20.98c1.91,.31-.25,3.16,1.29,5.04,1.11,2.8-5.45,9.11-1.29,10.54l-.45,.63-2.83-1.75c-.25-.16-.6-.17-.94-.03l-9.32,3.61-6.54,2.86-14.16-14.95c-.23-.24-.51-.39-.79-.41l-.47-.04-.75-1.67c8.75-.16,17.42,.55,26.21,.21l6.03,7.03c.29,.34,.8,.38,1.13,.1,.09-.08,.16-.17,.21-.28,.36-.79,.49-1.74,.4-2.85-.15-1.8,.6-4.48,2.27-8.04Z"/>
    <path class="cls-6" d="M31.5,23.15c1.85,2.64,4.11,5.01,6.78,7.12l.6,3.04-19.05,.53c-5.74,1.07-11.19,3.14-16.34,6.22l-.75-.25c-.14-1.62,.06-3.23,.59-4.82,.1-.3,.3-.56,.57-.75,5.44-3.75,21-16.45,27.6-11.09Z"/>
    <path class="cls-17" d="M111.78,26.02c2.67,3.08,4.83,6.48,6.46,10.21l-7.75,.33c-4.16-1.43,2.4-7.74,1.29-10.54Z"/>
    <path class="cls-19" d="M74.99,26.48l.47,.04c.28,.02,.56,.17,.79,.41l14.16,14.95-3.25,9.17c-.12,.35-.12,.68-.01,.94,.32,.74,.94,1.11,1.85,1.12,.78,1.34,1.7,2.38,2.76,3.13,5.43,3.84,10.92,7.59,16.48,11.24l-.75,.33-15.1-.47c-.66-.02-1.23-.44-1.42-1.04-1.44-4.45-2.52-10.2-5.03-14.07-.19-.29-.51-.41-.73-.27,0,0-.01,0-.02,.01-.26,.19-.34,.54-.24,1.05-.17,.25-.35,.39-.52,.42-.5,.09-.52-.07-.06-.48,.81-.72,.53-1-.82-.85l1.23-7.34c1.09,.15,1.96-.16,2.61-.93,.19-.22,.51-.34,.86-.31,.28,.03,.51-.08,.69-.33,.14-.19,0-.46-.31-.61-.08-.04-.18-.07-.27-.09l-5.15-.92c-3.23-3.09-6.14-6.59-8.72-10.52,.25-.07,.43-.18,.56-.33,.15-.18,.13-.54-.04-.91-.52-1.11-.53-2.23-.02-3.34Z"/>
    <path class="cls-8" d="M47.2,27.27l2.39,2.46c.21,.22,.53,.36,.9,.41,6.82,.79,13.65,1.01,20.5,.66,.25-.01,.5,.18,.63,.47l7.11,16.07c-6.11,.33-12.01,.31-17.7-.07-3.56-4.72-6.78-9.68-9.65-14.88-.68-1.24-1.6-1.45-2.75-.64-.47,.34-1.25,.62-2.33,.83-2.12,.42-4.24,1.66-5.1-1.56,1.8-.51,3.31-1.44,4.54-2.79l1.46-.96Z"/>
    <path class="cls-30" d="M38.28,30.27c.61,1.41,1.58,1.66,2.92,.75,.86,3.22,2.98,1.98,5.1,1.56,1.08-.21,1.86-.49,2.33-.83,1.15-.81,2.07-.6,2.75,.64,2.87,5.2,6.09,10.16,9.65,14.88l-.54,.29c-.68-.23-1.19-.07-1.54,.46-.75-.05-1.29-.02-1.64,.09-5.54,1.8-11.42,3.42-17.64,4.86-.66,.16-1.34-.32-1.54-1.08l-.89-3.33c2.35-2.42,1.7-11.78,1.64-15.25l-.6-3.04Z"/>
    <path class="cls-28" d="M38.88,33.31c.06,3.47,.71,12.83-1.64,15.25l-1.5-.08-2.63-.7c-4.2-4.93-8.63-9.58-13.28-13.94l19.05-.53Z"/>
    <path class="cls-12" d="M19.83,33.84c4.65,4.36,9.08,9.01,13.28,13.94-7.59,.54-14.88,.7-21.87,.49l-7.75-8.21c5.15-3.08,10.6-5.15,16.34-6.22Z"/>
    <path class="cls-29" d="M110.04,37.19l10.65,10.08c-1.81,1.57-3.08,3.25-3.83,5.05-.16,.38-.15,.77,.02,1.03,.45,.67,.75,1.39,.89,2.16,.06,.33-.03,.66-.24,.9-.65,.74-2.55-2.25-3.01-2.85l-5.77-12.78c-.33-.73-1.06-1.18-1.84-1.14-1.05,.05-10.18,1.09-9.96-.62l9.32-3.61c.34-.14,.69-.13,.94,.03l2.83,1.75Z"/>
    <path class="cls-23" d="M118.24,36.23l1.06,.45c1.41,3.24,3.2,6.14,5.37,8.71,.2,.24,.51,.34,.81,.27,2.59-.64,5.17-1.87,7.74-3.69,1.54,.3,1.89,.93,1.05,1.89-.07,.08-.35,.22-.84,.41l-1.19,.46c-1.42,.17-2.75,.61-4,1.33l-4.22,1.36c-.29,.09-.49,.35-.53,.67-.46,3.74-.29,7.45,.5,11.14l-.46,1.79c-.49-1.94-1.65-3.11-3.5-3.5l.66-10.25-10.65-10.08,.45-.63,7.75-.33Z"/>
    <path class="cls-22" d="M119.3,36.68c4.87,1.14,9.51,2.9,13.92,5.29-2.57,1.82-5.15,3.05-7.74,3.69-.3,.07-.61-.03-.81-.27-2.17-2.57-3.96-5.47-5.37-8.71Z"/>
    <path class="cls-3" d="M96.95,39.02c-.22,1.71,8.91,.67,9.96,.62,.78-.04,1.51,.41,1.84,1.14l5.77,12.78-25.52-.45c-.91,0-1.53-.38-1.85-1.12-.11-.26-.11-.59,.01-.94l3.25-9.17,6.54-2.86Z"/>
    <path class="cls-24" d="M2.74,39.81l.75,.25,7.75,8.21-7.18,8.98c-.3,.37-.33,.88-.1,1.29l7.25,12.77c.2,.35,.23,.7,.08,.88l-.3,.37c-4.11-4.47-7.77-9.28-10.99-14.41l2.74-18.34Z"/>
    <path class="cls-16" d="M84.78,44.77c.19-1.33-.34-2.39-1.57-3.19l5.15,.92c.34,.06,.63,.29,.63,.53,0,.06-.02,.12-.05,.17-.18,.25-.41,.36-.69,.33-.35-.03-.67,.09-.86,.31-.65,.77-1.52,1.08-2.61,.93Z"/>
    <path class="cls-9" d="M135.78,41.02c4.77,1,8.31,5.23,11.66,8.55,.95,.95,1.14,2.01,.55,3.19l-1.87,3.74-.42,6.77c-4.76-4.1-6.45-8.75-8.55-15.02-.1-.31-.34-.54-.63-.62-2.55-.66-5.1-.82-7.65-.48-.85,.12-1.2-.34-.63-1.09,1.25-.72,2.58-1.16,4-1.33,2.15,.2,3.18-.73,3.09-2.78,0-.11,.12-.3,.32-.49,.1-.09,.14-.24,.13-.44Z"/>
    <path class="cls-3" d="M128.24,46.06c-.57,.75-.22,1.21,.63,1.09,2.55-.34,5.1-.18,7.65,.48,.29,.08,.53,.31,.63,.62,2.1,6.27,3.79,10.92,8.55,15.02l.79,.79c-2.6,1.65-5.35,2.98-8.25,4-.36,.06-.65,.03-.87-.1-.22-.13-.27-.48-.12-.82,1.05-2.3,1.92-4.53,3.1-6.76,2.18-4.11-10.94-1.44-15.26-.78l-1.1-.37c-.79-3.69-.96-7.4-.5-11.14,.04-.32,.24-.58,.53-.67l4.22-1.36Z"/>
    <path class="cls-20" d="M61.03,47.27c5.69,.38,11.59,.4,17.7,.07l4.82,4.77c1.35-.15,1.63,.13,.82,.85-.46,.41-.44,.57,.06,.48,.17-.03,.35-.17,.52-.42l.04,6.51c0,.34-.09,.66-.28,.9-.33,.43-.7,.7-1.09,.83l-11.38,3.8-.47-.05c-.28-.03-.55-.2-.71-.47l-10.57-16.98,.54-.29Z"/>
    <path class="cls-7" d="M120.69,47.27l-.66,10.25c-.04,2.21-.49,4.31-1.34,6.3-.13,.32-.38,.55-.67,.64l-9.78,3.02c-5.56-3.65-11.05-7.4-16.48-11.24-1.06-.75-1.98-1.79-2.76-3.13l25.52,.45c.46,.6,2.36,3.59,3.01,2.85,.21-.24,.3-.57,.24-.9-.14-.77-.44-1.49-.89-2.16-.17-.26-.18-.65-.02-1.03,.75-1.8,2.02-3.48,3.83-5.05Z"/>
    <path class="cls-21" d="M60.49,47.56l10.57,16.98c.16,.27,.43,.44,.71,.47l.47,.05-2,.25-19.85,.45-1.15-.78c1.95-1.64,9.9-13.68,9.71-16.96,.35-.53,.86-.69,1.54-.46Z"/>
    <path class="cls-1" d="M33.11,47.78l2.63,.7c-.65,.07-1.12,.29-1.41,.64-3.8,4.63-9.47,7.91-13.67,11.38-.22,.18-.36,.47-.39,.81-.11,1.06-.78,1.48-2.03,1.25l-.34-.17c-.21-.11-.39-.3-.5-.54l-6.16-13.58c6.99,.21,14.28,.05,21.87-.49Z"/>
    <path class="cls-15" d="M58.95,48.02c.19,3.28-7.76,15.32-9.71,16.96-1.89-.26-6.48-4.64-8.5-5.92-.59-.39-3.34-4.27-3.25-2,.04,.94,1.04,2.54,1.42,3.49,.12,.31,.09,.65-.07,.9-.55,.85-1.34,1.31-2.35,1.36l-18.25-.08v-.17c1.25,.23,1.92-.19,2.03-1.25,.03-.34,.17-.63,.39-.81,4.2-3.47,9.87-6.75,13.67-11.38,.29-.35,.76-.57,1.41-.64l1.5,.08,.89,3.33c.2,.76,.88,1.24,1.54,1.08,6.22-1.44,12.1-3.06,17.64-4.86,.35-.11,.89-.14,1.64-.09Z"/>
    <path class="cls-4" d="M11.24,48.27l6.16,13.58c.11,.24,.29,.43,.5,.54l.34,.17v.17c-.88,.01-5.34,9.72-6.08,11.26l-1.17-1.43,.3-.37c.15-.18,.12-.53-.08-.88l-7.25-12.77c-.23-.41-.2-.92,.1-1.29l7.18-8.98Z"/>
    <path class="cls-26" d="M107.49,67.81c.16,.2,.25,.43,.27,.69,.02,.29-.13,.62-.41,.89l-7.55,7.19c-.17,.15-.27,.41-.28,.7-.03,.89-.45,1.57-1.26,2.04-.26,.15-.57,.17-.81,.03-3.06-1.79-6.39-2.63-9.98-2.5-.24,0-.51-.17-.72-.46l-.4-.53c-.09-.13-.43-.25-.87-.31-1.12-.15-2.09-.6-2.91-1.35-.23-.21-.33-.58-.29-.99l1.34-11.95c.39-.13,.76-.4,1.09-.83,.19-.24,.29-.56,.28-.9l-.04-6.51c-.1-.51-.02-.86,.24-1.05,.21-.15,.54-.04,.74,.24,0,0,0,.01,.01,.02,2.51,3.87,3.59,9.62,5.03,14.07,.19,.6,.76,1.02,1.42,1.04l15.1,.47Z"/>
    <path class="cls-18" d="M40.74,59.06c-.9,2.45-.04,4.77-.21,6.84-.17,2.13-.35,4.25-.55,6.37-.06,.59-.6,1.01-1.2,.95,0,0-.02,0-.03,0-1.49-.19-2.73-.74-3.71-1.67-.22-.22-.3-.61-.21-1.03l1.66-7.71c1.01-.05,1.8-.51,2.35-1.36,.16-.25,.19-.59,.07-.9-.38-.95-1.38-2.55-1.42-3.49-.09-2.27,2.66,1.61,3.25,2Z"/>
    <path class="cls-5" d="M123.53,61.02l-.26,7.19c-.01,.28,.2,.51,.48,.52,.01,0,.03,0,.04,0l11.45-.5,1.25,.58,.5,7.42c-3.44,1.4-6.28,1.93-8.51,1.59-4.59-.69-9.17-1.42-13.74-2.19-.33-.06-.69,0-1.03,.14l-13.48,5.98c-.7,.31-1.59,.31-2.48,0l-15.97-5.39c-.29-.1-.67-.06-1.06,.11-6.18,2.74-12.5,5.1-18.97,7.07-.53,.16-1.06,.17-1.51,.02-6.74-2.25-13.32-4.83-19.75-7.73-2.44-1.1-4.72-1.04-6.84,.18-6.19,3.56-15.13-.28-21.49-2.02,.74-1.54,5.2-11.25,6.08-11.26l18.25,.08-1.66,7.71c-.09,.42-.01,.81,.21,1.03,.98,.93,2.22,1.48,3.71,1.67,.6,.08,1.15-.34,1.23-.92,0,0,0-.02,0-.03,.2-2.12,.38-4.24,.55-6.37,.17-2.07-.69-4.39,.21-6.84,2.02,1.28,6.61,5.66,8.5,5.92l1.15,.78c3.11,4.29,6.46,8.34,10.07,12.14,.19,.21,.49,.25,.67,.09,.01-.01,.03-.03,.04-.04l9.56-11.45c.24-.29,.28-.66,.1-.88-.14-.17-.34-.28-.59-.31l2-.25,11.38-3.8-1.34,11.95c-.04,.41,.06,.78,.29,.99,.82,.75,1.79,1.2,2.91,1.35,.44,.06,.78,.18,.87,.31l.4,.53c.21,.29,.48,.47,.72,.46,3.59-.13,6.92,.71,9.98,2.5,.24,.14,.55,.12,.81-.03,.81-.47,1.23-1.15,1.26-2.04,.01-.29,.11-.55,.28-.7l7.55-7.19c.28-.27,.43-.6,.41-.89-.02-.26-.11-.49-.27-.69l.75-.33,9.78-3.02c.29-.09,.54-.32,.67-.64,.85-1.99,1.3-4.09,1.34-6.3,1.85,.39,3.01,1.56,3.5,3.5Z"/>
    <path class="cls-7" d="M138.24,68.06l-1.75,.75-1.25-.58c0-.37-.09-.6-.26-.7-3.57-2.2-6.86-4.84-9.89-7.93,4.32-.66,17.44-3.33,15.26,.78-1.18,2.23-2.05,4.46-3.1,6.76-.15,.34-.1,.69,.12,.82,.22,.13,.51,.16,.87,.1Z"/>
    <path class="cls-14" d="M123.99,59.23l1.1,.37c3.03,3.09,6.32,5.73,9.89,7.93,.17,.1,.25,.33,.26,.7l-11.45,.5c-.28,.01-.51-.2-.52-.48,0-.01,0-.03,0-.04l.26-7.19,.46-1.79Z"/>
    <path class="cls-13" d="M70.24,65.31c.25,.03,.45,.14,.59,.31,.18,.22,.14,.59-.1,.88l-9.56,11.45c-.15,.18-.45,.18-.66,0-.02-.02-.03-.03-.05-.05-3.61-3.8-6.96-7.85-10.07-12.14l19.85-.45Z"/>
  </g>
</svg>