<?xml version="1.0" encoding="UTF-8"?>
<svg id="Layer_2" data-name="Layer 2" xmlns="http://www.w3.org/2000/svg" viewBox="0 0 138.38 57.09">
  <defs>
    <style>
      .cls-1 {
        fill: #d5c8bc;
      }

      .cls-2 {
        fill: #758ba1;
      }

      .cls-3 {
        fill: #9fa4a9;
      }

      .cls-4 {
        fill: #cebaab;
      }

      .cls-5 {
        fill: #ece5e7;
      }

      .cls-6 {
        fill: #66767e;
      }

      .cls-7 {
        fill: #bab2ab;
      }

      .cls-8 {
        fill: #a29992;
      }

      .cls-9 {
        fill: #c8bfb6;
      }

      .cls-10 {
        fill: #b4a397;
      }

      .cls-11 {
        fill: #48565f;
      }

      .cls-12 {
        fill: #989491;
      }

      .cls-13 {
        fill: #cacbd3;
      }

      .cls-14 {
        fill: #9e9f9c;
      }

      .cls-15 {
        fill: #858585;
      }

      .cls-16 {
        fill: #827972;
      }

      .cls-17 {
        fill: #d4c6b8;
      }

      .cls-18 {
        fill: #5d6f79;
      }

      .cls-19 {
        fill: #8f8581;
      }

      .cls-20 {
        fill: #c8bbaf;
      }

      .cls-21 {
        fill: #9ea0a2;
      }

      .cls-22 {
        fill: #ddd3d1;
      }

      .cls-23 {
        fill: #697c90;
      }

      .cls-24 {
        fill: #d0c3b8;
      }

      .cls-25 {
        fill: #cbc2bd;
      }

      .cls-26 {
        fill: #c4bebe;
      }
    </style>
  </defs>
  <g id="Layer_1-2" data-name="Layer 1">
    <path class="cls-1" d="M85.55,13.63l-.04,1.25c-1.44,.95-2.04,2.27-1.81,3.95,.05,.36-.06,.67-.26,.72l-1.43,.33c-.26,.07-.57-.11-.76-.43-1.88-3.18-12.01-6.59-15.57-7.75-.43-.37-.9-.6-1.39-.71-.26-.06-.61,.02-.99,.22l-12.24,6.47c-.32,.17-.68,.12-.87-.1-.85-.97-.83-1.38-.21-2.57,1.57-2.95,2.52-6.12,2.85-9.49,.03-.3,.2-.58,.47-.76,1.58-1.03,2.82-2.61,3.73-4.76,5.14,.37,10.14,1.38,15.01,3.03,4.98,1.68,9.75,6.98,13.51,10.6Z"/>
    <path class="cls-4" d="M57.03,0c-.91,2.15-2.15,3.73-3.73,4.76-.27,.18-.44,.46-.47,.76-.33,3.37-1.28,6.54-2.85,9.49-.62,1.19-.64,1.6,.21,2.57,.19,.22,.55,.26,.87,.1l12.24-6.47c.38-.2,.73-.28,.99-.22,.49,.11,.96,.34,1.39,.71l.14,12.37c0,.29,.15,.58,.41,.79,.71,.61,.63,1.21-.22,1.81l-.5-.08c-4.94-3.24-10.11-6.11-15.52-8.62-.39-.18-.76-.19-.92-.03l-2.25,2.26c-.2,.2-.5,.24-.67,.08-.02-.01-.03-.03-.04-.05-.43-.6-.53-1.3-.3-2.11,.11-.35-.01-.74-.31-.98-1.7-1.42-2.98-3.15-3.83-5.18-.11-.27-.43-.4-.71-.28-.03,.01-.06,.03-.08,.04l-.87,.53c-.21,.13-.24,.44-.07,.71,0,.01,.02,.03,.03,.04,1.11,1.49,1.71,3.12,1.8,4.89l-10.27,.23c-.65,.01-1.19-.48-1.21-1.1,0-.06,0-.13,.01-.19,.17-1.07-.08-2.22-.75-3.45,.11-.75,.52-1.32,1.21-1.71,2.44-1.36,5-1.84,7.68-1.44,.33,.05,.65-.07,.85-.31l4.76-5.74c.12-.14,.46-.31,.91-.45L57.03,0Z"/>
    <path class="cls-24" d="M116.05,29.13c.18,.83-.01,1.26-.57,1.3-.27,.02-.55-.18-.69-.5-.8-1.83-2.01-3.3-3.64-4.41l-1.14-.93c-2.73-1.93-5.74-3.34-9.03-4.22-.23-.06-.48,.08-.54,.31,0,.02,0,.04-.01,.06-.22,1.75-1.01,8.92,.08,9.93l-.04,.21c-2.93-1.39-5.83-2.84-8.7-4.35-2.14-1.12-5.07-1.64-3.46-4.88,.15-.3,.18-.64,.09-.95l-1.07-3.59c-.07-.24,.02-.57,.24-.9,1.06-1.6,.37-2.04-2.06-1.33l.04-1.25c2.49-.82,5.02-1.52,7.6-2.11,3.43-.77,7.19,1.04,10.49,1.95,4.06,1.11,7.33,4.73,10.32,7.52,.23,.21,.39,.51,.46,.84l1.63,7.3Z"/>
    <path class="cls-10" d="M65.51,26.59c-4.96,3.6-10.21,6.71-15.75,9.33-2.72-1.38-5.13-3.18-7.22-5.39-.21-.22-.49-.38-.82-.46-1.34-.32-2.42-1.03-3.24-2.13-.18-.23-.34-.33-.48-.3-.16,.03-.24,.29-.18,.57,0,0,0,.02,0,.03,.29,1.13,2.29,6.91,1.18,7.43l-7.86-5.15c1.95-1.75,4.13-3.21,6.56-4.36,.3-.14,.5-.34,.55-.55,.03-.14,.03-.29,0-.44,.48,.1,.93-.14,1.35-.71,1.55-2.15,2.27-4.34,2.16-6.57-.09-1.77-.69-3.4-1.8-4.89-.19-.25-.18-.58,0-.73,.01,0,.02-.02,.03-.02l.87-.53c.26-.16,.59-.09,.75,.16,.02,.03,.03,.05,.04,.08,.85,2.03,2.13,3.76,3.83,5.18,.3,.24,.42,.63,.31,.98-.23,.81-.13,1.51,.3,2.11,.14,.19,.43,.2,.65,.02,.02-.02,.04-.03,.06-.05l2.25-2.26c.16-.16,.53-.15,.92,.03,5.41,2.51,10.58,5.38,15.52,8.62Z"/>
    <path class="cls-26" d="M65.68,11.7c3.56,1.16,13.69,4.57,15.57,7.75,.19,.32,.5,.5,.76,.43l1.43-.33c.2-.05,.31-.36,.26-.72-.23-1.68,.37-3,1.81-3.95l.94,4.51c.07,.31,.04,.64-.07,.95-.31,.83-.3,1.68,.02,2.54,.11,.31,.14,.63,.08,.94-.25,1.32,.15,2.25,1.19,2.78l-.31,.04c-.2,.03-.37,.14-.47,.31l-4.09,7c-.82-.19-1.35,.28-1.58,1.43-.53,.78-1.19,1.01-1.99,.69l-12.22-8.9-1-.5c.85-.6,.93-1.2,.22-1.81-.26-.21-.41-.5-.41-.79l-.14-12.37Z"/>
    <path class="cls-16" d="M29.55,13.38c.67,1.23,.92,2.38,.75,3.45-.09,.61,.35,1.18,1,1.28,.07,0,.14,.01,.2,.01l10.27-.23c.11,2.23-.61,4.42-2.16,6.57-.42,.57-.87,.81-1.35,.71l-7.96-5.79c-.95-.8-1.58-1.78-1.87-2.95-.06-.25,.07-.54,.34-.73,.59-.43,.58-1.03-.01-1.78l.79-.54Z"/>
    <path class="cls-17" d="M28.76,13.92c.59,.75,.6,1.35,.01,1.78-.27,.19-.4,.48-.34,.73,.29,1.17,.92,2.15,1.87,2.95-1.68,1.91-3.7,3.39-6.05,4.45-6.12,2.77-.48-8.04,.26-9.16,1.35-.75,2.76-1,4.25-.75Z"/>
    <path class="cls-20" d="M24.51,14.67c-.74,1.12-6.38,11.93-.26,9.16,2.35-1.06,4.37-2.54,6.05-4.45l7.96,5.79c.03,.15,.03,.3,0,.44-.05,.21-.25,.41-.55,.55-2.43,1.15-4.61,2.61-6.56,4.36l-.64-.18v-.23c0-.15-.08-.29-.2-.36-5.26-3.23-10.84-5.84-16.75-7.84,3.33-4.82,4.98-6.34,10.95-7.24Z"/>
    <path class="cls-8" d="M100.47,30.88l.08,.25,.17,1c-.88-.99-1.6-1.04-2.17-.13-.22,.36-.46,.62-.65,.7l-3.14,1.39-.46-.46c-.87-2.6-2.59-4.68-5.16-6.23l-1.47-.8c-1.04-.53-1.44-1.46-1.19-2.78,.06-.31,.03-.63-.08-.94-.32-.86-.33-1.71-.02-2.54,.11-.31,.14-.64,.07-.95l-.94-4.51c2.43-.71,3.12-.27,2.06,1.33-.22,.33-.31,.66-.24,.9l1.07,3.59c.09,.31,.06,.65-.09,.95-1.61,3.24,1.32,3.76,3.46,4.88,2.87,1.51,5.77,2.96,8.7,4.35Z"/>
    <path class="cls-1" d="M110.01,24.59c-2.38,1.65-6.87,5.52-9.5,6.08-1.09-1.01-.3-8.18-.08-9.93,.03-.24,.25-.41,.49-.38,.02,0,.04,0,.06,.01,3.29,.88,6.3,2.29,9.03,4.22Z"/>
    <path class="cls-10" d="M13.56,21.91c5.91,2,11.49,4.61,16.75,7.84,.12,.07,.2,.21,.2,.36v.23l-9,5.33c-2.54-.25-5.16-3.55-7.08-4.82-2.47,.33-3.13,1.68-1.96,4.03-2.31-1.29-4.3-2.97-5.96-5.04l1.29-2.21c1.3-.17,2.48,.07,3.54,.72,.32,.19,.65,.28,.91,.23,1.25-.21,1.87-1.13,1.86-2.77-.52-1.23-.7-2.53-.55-3.9Z"/>
    <path class="cls-1" d="M14.11,25.81c.01,1.64-.61,2.56-1.86,2.77-.26,.05-.59-.04-.91-.23-1.06-.65-2.24-.89-3.54-.72,1.21-3.02,3.31-3.63,6.31-1.82Z"/>
    <path class="cls-26" d="M110.01,24.59l1.14,.93c-.93,4.4,.29,8.18-1.18,11.86-2.15-1.03-8.17-6.1-9.42-6.25l-.08-.25,.04-.21c2.63-.56,7.12-4.43,9.5-6.08Z"/>
    <path class="cls-13" d="M111.15,25.52c1.63,1.11,2.84,2.58,3.64,4.41,.14,.32,.42,.52,.69,.5,.56-.04,.75-.47,.57-1.3l.21,.04,.54,1.96c-.41,1.2-1.05,2.25-1.93,3.15-.22,.23-.34,.54-.34,.86,.03,2.08-.72,3.76-2.27,5.03l-2-1.58-.29-1.21c1.47-3.68,.25-7.46,1.18-11.86Z"/>
    <path class="cls-12" d="M65.51,26.59l.5,.08,1,.5c-1.31,5.03-.72,10.23-2.29,14.96l-14.21-5.46-.75-.75c5.54-2.62,10.79-5.73,15.75-9.33Z"/>
    <path class="cls-7" d="M87.67,26.6l1.47,.8c-1.42,2.11-1.46,4.26-.13,6.44l-.5,.33c-1.75-.36-3.5-.36-5.25,0l-.46-.22,4.09-7c.1-.17,.27-.28,.47-.31l.31-.04Z"/>
    <path class="cls-21" d="M67.01,27.17l12.22,8.9-13.72,6.52-.79-.46c1.57-4.73,.98-9.93,2.29-14.96Z"/>
    <path class="cls-19" d="M49.76,35.92l.75,.75c-.65,.67,2.51,12.63,2.96,14.31,.08,.29-.07,.59-.34,.66l-7.92,2.16c-2.84-1.65-5.33-3.71-7.47-6.2-.37-.43-.31-.77,.02-1.18,1.37-.63,1.61-1.52,.74-2.67-.18-.24-.2-.56-.04-.79,.7-1.05,3.84-7.33,.59-7.08l-.04-.21c1.11-.52-.89-6.3-1.18-7.43-.07-.28,0-.55,.16-.6,0,0,0,0,.01,0,.14-.03,.3,.07,.48,.3,.82,1.1,1.9,1.81,3.24,2.13,.33,.08,.61,.24,.82,.46,2.09,2.21,4.5,4.01,7.22,5.39Z"/>
    <path class="cls-22" d="M89.14,27.4c2.57,1.55,4.29,3.63,5.16,6.23-1.73,.44-3.5,.51-5.29,.21-1.33-2.18-1.29-4.33,.13-6.44Z"/>
    <path class="cls-25" d="M126.05,32.13l3.2,8.65c-.7,1.35-.99,2.7-.87,4.04,.03,.33-.06,.65-.25,.89l-3.41,4.17c-.3,.25-.76,.43-1.37,.55,.17-1.43,.7-2.68,1.58-3.76,.71-.88,3.55-1.15,.83-2.83-2.26-2.37-3.76-3.68-4.5-3.92-1.9-.63-3.61-1.51-5.13-2.64-.38-.28-.46-.82-.18-1.21,.03-.04,.06-.08,.1-.11,.65-.62,3.12-5.28,.75-4.83l-.54-1.96,.4-.24c.27-.16,.58-.22,.88-.18,3.13,.43,5.96,1.55,8.51,3.38Z"/>
    <path class="cls-4" d="M6.51,29.84c1.66,2.07,3.65,3.75,5.96,5.04,.71,.7,1.04,1.53,1,2.5l-9.97-.24c-.29,0-.54-.2-.62-.49l-.91-3.52c-.12-.93,.23-1.58,1.04-1.96l3.5-1.33Z"/>
    <path class="cls-12" d="M30.51,30.34l.64,.18,7.86,5.15,.04,.21-.54,.54-7.29,3.12c-.3,.13-.63,.15-.94,.05-2.33-.74-6.31-3.08-8.48-2.96l-.29-.96,9-5.33Z"/>
    <path class="cls-18" d="M14.43,30.85c-.28,2.81-.19,5.57,.27,8.27,.06,.35,.29,.64,.6,.75,1.59,.54,2.39,1.72,2.41,3.54,0,.34,.11,.67,.31,.94,1.26,1.71,2.93,2.3,5.01,1.76,.29-.07,.47-.39,.43-.74-.15-1.33-2.06-8.32-1.66-8.74,2.17-.12,6.15,2.22,8.48,2.96,.31,.1,.64,.08,.94-.05l7.29-3.12c-.71,2.88-1.63,5.69-2.78,8.43-.41,1-.17,1.73,.99,1.78-5.04,2.48-10.2,2.9-15.48,1.25-2.38-.74-4.37-2.27-5.96-4.58,.21-1.61-.38-3.02-1.77-4.21l-.04-1.71c.04-.97-.29-1.8-1-2.5-1.17-2.35-.51-3.7,1.96-4.03Z"/>
    <path class="cls-19" d="M14.43,30.85c1.92,1.27,4.54,4.57,7.08,4.82l.29,.96c-.4,.42,1.51,7.41,1.66,8.74,.04,.35-.14,.67-.43,.74-2.08,.54-3.75-.05-5.01-1.76-.2-.27-.31-.6-.31-.94-.02-1.82-.82-3-2.41-3.54-.31-.11-.54-.4-.6-.75-.46-2.7-.55-5.46-.27-8.27Z"/>
    <path class="cls-3" d="M100.55,31.13c1.25,.15,7.27,5.22,9.42,6.25l.29,1.21-.25,.08-10,4.25-1.25-.58c1.53-3.02,1.29-6.86,1.96-10.21l-.17-1Z"/>
    <path class="cls-14" d="M116.8,31.13c2.37-.45-.1,4.21-.75,4.83-.35,.33-.36,.88-.03,1.22,.03,.04,.07,.07,.11,.1,1.52,1.13,3.23,2.01,5.13,2.64,.74,.24,2.24,1.55,4.5,3.92-1.43,1.17-3.11,1.91-5.02,2.23-.36-1.68-.35-3.15,.04-4.42,.54-1.77,.1-2.22-1.32-1.36-1.69,1.03-3.12,2.28-4.28,3.75-2.2-.14-.59-2.29-2.63-2.66l-.29-1.21c1.55-1.27,2.3-2.95,2.27-5.03,0-.32,.12-.63,.34-.86,.88-.9,1.52-1.95,1.93-3.15Z"/>
    <path class="cls-9" d="M129.14,31.37c3.85,1.37,6.93,3.74,9.22,7.11,.06,.84,.04,2.34-.81,3.79-2.04,3.47-7.59,4.43-8.92,2.81-.36-.44-.75-1.5,.62-4.3l-3.2-8.65,3.09-.76Z"/>
    <path class="cls-5" d="M129.14,31.37c5.71-.59,8.79,1.78,9.22,7.11-2.29-3.37-5.37-5.74-9.22-7.11Z"/>
    <path class="cls-15" d="M100.72,32.13c-.67,3.35-.43,7.19-1.96,10.21-1.83-.4-3.54-1.13-5.11-2.2-.27-.18-.6-.23-.88-.13-4.12,1.49-5.2,4.47-9.86,1.67-.59-.36-.78-1.13-.43-1.72,.06-.09,.13-.18,.21-.26,1.49-1.43,1.68-3.27,.57-5.53,1.75-.36,3.5-.36,5.25,0,.14,1.12-.98,5.15-.22,5.42,.26,.09,.6-.05,.83-.34,1.26-1.55,2.8-2.77,4.61-3.65,.26-.13,.43-.42,.44-.76,0-.41,.2-.66,.59-.75l3.14-1.39c.19-.08,.43-.34,.65-.7,.57-.91,1.29-.86,2.17,.13Z"/>
    <path class="cls-19" d="M1.97,33.13l.91,3.52c.08,.29,.33,.49,.62,.49l9.97,.24,.04,1.71-5.01,5.73c-2.13,.16-4.19-.28-6.18-1.32-.28-.15-.48-.37-.57-.62L.08,38.06c-.11-.31-.11-.63,.01-.89l1.88-4.04Z"/>
    <path class="cls-21" d="M94.3,33.63l.46,.46c-.39,.09-.59,.34-.59,.75,0,.34-.18,.63-.44,.76-1.81,.88-3.35,2.1-4.61,3.65-.23,.29-.57,.43-.83,.34-.76-.27,.36-4.3,.22-5.42l.5-.33c1.79,.3,3.56,.23,5.29-.21Z"/>
    <path class="cls-18" d="M82.8,33.95l.46,.22c1.11,2.26,.92,4.1-.57,5.53-.5,.48-.52,1.27-.04,1.77,.08,.08,.16,.15,.26,.21,4.66,2.8,5.74-.18,9.86-1.67,.28-.1,.61-.05,.88,.13,1.57,1.07,3.28,1.8,5.11,2.2l1.25,.58c.82,1.32,1.96,2.83,3.41,4.53,.61,.71,.86,1.54,.73,2.48-.04,.29,.04,.55,.2,.64,.11,.07,.25,.1,.41,.1-7.74,5.49-18.03,3.49-24.92-2.44l1.67-3.5c.19-.4,.29-.74,.26-.85l-1.49-4.26c-.1-.29-.05-.59,.14-.76,1.01-.94,1.27-2.1,.8-3.48,.23-1.15,.76-1.62,1.58-1.43Z"/>
    <path class="cls-23" d="M81.22,35.38c.47,1.38,.21,2.54-.8,3.48-.19,.17-.24,.47-.14,.76l1.49,4.26c.03,.11-.07,.45-.26,.85l-1.67,3.5c-1.85,2.36-4.05,4.26-6.58,5.69l-7.75-11.33,13.72-6.52c.8,.32,1.46,.09,1.99-.69Z"/>
    <path class="cls-11" d="M39.05,35.88c3.25-.25,.11,6.03-.59,7.08-.16,.23-.14,.55,.04,.79,.87,1.15,.63,2.04-.74,2.67l-1.04,.21c-1.16-.05-1.4-.78-.99-1.78,1.15-2.74,2.07-5.55,2.78-8.43l.54-.54Z"/>
    <path class="cls-6" d="M50.51,36.67l14.21,5.46,.79,.46,7.75,11.33-7.27,2.61c-7.15,1.28-14.07,.37-20.78-2.73l7.92-2.16c.27-.07,.42-.37,.34-.66-.45-1.68-3.61-13.64-2.96-14.31Z"/>
    <path class="cls-23" d="M110.01,38.67c-.66,1.21-6.65,11.37-5,11.75l-.25,.25c-.16,0-.3-.03-.41-.1-.16-.09-.24-.35-.2-.64,.13-.94-.12-1.77-.73-2.48-1.45-1.7-2.59-3.21-3.41-4.53l10-4.25Z"/>
    <path class="cls-2" d="M110.01,38.67l.25-.08,2,1.58,.29,1.21c-1.32,3.08-3.25,5.73-5.79,7.96l-1.75,1.08c-1.65-.38,4.34-10.54,5-11.75Z"/>
    <path class="cls-11" d="M13.51,39.09c1.39,1.19,1.98,2.6,1.77,4.21-2.42-.2-4.68,.31-6.78,1.52l5.01-5.73Z"/>
    <path class="cls-15" d="M120.74,46.07c-1.91-.04-3.76-.72-5.56-2.03,1.16-1.47,2.59-2.72,4.28-3.75,1.42-.86,1.86-.41,1.32,1.36-.39,1.27-.4,2.74-.04,4.42Z"/>
    <path class="cls-18" d="M112.55,41.38c2.04,.37,.43,2.52,2.63,2.66,1.8,1.31,3.65,1.99,5.56,2.03,1.91-.32,3.59-1.06,5.02-2.23,2.72,1.68-.12,1.95-.83,2.83-.88,1.08-1.41,2.33-1.58,3.76-6.32,3.77-10.49,1.41-16.59-1.09,2.54-2.23,4.47-4.88,5.79-7.96Z"/>
  </g>
</svg>