<?xml version="1.0" encoding="UTF-8"?>
<svg id="Layer_2" data-name="Layer 2" xmlns="http://www.w3.org/2000/svg" viewBox="0 0 232.29 58.68">
  <defs>
    <style>
      .cls-1 {
        fill: #deccbd;
      }

      .cls-2 {
        fill: #c2b9af;
      }

      .cls-3 {
        fill: #dfd2c9;
      }

      .cls-4 {
        fill: #a4a5a2;
      }

      .cls-5 {
        fill: #d3c1b1;
      }

      .cls-6 {
        fill: #e4d3c5;
      }

      .cls-7 {
        fill: #d5c8bc;
      }

      .cls-8 {
        fill: #9fa4a9;
      }

      .cls-9 {
        fill: #cebaab;
      }

      .cls-10 {
        fill: #758790;
      }

      .cls-11 {
        fill: #c6b6a9;
      }

      .cls-12 {
        fill: #66767e;
      }

      .cls-13 {
        fill: #bab2ab;
      }

      .cls-14 {
        fill: #c8bfb6;
      }

      .cls-15 {
        fill: #b2a79e;
      }

      .cls-16 {
        fill: #58646c;
      }

      .cls-17 {
        fill: #989491;
      }

      .cls-18 {
        fill: #9e9f9c;
      }

      .cls-19 {
        fill: #d9cec9;
      }

      .cls-20 {
        fill: #b9b4b3;
      }

      .cls-21 {
        fill: #56727c;
      }

      .cls-22 {
        fill: #928c89;
      }

      .cls-23 {
        fill: #e2d5cd;
      }

      .cls-24 {
        fill: #c1b1a4;
      }

      .cls-25 {
        fill: #d0c3b8;
      }

      .cls-26 {
        fill: #cbc2bd;
      }
    </style>
  </defs>
  <g id="Layer_1-2" data-name="Layer 1">
    <path class="cls-26" d="M134.39,15.92c5.52,4.56,16.85,12.07,24.27,7.96,3.92-2.18,8-4,12.23-5.46-.46,.83-1.1,1.55-1.92,2.16-3.7,2.53-7.64,4.79-11.83,6.76-4.62,1.17-8.32,3.31-13.2,2.56-.24-.04-.45-.24-.53-.53l-.74-2.5s-.38-.32-.79-.64l-3.95-3.1c-7.14-7.99-13.87-10.94-22.52-14.57-3.39-1.42-6.56-3.24-9.52-5.47,1.54-.51,2.79-1.4,3.75-2.67,4.17-1.11,7.07,.04,10.39,3.02,4.72,4.24,9.51,8.4,14.36,12.48Z"/>
    <path class="cls-5" d="M109.64,.42c-.96,1.27-2.21,2.16-3.75,2.67l-.79,.29c-3.56,.35-6.83,1.5-9.8,3.45-.25,.17-.39,.47-.35,.78,.7,6.33-1.62,10.06-4.89,17.25-.16,.35-.41,.59-.67,.64-.23,.05-.44,.02-.64-.07-.24-.12-.38-.44-.35-.81,.16-1.97-.26-3.81-1.27-5.53-.15-.25-.47-.36-.76-.26-2.95,1-5.58,2.54-7.88,4.63-.27,.25-.47,.59-.55,.98l-1.71,8.26c-.04,.2-.26,.32-.49,.26-.03,0-.06-.02-.09-.03-1.05-.47-2.32-3.69-3.24-4.83-.37-.45-1.03-.51-1.48-.14-.08,.07-.15,.14-.21,.23-1.49,2.19-3.28,4.07-5.37,5.65-.25,.18-.62,.24-1.03,.16-2.06-.43-4.12-.46-6.17-.1-.26,.04-.59-.04-.93-.24-3.36-2.03-8.83-4.26-12.69-2.42-5.55,2.64-11.15,5.19-16.8,7.64-1.68,.1-2.74,1.51-4.02,2.13-5.79,2.79-11.41,5.91-16.85,9.37-.52,.34-1.21,.19-1.55-.34-.08-.12-.13-.25-.16-.38-.31-1.53-1.83-2.17-4.54-1.94,4.95-3.47,10.09-6.61,15.42-9.44,6.94-3.68,12.47-11.12,18.14-16.5,2.9-2.74,9.87-5.88,13.89-5.05,5.5,1.15,10.7,3.07,15.6,5.77,.36,.2,.73,.28,1,.2l8.73-2.33c.29-.08,.59-.29,.84-.59,6.73-8.06,14.88-14.27,24.45-18.63,1.4-.63,5.05-.88,10.96-.73ZM34.57,28.58c9.11,1.44,17.97,.59,26.59-2.55,.99-.36,.98-.82-.04-1.37l-6.97-3.8c-.64-.35-1.44-.4-2.18-.12-3.21,1.22-6.5,2.08-9.89,2.57-.27,.04-.57,.19-.86,.42-.89,.73-1.91,1.2-3.08,1.41-.49,.09-.88,.2-.96,.28l-2.7,2.8c-.19,.2-.16,.32,.09,.36Z"/>
    <path class="cls-23" d="M105.89,3.09c2.96,2.23,6.13,4.05,9.52,5.47,8.65,3.63,15.38,6.58,22.52,14.57,.18,.66-.02,1.13-.61,1.41-.25,.12-.59,.09-.91-.07-9.59-4.99-.92,4.24-.38,4.9,.19,.24,.49,.38,.81,.39,6.96,.25,7.61,4.63,11.26,9.13,1.52,1.87,1.08,2.69-1.31,2.46-5.83-.55-11.46,.31-16.9,2.57l-.79-.29c-4.72-10.74-10.83-14.33-21.83-20.38-2.72-1.49-4.95-3.93-7.77-5.53-.51-.29-.7-.94-.41-1.46,.08-.13,.18-.25,.31-.34,4.28-3.07,6.18-7.25,5.7-12.54l.79-.29Z"/>
    <path class="cls-1" d="M105.1,3.38c.48,5.29-1.42,9.47-5.7,12.54-.48,.35-.59,1.01-.24,1.49,.09,.13,.21,.23,.34,.31,2.82,1.6,5.05,4.04,7.77,5.53,11,6.05,17.11,9.64,21.83,20.38l-9.92,1-2.54-.21c-.9-.19-1.35-.76-1.36-1.7,0-.4-.11-.74-.31-.92l-3.79-3.46c-.2-.18-.57-.26-1-.22-4.42,.45-7.19,.54-8.3,.27-2.32-.56-4.15-.66-5.5-.31-2.01,.52-7.44,2.26-16.29,5.21h-7.48s-13.47,6.88-13.47,6.88c-.33,.01-.63-.06-.88-.22-.21-.13-.34-.45-.33-.83,.02-1.26-.37-2.39-1.17-3.4-.13-.16-.12-.47,.02-.8,1.82-4.15-8.58-3.1-10.42-3.03-.39,.01-.69,.33-.68,.72,0,.12,.04,.24,.1,.34,1.89,3.23,3.16,6.21,3.81,8.94l-1.2,.03-14.83-3.52-5.83-9.52c5.65-2.45,11.25-5,16.8-7.64,3.86-1.84,9.33,.39,12.69,2.42,.34,.2,.67,.28,.93,.24,2.05-.36,4.11-.33,6.17,.1,.41,.08,.78,.02,1.03-.16,2.09-1.58,3.88-3.46,5.37-5.65,.33-.49,.98-.62,1.46-.29,.08,.06,.16,.13,.23,.2,.92,1.14,2.19,4.36,3.24,4.83,.22,.1,.46,.03,.55-.16,.01-.02,.02-.05,.03-.07l1.71-8.26c.08-.39,.28-.73,.55-.98,2.3-2.09,4.93-3.63,7.88-4.63,.29-.1,.61,0,.76,.26,1.01,1.72,1.43,3.56,1.27,5.53-.03,.37,.11,.69,.35,.81,.2,.09,.41,.12,.64,.07,.26-.05,.51-.29,.67-.64,3.27-7.19,5.59-10.92,4.89-17.25-.04-.31,.1-.61,.35-.78,2.97-1.95,6.24-3.1,9.8-3.45Z"/>
    <path class="cls-7" d="M184.39,17.67c-3.95,.26-4.46,2.31-5.63,5.46-1.45,2.75-.79,9.91-.62,12.96-4.83,.49-9.6,1.38-14.31,2.65-3.89,.27-7.65,.86-11.28,1.77-.99,.25-1.86,.7-2.63,1.37-1.64,1.43-10.09,9.41-11.53,9.29l-8.5-7.25c5.44-2.26,11.07-3.12,16.9-2.57,2.39,.23,2.83-.59,1.31-2.46-3.65-4.5-4.3-8.88-11.26-9.13-.32,0-.62-.15-.81-.39-.54-.66-9.21-9.89,.38-4.9,.32,.16,.66,.19,.91,.07,.59-.28,.79-.75,.61-1.41l3.95,3.1c.41,.32,.75,.6,.79,.64l.74,2.5c.08,.29,.29,.49,.53,.53,4.88,.75,8.58-1.39,13.2-2.56,1.83,2.7,3.26,5.59,4.29,8.68,1.18,3.5,4.22-2.98,5.46-4.93,1.81-2.83,2.51-6.33,2.08-10.51,.82-.61,1.46-1.33,1.92-2.16,2.05-.93,3.82-2.12,6.14-1.97,2.49,.15,4.94,.56,7.36,1.22Z"/>
    <path class="cls-19" d="M184.39,17.67c3.99,.94,7.2,3.08,9.63,6.41l19.12,11.76c-.89,0-1.54,.35-1.96,1.06-.14,.24-.46,.33-.74,.19-5.16-2.71-10.11-5.77-14.85-9.18-.31-.22-.63-.35-.9-.37-3.86-.27-6.35-2.19-10.02-2.63-2.05-.25-4.02-.84-5.91-1.78,1.17-3.15,1.68-5.2,5.63-5.46Z"/>
    <path class="cls-6" d="M34.57,28.58c-.25-.04-.28-.16-.09-.36l2.7-2.8c.08-.08,.47-.19,.96-.28,1.17-.21,2.19-.68,3.08-1.41,.29-.23,.59-.38,.86-.42,3.39-.49,6.68-1.35,9.89-2.57,.74-.28,1.54-.23,2.18,.12l6.97,3.8c1.02,.55,1.03,1.01,.04,1.37-8.62,3.14-17.48,3.99-26.59,2.55Z"/>
    <path class="cls-11" d="M168.97,20.58c.43,4.18-.27,7.68-2.08,10.51-1.24,1.95-4.28,8.43-5.46,4.93-1.03-3.09-2.46-5.98-4.29-8.68,4.19-1.97,8.13-4.23,11.83-6.76Z"/>
    <path class="cls-3" d="M213.14,35.84l18.76,10.84c.32,.18,.47,.52,.34,.76l-.35,.65c-3.24,1.85-7.04,4-10.94,3.44-5.31-.77-10.65-.91-16.02-.4-2.59-3.73-5.7-7.06-9.32-9.99l-17.47-5.05c-.17-3.05-.83-10.21,.62-12.96,1.89,.94,3.86,1.53,5.91,1.78,3.67,.44,6.16,2.36,10.02,2.63,.27,.02,.59,.15,.9,.37,4.74,3.41,9.69,6.47,14.85,9.18,.28,.14,.6,.05,.74-.19,.42-.71,1.07-1.07,1.96-1.06Z"/>
    <path class="cls-25" d="M178.14,36.09l17.47,5.05,.95,11.55-14.09-1.48c-4.1-1.29-8.29-2.17-12.58-2.62-1.19-.25-1.92-.9-2.17-1.96-.09-.37-.22-.66-.39-.89-1.43-1.88-2.59-4.21-3.5-7,4.71-1.27,9.48-2.16,14.31-2.65Z"/>
    <path class="cls-7" d="M116.64,44.42l-13.45,1.96c-.22,.03-.38,.25-.34,.48,0,.02,0,.04,.01,.05l2,7.17-18.97-4.74-5.8-6.05c8.85-2.95,14.28-4.69,16.29-5.21,1.35-.35,3.18-.25,5.5,.31,1.11,.27,3.88,.18,8.3-.27,.43-.04,.8,.04,1,.22l3.79,3.46c.2,.18,.31,.52,.31,.92,0,.94,.46,1.51,1.36,1.7Z"/>
    <path class="cls-2" d="M163.83,38.74c.91,2.79,2.07,5.12,3.5,7,.17,.23,.3,.52,.39,.89,.25,1.06,.98,1.71,2.17,1.96l-.75,.08c-8.73,1.09-16.66,4.29-25.16,5.72-1.11-2-2.89-2.85-5.34-2.55l-.25-.67c1.44,.12,9.89-7.86,11.53-9.29,.77-.67,1.64-1.12,2.63-1.37,3.63-.91,7.39-1.5,11.28-1.77Z"/>
    <path class="cls-9" d="M27.73,38.88l5.83,9.52-7.67,3.44c-6.08,.18-12.15-.06-18.21-.71-2.99-.64-5.17-.97-6.54-1-1.32-.03-1.5-.83-.53-2.41,2.71-.23,4.23,.41,4.54,1.94,.13,.61,.73,1,1.33,.88,.13-.03,.26-.08,.38-.16,5.44-3.46,11.06-6.58,16.85-9.37,1.28-.62,2.34-2.03,4.02-2.13Z"/>
    <path class="cls-13" d="M195.61,41.14c3.62,2.93,6.73,6.26,9.32,9.99l-6.29,1.54-2.08,.02-.95-11.55Z"/>
    <path class="cls-9" d="M59.14,50.17l-.5,1c-1.77-.29-3.68,.05-5.74,1.04l-3.31-.32c-.65-2.73-1.92-5.71-3.81-8.94-.2-.33-.09-.76,.24-.96,.1-.06,.22-.1,.34-.1,1.84-.07,12.24-1.12,10.42,3.03-.14,.33-.15,.64-.02,.8,.8,1.01,1.19,2.14,1.17,3.4-.01,.38,.12,.7,.33,.83,.25,.16,.55,.23,.88,.22Z"/>
    <path class="cls-15" d="M80.09,43.29l5.8,6.05-7.75,4.5c-2.4-3.22-4.24-6.73-5.53-10.54h7.48Z"/>
    <path class="cls-24" d="M72.61,43.3c1.29,3.81,3.13,7.32,5.53,10.54-1.97,.93-4.05,1.43-6.25,1.5-3.64,.68-7.14,.35-10.5-1l-2.75-3.17,.5-1,13.47-6.87Z"/>
    <path class="cls-20" d="M129.1,43.63l.79,.29,8.5,7.25,.25,.67c-2.08,1.12-3.83,2.62-5.25,4.5-.85,.45-1.68,.49-2.5,.13l-5.17-5.23-5.18-4.38c-.2-.18-.51-.3-.88-.37-1.01-.18-1.17-.8-.48-1.86l9.92-1Z"/>
    <path class="cls-14" d="M116.64,44.42l2.54,.21c-.69,1.06-.53,1.68,.48,1.86,.37,.07,.68,.19,.88,.37l5.18,4.38-11.58,2.18-9.28,.66-2-7.17c-.06-.22,.06-.45,.28-.52,.02,0,.03,0,.05-.01l13.45-1.96Z"/>
    <path class="cls-16" d="M231.89,48.09c.22,.33,.07,.81-.46,1.44-3.77,2.03-6.62,2.97-8.55,2.82-4.85-.38-10.07,.49-14.33,.52-2.72,.01-5.44,.09-8.16,.22l-1.75-.42,6.29-1.54c5.37-.51,10.71-.37,16.02,.4,3.9,.56,7.7-1.59,10.94-3.44Z"/>
    <path class="cls-17" d="M33.56,48.4l14.83,3.52c-1.75,1.95-4,2.88-6.75,2.81-.22,0-.47-.14-.74-.4-.25-.24-.54-.38-.82-.41-4.31-.33-10.36-.09-14.19-2.08l7.67-3.44Z"/>
    <path class="cls-21" d="M169.14,48.67l4.43,5.08c.18,.21,.52,.29,.88,.22,2.68-.56,5.35-1.48,8.02-2.76l14.09,1.48,2.08-.02,1.75,.42-27.75,1.58c-7.42-.61-13.4-.69-17.94-.22-6.24,.63-10.7,.94-13.38,.92,.83-.52,1.71-.85,2.66-.98,8.5-1.43,16.43-4.63,25.16-5.72Z"/>
    <path class="cls-4" d="M169.14,48.67l.75-.08c4.29,.45,8.48,1.33,12.58,2.62-2.67,1.28-5.34,2.2-8.02,2.76-.36,.07-.7-.01-.88-.22l-4.43-5.08Z"/>
    <path class="cls-18" d="M85.89,49.34l18.97,4.74,9.28-.66c-2.65,3.17-6.07,4.64-10.25,4.42l-3.5-.17c-6.68-.24-13.3-.95-19.87-2.14-3.01-.54-5.57-.03-8.63-.19,2.2-.07,4.28-.57,6.25-1.5l7.75-4.5Z"/>
    <path class="cls-12" d="M7.68,51.13c6.06,.65,12.13,.89,18.21,.71,3.83,1.99,9.88,1.75,14.19,2.08,.28,.03,.57,.17,.82,.41,.27,.26,.52,.39,.74,.4,2.75,.07,5-.86,6.75-2.81l1.2-.03,3.31,.32c2.47,2.03,5.3,2.74,8.49,2.13,3.36,1.35,6.86,1.68,10.5,1,3.06,.16,5.62-.35,8.63,.19,6.57,1.19,13.19,1.9,19.87,2.14,.51,.68,.34,1.02-.5,1.01-7.41-.09-14.82-.29-22.22-.61-9.69-.43-23.42-2.42-35.33-2.52-10.55-.08-21-2.04-31.46-2.92-1.47,.07-2.53-.43-3.2-1.5Z"/>
    <path class="cls-22" d="M58.64,51.17l2.75,3.17c-3.19,.61-6.02-.1-8.49-2.13,2.06-.99,3.97-1.33,5.74-1.04Z"/>
    <path class="cls-10" d="M125.72,51.24l5.17,5.23c-8.99,.97-17.99,1.43-27,1.37,4.18,.22,7.6-1.25,10.25-4.42l11.58-2.18Z"/>
    <path class="cls-8" d="M138.64,51.84c2.45-.3,4.23,.55,5.34,2.55-.95,.13-1.83,.46-2.66,.98l-7.93,.97c1.42-1.88,3.17-3.38,5.25-4.5Z"/>
  </g>
</svg>