<?xml version="1.0" encoding="UTF-8"?>
<svg id="Layer_2" data-name="Layer 2" xmlns="http://www.w3.org/2000/svg" viewBox="0 0 135.41 67.39">
  <defs>
    <style>
      .cls-1 {
        fill: #a9a09a;
      }

      .cls-2 {
        fill: #c2b9af;
      }

      .cls-3 {
        fill: #d5b9a4;
      }

      .cls-4 {
        fill: #dfd2c9;
      }

      .cls-5 {
        fill: #717e86;
      }

      .cls-6 {
        fill: #e8ddda;
      }

      .cls-7 {
        fill: #aeaaa5;
      }

      .cls-8 {
        fill: #e0dbdd;
      }

      .cls-9 {
        fill: #dec1ae;
      }

      .cls-10 {
        fill: #78797a;
      }

      .cls-11 {
        fill: #97999e;
      }

      .cls-12 {
        fill: #bab2ab;
      }

      .cls-13 {
        fill: #48565f;
      }

      .cls-14 {
        fill: #89959c;
      }

      .cls-15 {
        fill: #989491;
      }

      .cls-16 {
        fill: #cba898;
      }

      .cls-17 {
        fill: #b39181;
      }

      .cls-18 {
        fill: #928c89;
      }

      .cls-19 {
        fill: #e2d5cd;
      }

      .cls-20 {
        fill: #c8bbaf;
      }

      .cls-21 {
        fill: #d0c3b8;
      }

      .cls-22 {
        fill: #cbc2bd;
      }

      .cls-23 {
        fill: #868a8d;
      }
    </style>
  </defs>
  <g id="Layer_1-2" data-name="Layer 1">
    <path class="cls-6" d="M83.06,17.54l2.46,5.04,1.25,1.5c1.95,1.72,3.36,3.78,4.25,6.17-2.49,1.11-4.58,2.72-6.25,4.83-.21,.26-.48,.45-.79,.54l-.71,.21-6.25-13.58-5.52-8.78c-.16-.25-.49-.36-.79-.25-1.4,.49-2.4,1.41-3.01,2.76-.16,.35-.4,.62-.66,.74l-.77,.36-1-.83-3.82-9.55c-.13-.32-.41-.52-.69-.52l-11.24,.35c-.51,.01-.92-.07-1.03-.2-.45-.56-1-.93-1.65-1.11-.61-.17-.91-.26-.91-.26-.76,.07-1.48-.16-2.16-.71C49.02-1.93,55.48-.06,62.34,1.75c3.99,1.05,7.18,5.01,9.85,7.95,.21,.24,.36,.5,.45,.77l1.05,3.39c.07,.24,.39,.45,.83,.54,3.02,.64,5.87,1.69,8.54,3.14Z"/>
    <path class="cls-20" d="M43.77,4.25c.68,.55,1.4,.78,2.16,.71,0,0,.3,.09,.91,.26,.65,.18,1.2,.55,1.65,1.11,.11,.13,.52,.21,1.03,.2l11.24-.35c.28,0,.56,.2,.69,.52l3.82,9.55c-.43,.04-.81,.2-1.14,.48-.28,.24-.58,.38-.84,.4-4.21,.39-8.42,.64-12.65,.75-6.07,.15-.05-10.36-10.12-9.05l-1.25-.75,4.5-3.83Z"/>
    <path class="cls-19" d="M39.27,8.08l1.25,.75c1.51,1.66,2.92,3.41,4.22,5.25,2.83,4,6.18,6.21,9.72,9.35,.23,.21,.32,.53,.22,.82-.43,1.23-1.07,2.26-1.91,3.08l-3.86,3.31c-1.2,1.03-2.1,.85-2.69-.55l-5.44-12.8c-.3-.71-.93-1.22-1.68-1.34-2.81-.48-5.93,.33-8.44,.35-3.31,.02-6.6,.2-9.89,.53l-.25-.08c-.57-3.28,1.15-5.54-.1-9.4,6.38-1.83,12.66-1.59,18.85,.73Z"/>
    <path class="cls-9" d="M20.42,7.35c1.25,3.86-.47,6.12,.1,9.4-5.22,1.71-9.87,4.38-13.95,7.99l-2.55-.66-.75-.08c.09-1.91,.85-3.47,2.3-4.66,4.87-4.01,9.82-8,14.85-11.99Z"/>
    <path class="cls-1" d="M65.27,16.25l1,.83c1.5,1.54,.05,2.3-1.37,2.41-2.01,.17-3.8,1.04-5.39,2.61-.29,.51-.47,1.14-.54,1.89-.26,3.04-2.23,7.12-3.25,10.09-.13,.38-.1,.73,.08,.92l.72,.75-1,.08c-.88-1.07-1.9-1.62-3.07-1.63-.55-1.13-.51-2.45,.12-3.96,.07-.18,.12-.5,.13-.95l.07-1.96c.84-.82,1.48-1.85,1.91-3.08,.1-.29,.01-.61-.22-.82-3.54-3.14-6.89-5.35-9.72-9.35-1.3-1.84-2.71-3.59-4.22-5.25,10.07-1.31,4.05,9.2,10.12,9.05,4.23-.11,8.44-.36,12.65-.75,.26-.02,.56-.16,.84-.4,.33-.28,.71-.44,1.14-.48Z"/>
    <path class="cls-4" d="M77.02,22.25c-5.83,.55-11.67,.5-17.51-.15,1.59-1.57,3.38-2.44,5.39-2.61,1.42-.11,2.87-.87,1.37-2.41l.77-.36c.26-.12,.5-.39,.66-.74,.61-1.35,1.61-2.27,3.01-2.76,.3-.11,.63,0,.79,.25l5.52,8.78Z"/>
    <path class="cls-21" d="M92.06,13.61c2.76,3.01,4.76,6.44,5.99,10.27-3.98,.51-7.74,.58-11.28,.2l-1.25-1.5c1.72-2.57,3.08-5.33,4.08-8.27,.77-1.01,1.59-1.24,2.46-.7Z"/>
    <path class="cls-8" d="M92.06,13.61l10.76,5.28c.41,.2,.67,.48,.67,.71l.03,8.44c0,.34,.17,.63,.42,.69,4.78,1.2,6.92,4.79,10.43,7.81,.24,.2,.56,.28,.87,.2,5.92-1.46,11.08-.18,15.48,3.85l4.6,10.24c.13,.28,.12,.61-.03,.89-1.45,2.81-1.7,5.61-3.62,7.91-2.31,2.77-5.24,4.72-8.77,5.85,2.17-1.87,4.27-3.78,6.3-5.75,.83-.81,1.39-1.29,1.7-1.44,1.44-.72,1.8-1.71,1.07-2.98l-4.2-7.31-2.77-6.34c-.23-.52-.71-.85-1.21-.84l-8.98,.22c-1.03-.52-1.3-1.21-.8-2.07,.23-.39,.32-.76,.2-.87l-.38-.39c-.15-.16-.47-.05-.7,.25-.03,.04-.06,.08-.09,.12l-2.49,4c-.14,.22-.18,.53-.1,.85l1.31,5.37c.01,.05-.06,.17-.18,.3l-.12,.13c-.11,.11-.34,0-.51-.23-.02-.03-.04-.05-.06-.08l-2.91-4.63-3.62-9.56c-.14-.39-.5-.64-.89-.62l-12.41,.43-.08-.75c.03-1.03,.36-1.95,1-2.75,.77-1.33,6.9-.81,8.43-1.06,.28-.05,.48-.29,.46-.57-.2-2.26-1.14-3.94-2.82-5.03-1.23-3.83-3.23-7.26-5.99-10.27Z"/>
    <path class="cls-12" d="M89.6,14.31c-1,2.94-2.36,5.7-4.08,8.27l-2.46-5.04c1.95-1.37,4.13-2.45,6.54-3.23Z"/>
    <path class="cls-21" d="M52.77,27.33l-.07,1.96c-.01,.45-.06,.77-.13,.95-.63,1.51-.67,2.83-.12,3.96l.03,1.84c-.07,3.06-4.91-3.53-5.34-4-.2-.22-.51-.35-.84-.35l-23.9-.18-1.63-14.68c3.29-.33,6.58-.51,9.89-.53,2.51-.02,5.63-.83,8.44-.35,.75,.12,1.38,.63,1.68,1.34l5.44,12.8c.59,1.4,1.49,1.58,2.69,.55l3.86-3.31Z"/>
    <path class="cls-3" d="M20.52,16.75l.25,.08,1.63,14.68-1.13,.07-14.7-6.84c4.08-3.61,8.73-6.28,13.95-7.99Z"/>
    <path class="cls-2" d="M59.51,22.1c5.84,.65,11.68,.7,17.51,.15l6.25,13.58-.04,.21c-3.13-.07-25.05-1.14-26.21-.21l-.5-.08-.72-.75c-.18-.19-.21-.54-.08-.92,1.02-2.97,2.99-7.05,3.25-10.09,.07-.75,.25-1.38,.54-1.89Z"/>
    <path class="cls-16" d="M3.27,24l.75,.08c-.22,2.39-.38,4.79-.47,7.18-.22,5.81-2.16,13.68,2,18.72,2.96,3.58,6.06,7.11,9.29,10.6,.61,1.43,.77,2.83,.49,4.2-5.18-6.23-9.78-12.85-13.8-19.86-.65-3.53-2.06-6.35-1.32-9.93,.76-3.73,1.78-7.4,3.06-10.99Z"/>
    <path class="cls-17" d="M4.02,24.08l2.55,.66,14.7,6.84c.56,.27,.66,.67,.29,1.21,.19,5.52-.41,10.95-1.79,16.29l-4.93,11.5c-3.23-3.49-6.33-7.02-9.29-10.6-4.16-5.04-2.22-12.91-2-18.72,.09-2.39,.25-4.79,.47-7.18Z"/>
    <path class="cls-18" d="M86.77,24.08c3.54,.38,7.3,.31,11.28-.2,1.68,1.09,2.62,2.77,2.82,5.03,.02,.28-.18,.52-.46,.57-1.53,.25-7.66-.27-8.43,1.06l-.96-.29c-.89-2.39-2.3-4.45-4.25-6.17Z"/>
    <path class="cls-22" d="M91.02,30.25l.96,.29c-.64,.8-.97,1.72-1,2.75-1.95,.62-2.35,5.95-2.66,7.95-2.23-1.09-3.92-2.83-5.09-5.2l.04-.21,.71-.21c.31-.09,.58-.28,.79-.54,1.67-2.11,3.76-3.72,6.25-4.83Z"/>
    <path class="cls-11" d="M22.4,31.51l23.9,.18c.33,0,.64,.13,.84,.35,.43,.47,5.27,7.06,5.34,4,.99,2.61,.06,6.23,.46,9.02,.1,.68-.28,1.38-.95,1.74l-16.49,8.92c-.35,.19-.72,.19-.89,.01l-1.13-1.19c.31-1.82-8.96-18.46-10.44-21.36-.18-.34-.45-.57-.7-.59-.25-.02-.51,.05-.78,.2,.37-.54,.27-.94-.29-1.21l1.13-.07Z"/>
    <path class="cls-23" d="M33.48,54.54l-1.18-.26c-.5-.11-.81-.2-.93-.27-2.46-1.51-10.06-6.57-11.6-4.93,1.38-5.34,1.98-10.77,1.79-16.29,.27-.15,.53-.22,.78-.2,.25,.02,.52,.25,.7,.59,1.48,2.9,10.75,19.54,10.44,21.36Z"/>
    <path class="cls-11" d="M90.98,33.29l.08,.75c-1.05,4.11-.66,7.93,1.17,11.48l10.16,8.45c.23,.19,.54,.3,.89,.31l1.24,.05v.23c0,.12-.12,.22-.25,.22l-12.48,.06c-.67,0-1.23-.48-1.25-1.08,0-.11,0-.22,.04-.33,1.11-3.59,.48-6.96-1.88-10.11,.8-.86,.67-1.55-.38-2.08,.31-2,.71-7.33,2.66-7.95Z"/>
    <path class="cls-5" d="M55.52,35.83l4.28,13.42c.14,.45,.54,.75,.99,.75l15.75,.11c3.05-.29,6.05-.96,8.98-2.03-.89,.98-1.23,2.16-1.02,3.53,.04,.31-.04,.62-.23,.86-.67,.81-.93,1.75-.8,2.8,.03,.22-.03,.56-.17,1.02l-.81,2.74c-.11,.37-.08,.73,.09,.94,.43,.55,.99,.83,1.7,.84,.21,0,.47-.32,.63-.77,.32-.9,4.1-12.81,1.36-12.29,1.05-.87,1.43-2.03,1.12-3.48-.08-.4-.02-.75,.16-.88,.25-.17,.63-.2,1.15-.07,2.36,3.15,2.99,6.52,1.88,10.11-.18,.58,.2,1.19,.84,1.36,.12,.03,.24,.05,.37,.05l12.48-.06c.13,0,.24-.1,.25-.22v-.23l6-1.25c-.31,.62-.58,1.43-.24,2.02,.75,1.33,3.78,.34,4.17,1.3,.35,.85-1.48,3.07-3.52,3.38-.67,.1-1.2-.02-1.82,.39-.75,.5-.72,1.44-1.11,1.85-1.5,1.57-2.94,2.58-4.33,3.02-4.72,1.49-16.19,1.67-19.74-3.23-.27-.38-.77-.52-1.19-.34l-12.71,5.58c-.75,.33-1.56,.42-2.3,.26-5.88-1.31-11.61-1.94-15.51-7.02-.11-.15-.37-.25-.68-.25h-1.02c-.3,0-.6,.16-.82,.42l-4.73,5.52c-.21,.24-.53,.41-.89,.46-9.71,1.35-19.3,.8-28.75-1.66,.28-1.37,.12-2.77-.49-4.2l4.93-11.5c1.54-1.64,9.14,3.42,11.6,4.93,.12,.07,.43,.16,.93,.27l1.18,.26,1.13,1.19c.17,.18,.54,.18,.89-.01l16.49-8.92c.67-.36,1.05-1.05,.95-1.74-.4-2.79,.53-6.41-.46-9.02l-.03-1.84c1.17,.01,2.19,.56,3.07,1.63Z"/>
    <path class="cls-2" d="M107.98,43.79l-15.75,1.73c-1.83-3.55-2.22-7.37-1.17-11.48l12.41-.43c.39-.02,.75,.23,.89,.62l3.62,9.56Z"/>
    <path class="cls-7" d="M83.23,36.04c1.17,2.37,2.86,4.11,5.09,5.2,1.05,.53,1.18,1.22,.38,2.08-.52-.13-.9-.1-1.15,.07-.18,.13-.24,.48-.16,.88,.31,1.45-.07,2.61-1.12,3.48l-.75,.33c-2.93,1.07-5.93,1.74-8.98,2.03l-19.52-14.28c1.16-.93,23.08,.14,26.21,.21Z"/>
    <path class="cls-15" d="M55.52,35.83l1-.08,.5,.08,19.52,14.28-15.75-.11c-.45,0-.85-.3-.99-.75l-4.28-13.42Z"/>
    <path class="cls-7" d="M114.81,41.04l-1.66,9.1c-.78,1.39-1.66,2.37-2.63,2.94l-6,1.25-1.24-.05c-.35-.01-.66-.12-.89-.31l-10.16-8.45,15.75-1.73,2.91,4.63c.15,.25,.39,.4,.53,.34,.02,0,.03-.02,.04-.03l.12-.13c.12-.13,.19-.25,.18-.3l-1.31-5.37c-.08-.32-.04-.63,.1-.85l2.49-4c.2-.32,.52-.51,.72-.42,.03,.01,.05,.03,.07,.05l.38,.39c.12,.11,.03,.48-.2,.87-.5,.86-.23,1.55,.8,2.07Z"/>
    <path class="cls-12" d="M127.77,48l-10.6,1.66c-2.44,.38-3.13,1.62-2.07,3.71,.39,.76,4.38,6.82,3.17,6.71l-3.71-3.79c-1.77,.48-3.35,.22-4.06-.73-.28-.38-.35-.78-.37-.94-.34-2.24,2.77-4.32,3.02-4.48,.55-3.03,1.11-6.07,1.66-9.1l8.98-.22c.5-.01,.98,.32,1.21,.84l2.77,6.34Z"/>
    <path class="cls-13" d="M86.27,47.75c2.74-.52-1.04,11.39-1.36,12.29-.16,.45-.42,.77-.63,.77-.71-.01-1.27-.29-1.7-.84-.17-.21-.2-.57-.09-.94l.81-2.74c.14-.46,.2-.8,.17-1.02-.13-1.05,.13-1.99,.8-2.8,.19-.24,.27-.55,.23-.86-.21-1.37,.13-2.55,1.02-3.53l.75-.33Z"/>
    <path class="cls-14" d="M127.77,48l4.2,7.31c.73,1.27,.37,2.26-1.07,2.98-.31,.15-.87,.63-1.7,1.44-2.03,1.97-4.13,3.88-6.3,5.75-3.74,3-7.79,.63-11.63-1.9,1.77-.42,3.41-.11,4.9,.93,.24,.16,.55,.19,.84,.07,.63-.24,1.42-.32,2.39-.23,.47,.05,.6-.14,.41-.57-.33-.71-.43-1.44-.29-2.19,.05-.29-.06-.56-.26-.65-.41-.19-.74-.47-.99-.86,1.21,.11-2.78-5.95-3.17-6.71-1.06-2.09-.37-3.33,2.07-3.71l10.6-1.66Z"/>
    <path class="cls-10" d="M114.56,56.29l3.71,3.79c.25,.39,.58,.67,.99,.86,.2,.09,.31,.36,.26,.65-.14,.75-.04,1.48,.29,2.19,.19,.43,.06,.62-.41,.57-.97-.09-1.76-.01-2.39,.23-.29,.12-.6,.09-.84-.07-1.49-1.04-3.13-1.35-4.9-.93-.23-.04-.44-.11-.65-.19-.36-.15-.65-.36-1.08-.76-.76-.7-1.13-1.05-1.18-1.35-.08-.58,.38-1.18,.84-1.5,1.05-.72,2.33-.08,2.66-.67,.04-.06,.03-.07,.1-.24,.07-.17,1.01-2.45,2.46-2.57,.05,0,.09,0,.12,0Z"/>
  </g>
</svg>