<?xml version="1.0" encoding="UTF-8"?>
<svg id="Layer_2" data-name="Layer 2" xmlns="http://www.w3.org/2000/svg" viewBox="0 0 138.19 49.69">
  <defs>
    <style>
      .cls-1 {
        fill: #d3c1b1;
      }

      .cls-2 {
        fill: #66767e;
      }

      .cls-3 {
        fill: #bda89b;
      }

      .cls-4 {
        fill: #bab2ab;
      }

      .cls-5 {
        fill: #c8bfb6;
      }

      .cls-6 {
        fill: #d9cec9;
      }

      .cls-7 {
        fill: #b9b4b3;
      }

      .cls-8 {
        fill: #928c89;
      }

      .cls-9 {
        fill: #9ea0a2;
      }

      .cls-10 {
        fill: #c1b1a4;
      }

      .cls-11 {
        fill: #b69a8c;
      }

      .cls-12 {
        fill: #9e928a;
      }
    </style>
  </defs>
  <g id="Layer_1-2" data-name="Layer 1">
    <path class="cls-6" d="M90.55,9.33c3.66,4.17,6.9,9.46,11.2,12.31,3.55,2.35,7.46,3.88,11.75,4.58,.33,.05,.63,.19,.88,.4,7.91,6.54,14.09,8.18,21.39,12.7,.33,.21,.56,.46,.66,.72l1.76,4.9c-6.7-2.31-13.59-3.72-20.66-4.22l-7.46-8.53c-.21-.23-.52-.35-.84-.31l-1.16,.13c-1.04-3.4-15.43-7.36-16.79-7.52-1.09-.14-4.09,.23-8.99,1.1l-3.92-11.75c-.1-.29-.3-.56-.57-.77-4.13-3.12-11.71-8.03-10.73-13.07,3.34,.04,6.57,.25,9.69,.62,5.76,.69,10.1,4.55,13.79,8.71Z"/>
    <path class="cls-1" d="M67.07,0c-.98,5.04,6.6,9.95,10.73,13.07,.27,.21,.47,.48,.57,.77l3.92,11.75-9.27,.36c-2.81-2.99-5.66-6.01-8.56-9.06-1.47-1.54-3.45-2.61-5.12-4.02-.38-.32-.97-.27-1.33,.11l-8.14,8.6-4.36,2.28c-.33,.17-.68,.2-.98,.1-.75-.25-1.4-.04-1.94,.64-.18,.23-.47,.41-.83,.53-4.14,1.35-8.39,2.17-12.74,2.46l-6.17-.02c-.35,0-.66,.1-.88,.29-2.86,2.41-5.22,5.16-7.07,8.25-4.85,1.27-9.55,3.02-14.11,5.27-.2,.1-.41,.09-.49-.03-.07-.09-.09-.2-.06-.34v-.25l1.17-3.25c.12-.32,.32-.58,.57-.74,6.91-4.56,13.8-9.15,20.68-13.76,4.99-3.34,12.45-4.33,18.34-5.57,1.25-.26,2.24-.91,2.97-1.95,5.51-7.8,13.21-12.96,23.1-15.49Z"/>
    <path class="cls-6" d="M73.02,25.95l4.33,9.11c.15,.32,.15,.66,0,.89-.88,1.33-7.68-6.08-7.9-6.27-4.1-1.58-8.41-2.62-12.92-3.13l-2-1.33-4.66-3.64,8.14-8.6c.36-.38,.95-.43,1.33-.11,1.67,1.41,3.65,2.48,5.12,4.02,2.9,3.05,5.75,6.07,8.56,9.06Z"/>
    <path class="cls-10" d="M49.87,21.58l4.66,3.64c-1.52,1.61-2.42,3.46-2.7,5.53l-.3,1.47c-2.64-1.48-4.87-3.44-6.7-5.88-.06-.07-1.72-1.39-.94,.13,1.87,3.67,4.1,7.27,6.69,10.8,.59,.81,.41,1.22-.54,1.24l-7.51,.21-3.11-7.21c-3.01-1.92-6.3-2.93-9.89-3.04l-.51-.88c4.35-.29,8.6-1.11,12.74-2.46,.36-.12,.65-.3,.83-.53,.54-.68,1.19-.89,1.94-.64,.3,.1,.65,.07,.98-.1l4.36-2.28Z"/>
    <path class="cls-7" d="M108.07,32.01l-12.42,6.69-28.12-.73c2.86,.26,3.73-.24,2.6-1.5-.22-.25-.35-.55-.36-.85l-.32-5.94c.22,.19,7.02,7.6,7.9,6.27,.15-.23,.15-.57,0-.89l-4.33-9.11,9.27-.36c4.9-.87,7.9-1.24,8.99-1.1,1.36,.16,15.75,4.12,16.79,7.52Z"/>
    <path class="cls-8" d="M54.53,25.22l2,1.33,4,4.17c-2.51,.46-5.41,.47-8.7,.03,.28-2.07,1.18-3.92,2.7-5.53Z"/>
    <path class="cls-2" d="M51.53,32.22c5.82,4.08,8.14,5.93,15.71,5.54l.29,.21,28.12,.73c7.31,1.32,14.61,1.99,21.88,2.02,7.07,.5,13.96,1.91,20.66,4.22-3.52,2.07-6.33,2.92-8.42,2.57-6.95-1.16-12.19-1.42-15.74-.77-5.52,1.01-10.57,1.84-16.47,2.08-6.14,.25-12.43,1.03-18.39,.84-14.25-.45-28.63-.59-42.8-2.2-4.78-.55-8.83-.39-13.45-.23-3.33,.13-6.24-1.95-9.21-3.2-4.09-1.71-8.86-1.64-13.28-2.34-.25-.04-.44-.19-.43-.34,0-.12,.09-.23,.24-.34-.03,.14,0,.25,.06,.34,.08,.12,.29,.13,.49,.03,4.56-2.25,9.26-4,14.11-5.27,2.52,1.74,5.15,2.89,7.88,3.44l12.5-1.33c2.39,.7,4.81,.87,7.25,.5l7.51-.21c.95-.02,1.13-.43,.54-1.24-2.59-3.53-4.82-7.13-6.69-10.8-.78-1.52,.88-.2,.94-.13,1.83,2.44,4.06,4.4,6.7,5.88Z"/>
    <path class="cls-5" d="M56.53,26.55c4.51,.51,8.82,1.55,12.92,3.13l.32,5.94c.01,.3,.14,.6,.36,.85,1.13,1.26,.26,1.76-2.6,1.5l-.29-.21c-.03-.41,.05-.78,.24-1.11,.16-.27,.13-.58-.07-.73l-6.88-5.2-4-4.17Z"/>
    <path class="cls-3" d="M29.02,27.59l.51,.88c-2.83,3.34-5.08,7.03-6.75,11.08-2.73-.55-5.36-1.7-7.88-3.44,1.85-3.09,4.21-5.84,7.07-8.25,.22-.19,.53-.29,.88-.29l6.17,.02Z"/>
    <path class="cls-12" d="M29.53,28.47c3.59,.11,6.88,1.12,9.89,3.04-2.07,2.07-3.45,4.3-4.14,6.71l-12.5,1.33c1.67-4.05,3.92-7.74,6.75-11.08Z"/>
    <path class="cls-4" d="M51.83,30.75c3.29,.44,6.19,.43,8.7-.03l6.88,5.2c.2,.15,.23,.46,.07,.73-.19,.33-.27,.7-.24,1.11-7.57,.39-9.89-1.46-15.71-5.54l.3-1.47Z"/>
    <path class="cls-11" d="M39.42,31.51l3.11,7.21c-2.44,.37-4.86,.2-7.25-.5,.69-2.41,2.07-4.64,4.14-6.71Z"/>
    <path class="cls-9" d="M117.53,40.72c-7.27-.03-14.57-.7-21.88-2.02l12.42-6.69,1.16-.13c.32-.04,.63,.08,.84,.31l7.46,8.53Z"/>
  </g>
</svg>