<?xml version="1.0" encoding="UTF-8"?>
<svg id="Layer_2" data-name="Layer 2" xmlns="http://www.w3.org/2000/svg" viewBox="0 0 204.66 64.18">
  <defs>
    <style>
      .cls-1 {
        fill: #d1cbcc;
      }

      .cls-2 {
        fill: #dfd2c9;
      }

      .cls-3 {
        fill: #d3c1b1;
      }

      .cls-4 {
        fill: #c6b6a9;
      }

      .cls-5 {
        fill: #66767e;
      }

      .cls-6 {
        fill: #97999e;
      }

      .cls-7 {
        fill: #bda89b;
      }

      .cls-8 {
        fill: #bab2ab;
      }

      .cls-9 {
        fill: #c8bfb6;
      }

      .cls-10 {
        fill: #58646c;
      }

      .cls-11 {
        fill: #989491;
      }

      .cls-12 {
        fill: #9b8981;
      }

      .cls-13 {
        fill: #d9cec9;
      }

      .cls-14 {
        fill: #b9b4b3;
      }

      .cls-15 {
        fill: #8d8f91;
      }

      .cls-16 {
        fill: #afafaf;
      }

      .cls-17 {
        fill: #d4c6b8;
      }

      .cls-18 {
        fill: #c8bbaf;
      }

      .cls-19 {
        fill: #c1b1a4;
      }

      .cls-20 {
        fill: #d0c3b8;
      }
    </style>
  </defs>
  <g id="Layer_1-2" data-name="Layer 1">
    <path class="cls-2" d="M118.41,12.89c-1.28,5.09,.95,8.02,5.28,10.84,3.29,2.14,6.8,4.46,10.53,6.95,1.03,.69,1.59,1.58,1.66,2.69l.3,4.77c.04,.63-.54,1.18-1.29,1.23,0,0,0,0-.01,0-6.2,.33-9.24-1.47-14.76-3.44l-8.31-5.74c-1.33-.93-1.87-.6-1.62,.98,.55,3.36,1.98,6.56,4.29,9.59-.2,1.2-1.53,1.03-2.31,.41-4.67-3.75-9.33-7.71-13.97-11.87-.65-2.99-1.92-5.81-3.83-8.45-1.51-1.92-3.42-3.69-5.72-5.31l1.68-10.15,1.36-1.44c.81-.85,.59-1.34-.64-1.47-3.59-.39-7.08,.06-10.46,1.35-1.91,.73-2.92,.16-3.01-1.69,5.08-2.35,9.24-2.72,15.01-1.32,10.3,2.52,18.48,3.51,25.82,12.07Z"/>
    <path class="cls-3" d="M77.58,2.14c.09,1.85,1.1,2.42,3.01,1.69,3.38-1.29,6.87-1.74,10.46-1.35,1.23,.13,1.45,.62,.64,1.47l-1.36,1.44c-2.93-.45-5.73,.46-8.28,.53-3.69,.1-6.18,.2-8.25,3.66-1.97,3.29-4.16,6.32-6.59,9.08-2.73,1.23-5.1,2.99-7.11,5.26-.22,.25-.35,.56-.36,.89-.11,3.16,.2,6.27,.92,9.33l-.29,.29-13.55-1.43c-6.75,3.61-13.63,6.9-20.64,9.88-4.21,1.79-6.14,4.16-7.74,8.16-.04,.09-.23,.35-.56,.78l-2.76,3.53-13.3,2.44c-1.07,.25-1.67,.17-1.81-.26-.43-1.27,14.61-15.33,16.52-16.78,6.16-4.68,13.77-6.18,20.01-10.98,2.93-2.25,4.87-3.49,5.82-3.7,7.27-1.63,13.01-4.87,17.22-9.72,5.65-6.5,11.65-11.24,18-14.21Z"/>
    <path class="cls-17" d="M90.33,5.39l-1.68,10.15-7.79,3.94c-.34,.18-.58,.42-.65,.67-.19,.68,.2,1,1.17,.97,6.23-.23,10.56-.32,12.99-.27,1.91,2.64,3.18,5.46,3.83,8.45-3.73,4.13-8.16,7.33-13.29,9.59l-4.66-5.45c-.3-.36-.64-.58-.89-.57-.98,.03-1.39,.54-1.24,1.53,.03,.19-.03,.51-.18,.96l-1.68,5.08-10.18,2.45c-1.92,.02-5.17-7.56-5.71-8.46l.29-.29,17.05-1.89c.8-.09,.93-.45,.38-1.08l-10.88-12.51c2.43-2.76,4.62-5.79,6.59-9.08,2.07-3.46,4.56-3.56,8.25-3.66,2.55-.07,5.35-.98,8.28-.53Z"/>
    <path class="cls-9" d="M118.41,12.89l8.92,9.5,7.23,6.81c.19,.18,.5,.17,.68-.03,0,0,0,0,.01-.01,3.13-3.81,6.88-6.89,11.24-9.24,0,.91,.18,1.55,.53,1.91-3.68,3.36-6.19,9.23-9.95,16.41-.14,.25-.12,.55,.04,.76l.26,.35c-.24-.04-.4,.02-.47,.17-.08,.15-.01,.42,.17,.67,.49,.67,11.07,16.49,10.61,10.48-.33-4.45-.09-7.96,.73-10.53l17.21,7.71c-5.97,2.45-12.05,4.56-18.25,6.33l-15-5c-.85,.04-1.26-.19-1.24-.68,.71-2.53,.15-4.94-1.69-7.25-.57-.72-1.48-1.12-2.4-1.04-1.9,.16-10.63,1.08-11.67,2.89l-1.46,.2c-6.87,.95-13.63,2.91-20.29,5.88l-.75-.08c-2.28-3.74-5.2-6.88-8.75-9.42l.79-.79c5.13-2.26,9.56-5.46,13.29-9.59,4.64,4.16,9.3,8.12,13.97,11.87,.78,.62,2.11,.79,2.31-.41,2.32-1.23,4.2-2.84,5.64-4.83,5.52,1.97,8.56,3.77,14.76,3.44,.75-.04,1.33-.58,1.3-1.22,0,0,0,0,0-.01l-.3-4.77c-.07-1.11-.63-2-1.66-2.69-3.73-2.49-7.24-4.81-10.53-6.95-4.33-2.82-6.56-5.75-5.28-10.84Z"/>
    <path class="cls-4" d="M88.65,15.54c2.3,1.62,4.21,3.39,5.72,5.31-2.43-.05-6.76,.04-12.99,.27-.97,.03-1.36-.29-1.17-.97,.07-.25,.31-.49,.65-.67l7.79-3.94Z"/>
    <path class="cls-18" d="M67.21,18.66l10.88,12.51c.55,.63,.42,.99-.38,1.08l-17.05,1.89c-.72-3.06-1.03-6.17-.92-9.33,.01-.33,.14-.64,.36-.89,2.01-2.27,4.38-4.03,7.11-5.26Z"/>
    <path class="cls-13" d="M204.66,57.14c-.45,.83-1.27,1.1-2.46,.8-3.67-.6-7.31-1.25-10.9-1.95-8.17-1.59-16.19-4.92-24.18-7.64l-1-.5c-.35-2.04-.99-10.51,.26-12.08,.23-.29,.3-.63,.15-.8l-1.35-1.63c-.18-.23-.48-.36-.81-.36l-13.5-.21c-.3,0-.55-.18-.63-.42l-3.22-10.52c-.35-.36-.53-1-.53-1.91,4.03-.89,8.05-1.22,12.06-.98,5.34,.32,9.72,2.96,14.12,5.83,3.81,2.48,4.54,8.03,7.93,11.33,4.67,4.54,8.49,7.95,14.54,12.02,3.64,2.45,6.81,5.46,9.52,9.02Z"/>
    <path class="cls-20" d="M147.02,21.83l3.22,10.52c.08,.24,.33,.41,.63,.42l13.5,.21c.33,0,.63,.13,.81,.36l1.35,1.63c.15,.17,.08,.51-.15,.8-1.25,1.57-.61,10.04-.26,12.08h-.5l-17.21-7.71c-3.65-.67-7.33-.94-11.04-.79l-.26-.35c-.16-.21-.18-.51-.04-.76,3.76-7.18,6.27-13.05,9.95-16.41Z"/>
    <path class="cls-20" d="M120.12,35.93c-1.44,1.99-3.32,3.6-5.64,4.83-2.31-3.03-3.74-6.23-4.29-9.59-.25-1.58,.29-1.91,1.62-.98l8.31,5.74Z"/>
    <path class="cls-13" d="M84.91,38.89l-.79,.79-7.86,.76,1.68-5.08c.15-.45,.21-.77,.18-.96-.15-.99,.26-1.5,1.24-1.53,.25,0,.59,.21,.89,.57l4.66,5.45Z"/>
    <path class="cls-7" d="M46.82,33c.3,1.76,.38,3.15,1.13,4.67,2.45,5,4.36,10.2,5.73,15.59l-9.52,.13-10.89-11.02c-.23-.24-.55-.35-.85-.29-1.09,.19-1.07,.66,.07,1.42,2.12,1.42,6.1,9.28,7.63,11.85-5.03,.55-9.91-.77-14.45-.58-3.52,.15-7.04,.34-10.55,.58l2.76-3.53c.33-.43,.52-.69,.56-.78,1.6-4,3.53-6.37,7.74-8.16,7.01-2.98,13.89-6.27,20.64-9.88Z"/>
    <path class="cls-19" d="M46.82,33l13.55,1.43c.54,.9,3.79,8.48,5.71,8.46l-.25,.5h-.72c-.32,0-.62,.12-.86,.33-3.17,2.91-5.97,6.14-8.42,9.67l-2.15-.13c-1.37-5.39-3.28-10.59-5.73-15.59-.75-1.52-.83-2.91-1.13-4.67Z"/>
    <path class="cls-19" d="M148.41,40.14c-.82,2.57-1.06,6.08-.73,10.53,.46,6.01-10.12-9.81-10.61-10.48-.18-.25-.25-.52-.17-.67,.07-.15,.23-.21,.47-.17,3.71-.15,7.39,.12,11.04,.79Z"/>
    <path class="cls-8" d="M84.12,39.68c3.55,2.54,6.47,5.68,8.75,9.42-5.7,1.84-11.46,5.02-17.25,6.08-.3-.3-.51-.65-.64-1.05-.11-.33-.26-.61-.47-.85l-8.68-9.89,.25-.5,10.18-2.45,7.86-.76Z"/>
    <path class="cls-1" d="M131.13,48.5l-15.76-5.4c1.04-1.81,9.77-2.73,11.67-2.89,.92-.08,1.83,.32,2.4,1.04,1.84,2.31,2.4,4.72,1.69,7.25Z"/>
    <path class="cls-12" d="M44.16,53.39c-1.01,1.34-2.35,1.99-4.04,1.96-1.53-2.57-5.51-10.43-7.63-11.85-1.14-.76-1.16-1.23-.07-1.42,.3-.06,.62,.05,.85,.29l10.89,11.02Z"/>
    <path class="cls-14" d="M113.91,43.3l7.21,12.55c-4.39,.31-8.79,.41-13.2,.3-4.57-.11-10.31-4.58-14.3-6.8v-.17c6.66-2.97,13.42-4.93,20.29-5.88Z"/>
    <path class="cls-16" d="M113.91,43.3l1.46-.2,15.76,5.4c-.02,.49,.39,.72,1.24,.68l-.5,.25-10.75,6.42-7.21-12.55Z"/>
    <path class="cls-11" d="M65.83,43.39l8.68,9.89c.21,.24,.36,.52,.47,.85,.13,.4,.34,.75,.64,1.05l-.04,.29-15.15,1.58c-.35,.03-.68-.07-.9-.27l-3.7-3.39c2.45-3.53,5.25-6.76,8.42-9.67,.24-.21,.54-.33,.86-.33h.72Z"/>
    <path class="cls-6" d="M165.62,47.85h.5l1,.5c-.16-.02-.28,0-.37,.06-.09,.06-.04,.26,.12,.46,0,0,0,.01,.01,.02l6.9,8.81c.15,.18,.06,.45-.19,.61-.07,.04-.15,.08-.23,.09l-10.22,2.08c-.19,.04-.55-.04-.98-.2l-5.54-2.1-9.25-4c6.2-1.77,12.28-3.88,18.25-6.33Z"/>
    <path class="cls-5" d="M167.12,48.35c7.99,2.72,16.01,6.05,24.18,7.64,3.59,.7,7.23,1.35,10.9,1.95-2.75,1.71-5.64,3.05-8.68,4.01-2.05,.65-4.69,.95-7.92,.91-9.45-.11-19.06,1.09-28.15,.88-11.61-.27-23.22-.13-34.83,.44-10.85,.02-22.3-1.25-32.34-1.3-11.21-.06-19.23-.23-33.65-.4-10.11-.12-20.19-.62-30.26-1.51-8.11-1.57-16.29-2.63-24.55-3.18l13.3-2.44c3.51-.24,7.03-.43,10.55-.58,4.54-.19,9.42,1.13,14.45,.58,1.69,.03,3.03-.62,4.04-1.96l9.52-.13,2.15,.13,3.7,3.39c.22,.2,.55,.3,.9,.27l15.15-1.58c6.63,1.87,13.55,2.93,20.76,3.18,.28,0,.51-.22,.52-.51,0-.08-.02-.16-.05-.23l-3.76-7.95c-.11-.23-.07-.49,.1-.58,0,0,.01,0,.02-.01,.13-.05,.28-.05,.45-.02,3.99,2.22,9.73,6.69,14.3,6.8,4.41,.11,8.81,.01,13.2-.3l10.75-6.42c1.57,2.59,2.81,5.31,3.72,8.17,.39,1.22,1.78,3.15,2.71,.72,.13-.34,.4-.56,.61-.48l3.22,1.27c.33,.13,.68,.05,.8-.18,.74-1.45,1.89-2.47,3.45-3.04,.23-.08,.61-.03,1.03,.15l8.26,3.56c.24,.1,.52-.02,.62-.27,0-.02,.01-.04,.02-.06l.31-1.09,5.54,2.1c.43,.16,.79,.24,.98,.2l10.22-2.08c.29-.06,.51-.29,.49-.52,0-.07-.03-.13-.07-.18l-6.9-8.81c-.16-.19-.22-.41-.14-.47,0,0,0,0,0,0,.09-.06,.21-.08,.37-.06Z"/>
    <path class="cls-15" d="M92.87,49.1l.75,.08v.17c-.17-.03-.32-.03-.45,.02-.17,.07-.23,.32-.13,.56,0,.01,0,.02,.01,.03l3.76,7.95c.12,.26,.01,.57-.24,.69-.07,.03-.15,.05-.23,.05-7.21-.25-14.13-1.31-20.76-3.18l.04-.29c5.79-1.06,11.55-4.24,17.25-6.08Z"/>
    <path class="cls-10" d="M132.37,49.18l15,5,9.25,4-.31,1.09c-.07,.26-.33,.42-.58,.35-.02,0-.04-.01-.06-.02l-8.26-3.56c-.42-.18-.8-.23-1.03-.15-1.56,.57-2.71,1.59-3.45,3.04-.12,.23-.47,.31-.8,.18l-3.22-1.27c-.21-.08-.48,.14-.61,.48-.93,2.43-2.32,.5-2.71-.72-.91-2.86-2.15-5.58-3.72-8.17l.5-.25Z"/>
  </g>
</svg>